<?xml version="1.0" encoding="UTF-8"?>
<svg version="1.1" xmlns="http://www.w3.org/2000/svg" width="500" height="500">
<path d="M0 0 C1.21537901 1.4351816 2.40371479 2.89374742 3.5625 4.375 C5.54183823 6.54615039 6.93840483 7.85732858 9.90380859 8.25585938 C12.99053089 8.31419113 16.04803021 8.16411036 19.12939453 7.99243164 C26.53796347 7.68495533 31.89848221 9.71329263 38 14 C38.75023437 14.81210938 38.75023437 14.81210938 39.515625 15.640625 C41.52394659 17.47982477 43.13857782 17.57194075 45.8125 17.9375 C52.77359802 19.17367752 56.9463257 22.20903672 61 28 C61.25007812 28.68191406 61.50015625 29.36382812 61.7578125 30.06640625 C62.87950606 32.25210858 62.87950606 32.25210858 65.5390625 32.87109375 C66.55742187 33.05800781 67.57578125 33.24492187 68.625 33.4375 C77.46749075 35.41306245 84.4395436 39.74840723 90 47 C95.21676118 56.38208212 97.63340771 65.43692105 94.875 76 C92.12583331 84.34979464 86.22274984 91.07653384 79 96 C71.88511203 99.56825688 64.87276424 100.62015083 57 101 C56.9121046 104.35399849 56.85931121 107.7076964 56.8125 111.0625 C56.78736328 112.00544922 56.76222656 112.94839844 56.73632812 113.91992188 C56.67533684 119.75475449 57.08755982 123.89325558 60 129 C61.65515329 130.80754393 61.65515329 130.80754393 63.5625 131.9375 C64.16191406 132.33839844 64.76132812 132.73929688 65.37890625 133.15234375 C66.99049941 134.15445618 66.99049941 134.15445618 69 134 C69.7425 133.05125 70.485 132.1025 71.25 131.125 C73.83313317 127.93007214 75.86415305 126.74445245 80 126 C85.4416024 126.19434294 88.78168117 127.56648468 93 131 C95.76604349 135.42755767 95.63162092 139.93903745 95 145 C93.08934952 149.20343106 91.65958115 150.63356603 87.625 152.875 C84.01188795 153.99631064 81.72931097 154.55542929 78 154 C74.62537865 152.08109766 71.47626699 150.02654855 69 147 C69 146.34 69 145.68 69 145 C67.72125 144.855625 66.4425 144.71125 65.125 144.5625 C57.80919976 142.89824213 52.56024625 137.90774428 48.515625 131.734375 C44.36794719 122.41712775 45.24064973 110.92680147 45 101 C37.41 101 29.82 101 22 101 C22.02807827 107.60349776 22.07109866 114.20335188 22.15258789 120.8059082 C22.17576945 123.05127693 22.19016395 125.29675442 22.19555664 127.54223633 C22.2048447 130.77233673 22.24583423 134.00072609 22.29296875 137.23046875 C22.2890361 138.23272995 22.28510345 139.23499115 22.28105164 140.2676239 C22.37778557 146.10566493 22.37778557 146.10566493 25.41918945 150.9855957 C26.27085693 151.65034912 27.12252441 152.31510254 28 153 C30.83880927 157.25821391 30.51165313 161.00338745 30 166 C28.28924958 170.2318563 26.15277764 172.15432105 22 174 C17.81910862 175.12296669 14.88031624 175.30472485 10.75 173.875 C7.21828601 171.46701319 4.91018735 168.8203747 3 165 C2.49109564 158.89314771 2.9224539 155.87040228 7 151 C8.04556061 150.31837044 8.04556061 150.31837044 9.11224365 149.62297058 C11.18703913 148.16600574 11.18703913 148.16600574 11.48101807 145.85493469 C11.47213562 145.02664658 11.46325317 144.19835846 11.45410156 143.3449707 C11.45364838 141.93384758 11.45364838 141.93384758 11.45318604 140.49421692 C11.43254089 139.48163315 11.41189575 138.46904938 11.390625 137.42578125 C11.38213531 135.86732735 11.38213531 135.86732735 11.37347412 134.27738953 C11.35106327 130.95529319 11.3008569 127.63427096 11.25 124.3125 C11.22994115 122.06186452 11.21168931 119.81121216 11.1953125 117.56054688 C11.15458266 112.03961675 11.07629806 106.52101213 11 101 C-1.87 100.505 -1.87 100.505 -15 100 C-14.98226737 108.01514954 -14.94353534 116.02935621 -14.86790943 124.04413986 C-14.83363015 127.76583654 -14.80852816 131.48712236 -14.80444336 135.20898438 C-14.80016215 138.80146386 -14.7717168 142.3930164 -14.72656822 145.9852066 C-14.71358709 147.35506031 -14.70928781 148.72502493 -14.71384621 150.09493256 C-14.71874655 152.01486522 -14.68981004 153.93479374 -14.65942383 155.85449219 C-14.64943108 157.49330353 -14.64943108 157.49330353 -14.63923645 159.16522217 C-13.79032639 162.9298251 -12.08437193 163.8172851 -9 166 C-6.90137184 169.70757642 -6.01365397 172.23537789 -5.9375 176.5 C-7.30012107 180.98863411 -9.60721571 183.81420255 -13 187 C-16.71236414 188.85618207 -20.94843088 188.44809981 -25 188 C-29.40830916 185.83592096 -32.12843553 183.57493538 -34 179 C-34.58075783 175.03148815 -34.40913488 171.94747025 -32.8125 168.25 C-31 166 -31 166 -28.42219543 164.23773193 C-25.76530795 162.21379117 -25.76530795 162.21379117 -25.39872742 159.20318604 C-25.40983047 158.12841003 -25.42093353 157.05363403 -25.43237305 155.94628906 C-25.4327507 154.72532532 -25.43312836 153.50436157 -25.43351746 152.24639893 C-25.4722271 150.27591583 -25.4722271 150.27591583 -25.51171875 148.265625 C-25.52104888 146.90372008 -25.52816406 145.54179833 -25.53315735 144.17987061 C-25.55221226 140.60212549 -25.60129734 137.02540173 -25.65667725 133.44805908 C-25.70790389 129.79494035 -25.73067851 126.14165593 -25.75585938 122.48828125 C-25.80942028 115.32500216 -25.89734072 108.16277453 -26 101 C-38.87 100.505 -38.87 100.505 -52 100 C-51.88204602 108.48064784 -51.88204602 108.48064784 -51.72973633 116.96069336 C-51.6531311 127.93995218 -53.22895835 135.01843981 -60.8828125 143.05078125 C-64.6848981 146.55122537 -68.09474894 148.71241493 -73.3125 149.5 C-74.199375 149.665 -75.08625 149.83 -76 150 C-77.12516085 151.83284443 -77.12516085 151.83284443 -78 154 C-81.45826418 157.02598116 -83.6250933 158.89423795 -88.25 159.25 C-93.74033597 158.8839776 -96.68492361 157.45350549 -100.375 153.375 C-102.45906301 149.04656144 -102.81326205 145.71861419 -102 141 C-99.78543643 136.10950546 -96.87715078 133.75734486 -92.0859375 131.62890625 C-88.71055571 130.61123496 -86.33861666 130.99211572 -83 132 C-78.30873729 134.95753518 -78.30873729 134.95753518 -77.3671875 138.13671875 C-77.24601562 138.75160156 -77.12484375 139.36648438 -77 140 C-71.21032936 138.33178982 -68.24310386 136.86666924 -64.91015625 131.81640625 C-62.9790061 127.96239415 -62.82993617 124.18671138 -62.68359375 119.921875 C-62.62075195 118.18164062 -62.62075195 118.18164062 -62.55664062 116.40625 C-62.51732422 115.1996875 -62.47800781 113.993125 -62.4375 112.75 C-62.37272461 110.91695312 -62.37272461 110.91695312 -62.30664062 109.046875 C-62.20062645 106.0313608 -62.09856064 103.01576552 -62 100 C-62.65154053 100.01232666 -63.30308105 100.02465332 -63.97436523 100.03735352 C-74.24062855 100.15004472 -83.01705072 98.9158078 -91.03125 92.01953125 C-94.29878778 88.66771175 -96.76280077 85.10153191 -99 81 C-99.3403125 80.38640625 -99.680625 79.7728125 -100.03125 79.140625 C-103.56663361 71.48062718 -103.26717772 61.6158976 -100.5625 53.75 C-96.46265227 45.01804362 -89.93197284 38.79109843 -81.26171875 34.7421875 C-79 34 -79 34 -75 34 C-74.92523438 33.27296875 -74.85046875 32.5459375 -74.7734375 31.796875 C-73.18799387 19.6728943 -68.31682766 8.97032813 -58.75 1.1640625 C-40.98161757 -11.99564574 -18.33478779 -12.80029302 0 0 Z M-59.62890625 15.90625 C-64.81217288 23.2092406 -66.61595203 33.17135418 -66 42 C-66.969375 41.9175 -67.93875 41.835 -68.9375 41.75 C-75.0167329 41.76230614 -80.51280651 44.67447076 -85.3125 48.25 C-90.2459841 53.29821629 -92.70033061 59.17921533 -93.25 66.1875 C-92.77752041 73.39281382 -90.61681003 78.86487297 -85.98828125 84.39453125 C-78.40162814 90.52049279 -71.46092188 90.58070696 -62.03173828 90.53344727 C-60.62807309 90.54051496 -59.22441552 90.54926354 -57.82077026 90.55955505 C-54.02717911 90.58196627 -50.23400681 90.57912857 -46.44037485 90.57023358 C-43.26463805 90.56510519 -40.08897867 90.57243137 -36.91324985 90.57970566 C-29.41621814 90.59667908 -21.91939009 90.59316553 -14.42236328 90.57641602 C-6.70824035 90.55950342 1.00531632 90.5753228 8.7193774 90.6076389 C15.36087136 90.63439963 22.00218976 90.64159319 28.64373219 90.63312382 C32.60228553 90.62821263 36.56049851 90.63031107 40.51900864 90.65091133 C44.24411043 90.66937055 47.96840312 90.66318682 51.69346237 90.63871193 C53.69772889 90.63137873 55.70203917 90.64848068 57.70623779 90.66653442 C65.44076761 90.5859029 71.6267122 89.63092839 78 85 C83.36353917 79.21781068 85.65093209 72.85402798 86 65 C85.52601176 59.58705429 83.51785187 54.17074959 80 50 C73.85612284 45.13746621 69.16024558 42.87559961 61.375 42.4375 C60.66859375 42.39431641 59.9621875 42.35113281 59.234375 42.30664062 C57.48981463 42.20055249 55.74493303 42.09977111 54 42 C53.9175 40.783125 53.835 39.56625 53.75 38.3125 C53.20679211 34.172375 52.24132128 31.81483164 49 29 C45.60628944 28.19785023 42.89076039 27.86964482 39.4375 28.375 C35.83302084 27.82046474 34.72417231 25.52090406 32.52734375 22.75390625 C29.02510776 18.732157 24.33967863 17.44566309 19.15234375 16.91796875 C15.87992212 17.04268899 13.09725652 18.09768308 10.078125 19.30859375 C8 20 8 20 4 20 C3.07859108 18.63494975 2.16815804 17.2611282 1.31640625 15.8515625 C-3.85465639 8.57831712 -12.16193965 2.66291031 -21 1 C-37.46278519 -0.11954281 -48.51400291 2.8988811 -59.62890625 15.90625 Z M80 136 C79.34 136.66 78.68 137.32 78 138 C78.32041397 140.60280568 78.32041397 140.60280568 79 143 C80.65 143.33 82.3 143.66 84 144 C84.66 142.35 85.32 140.7 86 139 C84.68798827 137.43750191 84.68798827 137.43750191 83 136 C82.01 136 81.02 136 80 136 Z M-91.75 142.25 C-93.24915434 143.93420967 -93.24915434 143.93420967 -92.75 146.125 C-92.15045529 147.98085115 -92.15045529 147.98085115 -91 149 C-89.33382885 149.04063832 -87.66611905 149.042721 -86 149 C-85.34 147.35 -84.68 145.7 -84 144 C-85.31201173 142.43750191 -85.31201173 142.43750191 -87 141 C-89.95156348 140.7093809 -89.95156348 140.7093809 -91.75 142.25 Z M13 159 C13.33 160.65 13.66 162.3 14 164 C17.04913228 165.01111093 17.04913228 165.01111093 20 164 C20 162.02 20 160.04 20 158 C16.51418144 156.7979936 16.32007656 156.78661563 13 159 Z M-24 172 C-24.16687448 174.41645782 -24.16687448 174.41645782 -24 177 C-23.34 177.66 -22.68 178.32 -22 179 C-19.39719432 178.67958603 -19.39719432 178.67958603 -17 178 C-16.30840599 176.15274948 -16.30840599 176.15274948 -16 174 C-16.66 173.01 -17.32 172.02 -18 171 C-21.7763932 170.7018576 -21.7763932 170.7018576 -24 172 Z " fill="#6262EA" transform="translate(254,178)"/>
<path d="M0 0 C0 0.66 0 1.32 0 2 C1.45833358 3.62514468 1.45833358 3.62514468 3 5 C-0.15439227 6.00586488 -3.14014503 6.08317118 -6.43261719 6.13842773 C-15.21837711 6.34697022 -21.38761361 8.43014384 -29 13 C-29.74765625 13.33128906 -30.4953125 13.66257813 -31.265625 14.00390625 C-33.35162045 14.94624722 -33.35162045 14.94624722 -34 18 C-34.66 18 -35.32 18 -36 18 C-36 18.66 -36 19.32 -36 20 C-36.66 20 -37.32 20 -38 20 C-38.18755859 20.88751953 -38.18755859 20.88751953 -38.37890625 21.79296875 C-39 24 -39 24 -40.9375 27.3125 C-44.0978668 33.34592753 -44.33914317 40.32186787 -45 47 C-46.09699219 47.30292969 -47.19398438 47.60585937 -48.32421875 47.91796875 C-49.7788935 48.34029368 -51.23330717 48.76351863 -52.6875 49.1875 C-53.40873047 49.38408203 -54.12996094 49.58066406 -54.87304688 49.78320312 C-60.57419881 51.47532585 -63.91579497 53.94112262 -67.328125 58.94921875 C-71.33475304 66.50408942 -72.5416859 73.72693321 -70.43359375 82.3046875 C-69.62543574 84.30626886 -69.62543574 84.30626886 -68 87 C-67.608125 87.86625 -67.21625 88.7325 -66.8125 89.625 C-62.44691441 95.3454225 -55.98223275 97.94955289 -49 99 C-43.52355643 99.35621263 -38.04875668 99.465765 -32.5625 99.5625 C-29.64700309 99.62107239 -26.73167904 99.68509071 -23.81640625 99.75390625 C-22.78067978 99.77778915 -22.78067978 99.77778915 -21.72402954 99.80215454 C-16.76216646 99.93454198 -11.91573945 100.32941999 -7 101 C-7.495 102.98 -7.495 102.98 -8 105 C-15.26 105 -22.52 105 -30 105 C-29.94779297 107.98353516 -29.94779297 107.98353516 -29.89453125 111.02734375 C-29.87364736 112.9834683 -29.85287906 114.93959577 -29.83520508 116.89575195 C-29.81294542 118.89744576 -29.77479854 120.89894275 -29.73632812 122.90039062 C-29.64992167 134.33484525 -30.89324507 141.66612532 -38.8828125 150.05078125 C-42.6848981 153.55122537 -46.09474894 155.71241493 -51.3125 156.5 C-52.199375 156.665 -53.08625 156.83 -54 157 C-55.12516085 158.83284443 -55.12516085 158.83284443 -56 161 C-59.45826418 164.02598116 -61.6250933 165.89423795 -66.25 166.25 C-71.74033597 165.8839776 -74.68492361 164.45350549 -78.375 160.375 C-80.45906301 156.04656144 -80.81326205 152.71861419 -80 148 C-77.78543643 143.10950546 -74.87715078 140.75734486 -70.0859375 138.62890625 C-66.71055571 137.61123496 -64.33861666 137.99211572 -61 139 C-56.30873729 141.95753518 -56.30873729 141.95753518 -55.3671875 145.13671875 C-55.24601562 145.75160156 -55.12484375 146.36648438 -55 147 C-49.21032936 145.33178982 -46.24310386 143.86666924 -42.91015625 138.81640625 C-40.9790061 134.96239415 -40.82993617 131.18671138 -40.68359375 126.921875 C-40.62075195 125.18164062 -40.62075195 125.18164062 -40.55664062 123.40625 C-40.51732422 122.1996875 -40.47800781 120.993125 -40.4375 119.75 C-40.37272461 117.91695312 -40.37272461 117.91695312 -40.30664062 116.046875 C-40.20062645 113.0313608 -40.09856064 110.01576552 -40 107 C-40.65154053 107.01232666 -41.30308105 107.02465332 -41.97436523 107.03735352 C-52.24062855 107.15004472 -61.01705072 105.9158078 -69.03125 99.01953125 C-72.29878778 95.66771175 -74.76280077 92.10153191 -77 88 C-77.3403125 87.38640625 -77.680625 86.7728125 -78.03125 86.140625 C-81.56663361 78.48062718 -81.26717772 68.6158976 -78.5625 60.75 C-74.46265227 52.01804362 -67.93197284 45.79109843 -59.26171875 41.7421875 C-57 41 -57 41 -53 41 C-52.92523438 40.27296875 -52.85046875 39.5459375 -52.7734375 38.796875 C-51.18799387 26.6728943 -46.31682766 15.97032813 -36.75 8.1640625 C-24.71005433 -0.75302226 -14.56301297 -2.19819064 0 0 Z M-69.75 149.25 C-71.24915434 150.93420967 -71.24915434 150.93420967 -70.75 153.125 C-70.15045529 154.98085115 -70.15045529 154.98085115 -69 156 C-67.33382885 156.04063832 -65.66611905 156.042721 -64 156 C-63.34 154.35 -62.68 152.7 -62 151 C-63.31201173 149.43750191 -63.31201173 149.43750191 -65 148 C-67.95156348 147.7093809 -67.95156348 147.7093809 -69.75 149.25 Z " fill="#7D4AF3" transform="translate(232,171)"/>
<path d="M0 0 C1.65 0.33 3.3 0.66 5 1 C5 1.66 5 2.32 5 3 C5.5775 3.185625 6.155 3.37125 6.75 3.5625 C9 5 9 5 10.5 8.5 C11.42115021 10.4750369 11.42115021 10.4750369 13 12 C15.56307784 12.65951616 15.56307784 12.65951616 18.5 12.875 C27.24157571 13.86884663 33.31959226 18.84990212 39.05078125 25.3125 C42.55619874 30.13140328 43.78433172 34.0691222 44 40 C44.99 40.33 45.98 40.66 47 41 C47.50862393 50.15523078 45.62779962 57.9520262 39.71875 65.12109375 C30.6130505 75.07527888 21.3850818 78.35418971 8 79 C7.9121046 82.35399849 7.85931121 85.7076964 7.8125 89.0625 C7.78736328 90.00544922 7.76222656 90.94839844 7.73632812 91.91992188 C7.67533684 97.75475449 8.08755982 101.89325558 11 107 C12.65515329 108.80754393 12.65515329 108.80754393 14.5625 109.9375 C15.16191406 110.33839844 15.76132812 110.73929687 16.37890625 111.15234375 C17.99049941 112.15445618 17.99049941 112.15445618 20 112 C20.7425 111.05125 21.485 110.1025 22.25 109.125 C24.83313317 105.93007214 26.86415305 104.74445245 31 104 C36.4416024 104.19434294 39.78168117 105.56648468 44 109 C46.76604349 113.42755767 46.63162092 117.93903745 46 123 C44.08934952 127.20343106 42.65958115 128.63356603 38.625 130.875 C35.01188795 131.99631064 32.72931097 132.55542929 29 132 C25.62537865 130.08109766 22.47626699 128.02654855 20 125 C20 124.34 20 123.68 20 123 C18.72125 122.855625 17.4425 122.71125 16.125 122.5625 C8.80919976 120.89824213 3.56024625 115.90774428 -0.484375 109.734375 C-4.64531575 100.38733418 -3.84567496 89.05374439 -4 79 C-5.07483643 79.00785522 -5.07483643 79.00785522 -6.17138672 79.01586914 C-9.40591562 79.03660667 -12.64043056 79.04964984 -15.875 79.0625 C-17.56689453 79.07506836 -17.56689453 79.07506836 -19.29296875 79.08789062 C-20.36933594 79.09111328 -21.44570313 79.09433594 -22.5546875 79.09765625 C-23.54968262 79.10289307 -24.54467773 79.10812988 -25.56982422 79.11352539 C-28 79 -28 79 -30 78 C-30.625 75.9375 -30.625 75.9375 -31 74 C-29.68 74 -28.36 74 -27 74 C-26.67 73.34 -26.34 72.68 -26 72 C-25.34 72 -24.68 72 -24 72 C-23.67 72.66 -23.34 73.32 -23 74 C-22.34 74 -21.68 74 -21 74 C-21 73.01 -21 72.02 -21 71 C-41.46 71 -61.92 71 -83 71 C-82.67 70.01 -82.34 69.02 -82 68 C-80.75687042 67.99857498 -79.51374084 67.99714996 -78.23294067 67.99568176 C-66.49239355 67.97898042 -54.75219163 67.93611065 -43.01182747 67.86790943 C-36.97658486 67.83368315 -30.94159424 67.80853616 -24.90625 67.80444336 C-19.07696988 67.80015118 -13.24825777 67.77161123 -7.41915512 67.72656822 C-5.20016671 67.71362276 -2.98111023 67.70927501 -0.76208878 67.71384621 C2.35697802 67.71877302 5.47439792 67.69256614 8.59326172 67.65942383 C9.50173355 67.66804947 10.41020538 67.67667511 11.34620667 67.68556213 C18.07332783 67.56647513 23.39633771 65.77508234 29 62 C33.9312191 56.67779504 35.60438819 50.14183431 36 43 C35.51439312 38.06020587 33.68102101 34.14339611 31 30 C31 29.34 31 28.68 31 28 C29.68 27.34 28.36 26.68 27 26 C27.495 24.515 27.495 24.515 28 23 C20.65062002 20.13498747 13.85879863 19.35224909 6 19 C5.97421875 18.39671875 5.9484375 17.7934375 5.921875 17.171875 C5.5890327 11.97639492 5.5890327 11.97639492 3.125 7.5 C0.98068723 5.8331503 0.98068723 5.8331503 -2 5 C-1.34 3.35 -0.68 1.7 0 0 Z M31 114 C30.34 114.66 29.68 115.32 29 116 C29.32041397 118.60280568 29.32041397 118.60280568 30 121 C31.65 121.33 33.3 121.66 35 122 C35.66 120.35 36.32 118.7 37 117 C35.68798827 115.43750191 35.68798827 115.43750191 34 114 C33.01 114 32.02 114 31 114 Z " fill="#318CDB" transform="translate(303,200)"/>
<path d="M0 0 C0 0.66 0 1.32 0 2 C1.45833358 3.62514468 1.45833358 3.62514468 3 5 C-0.15439227 6.00586488 -3.14014503 6.08317118 -6.43261719 6.13842773 C-15.21837711 6.34697022 -21.38761361 8.43014384 -29 13 C-29.74765625 13.33128906 -30.4953125 13.66257813 -31.265625 14.00390625 C-33.35162045 14.94624722 -33.35162045 14.94624722 -34 18 C-34.66 18 -35.32 18 -36 18 C-36 18.66 -36 19.32 -36 20 C-36.66 20 -37.32 20 -38 20 C-38.18755859 20.88751953 -38.18755859 20.88751953 -38.37890625 21.79296875 C-39 24 -39 24 -40.9375 27.3125 C-44.0978668 33.34592753 -44.33914317 40.32186787 -45 47 C-46.09699219 47.30292969 -47.19398438 47.60585937 -48.32421875 47.91796875 C-49.7788935 48.34029368 -51.23330717 48.76351863 -52.6875 49.1875 C-53.40873047 49.38408203 -54.12996094 49.58066406 -54.87304688 49.78320312 C-60.57419881 51.47532585 -63.91579497 53.94112262 -67.328125 58.94921875 C-71.33475304 66.50408942 -72.5416859 73.72693321 -70.43359375 82.3046875 C-69.62543574 84.30626886 -69.62543574 84.30626886 -68 87 C-67.608125 87.86625 -67.21625 88.7325 -66.8125 89.625 C-62.63961345 95.09292031 -56.53288006 97.50288165 -50 99 C-50 99.66 -50 100.32 -50 101 C-48.35 101 -46.7 101 -45 101 C-45 101.66 -45 102.32 -45 103 C-43.68 103.33 -42.36 103.66 -41 104 C-58.57966409 104.76804358 -58.57966409 104.76804358 -65 100 C-66.546875 98.948125 -66.546875 98.948125 -68.125 97.875 C-76.06796369 90.77841769 -78.28906011 81.63543902 -79.375 71.5 C-78.46719973 63.02719746 -74.39746612 55.10203428 -68.125 49.375 C-62.77718918 45.31066378 -58.50520381 42.56124891 -52 41 C-51.731875 39.845 -51.46375 38.69 -51.1875 37.5 C-49.20553821 29.6684982 -46.07928181 22.965414 -42 16 C-41.34 16 -40.68 16 -40 16 C-39.505 14.515 -39.505 14.515 -39 13 C-38.34 13 -37.68 13 -37 13 C-36.67 12.01 -36.34 11.02 -36 10 C-34 9.33333333 -32 8.66666667 -30 8 C-29.67 7.01 -29.34 6.02 -29 5 C-19.97768451 -0.1217589 -10.0978274 -1.62868184 0 0 Z " fill="#8E38F2" transform="translate(232,171)"/>
<path d="M0 0 C13.07764529 -0.56136156 24.08512806 1.37986495 35 9 C36.21537901 10.4351816 37.40371479 11.89374742 38.5625 13.375 C40.54183823 15.54615039 41.93840483 16.85732858 44.90380859 17.25585938 C47.99053089 17.31419113 51.04803021 17.16411036 54.12939453 16.99243164 C61.53796347 16.68495533 66.89848221 18.71329263 73 23 C73.75023437 23.81210938 73.75023437 23.81210938 74.515625 24.640625 C76.52394659 26.47982477 78.13857782 26.57194075 80.8125 26.9375 C87.77359802 28.17367752 91.9463257 31.20903672 96 37 C96.25007813 37.68191406 96.50015625 38.36382812 96.7578125 39.06640625 C97.87950606 41.25210858 97.87950606 41.25210858 100.5390625 41.87109375 C102.06660156 42.15146484 102.06660156 42.15146484 103.625 42.4375 C112.46926769 44.41345945 119.43697701 48.74916663 125 56 C127.79530032 60.97648164 130 65.23797081 130 71 C129.34 71 128.68 71 128 71 C127.82984375 70.41992188 127.6596875 69.83984375 127.484375 69.2421875 C125.91053764 64.16907347 124.05721536 60.32226999 121 56 C121 55.34 121 54.68 121 54 C120.4121875 53.731875 119.824375 53.46375 119.21875 53.1875 C116.99224997 51.99585209 115.39194974 50.65960504 113.5 49 C109.94772281 46.21272633 107.34392135 45.60334256 102.875 45.1875 C97.55344903 44.55669825 97.55344903 44.55669825 95.00390625 41.9921875 C93.4375 39.5625 93.4375 39.5625 92.18359375 37.19140625 C91.01694314 35.03136997 89.81220013 33.6336065 88 32 C85.00667261 32.9977758 84.05233685 33.7522025 82 36 C82.5775 36.0825 83.155 36.165 83.75 36.25 C86.8864184 37.2954728 88.08956046 38.27080066 90 41 C90.33429898 44.02958455 90.2334377 46.96530984 90 50 C91.28583984 49.94779297 91.28583984 49.94779297 92.59765625 49.89453125 C99.24016504 49.73726779 104.15270423 49.75150235 110 53 C110.66 53.33 111.32 53.66 112 54 C112 54.66 112 55.32 112 56 C106.25 54.125 106.25 54.125 104 53 C101.45384991 52.76827173 98.92603775 52.58105471 96.375 52.4375 C95.31539062 52.37272461 95.31539062 52.37272461 94.234375 52.30664062 C92.48981463 52.20055249 90.74493303 52.09977111 89 52 C88.86207031 51.25105469 88.72414063 50.50210938 88.58203125 49.73046875 C87.68371336 45.51621236 86.65069418 41.2655322 83.125 38.5625 C80.953501 37.89071255 80.953501 37.89071255 78.4375 38 C76 38 76 38 73 36 C73 35.34 73 34.68 73 34 C72.34 34 71.68 34 71 34 C69.65576661 32.34211215 68.32381517 30.67423683 67 29 C62.35717707 24.7848055 57.04188909 24.93311562 51 25 C49.17633944 25.36473211 47.36139103 25.77802709 45.5625 26.25 C43.1015625 26.8203125 43.1015625 26.8203125 41 27 C38.4375 25.125 38.4375 25.125 36 22 C28.73644225 14.73644225 21.75161555 11.00049709 12 8 C12.99 7.34 13.98 6.68 15 6 C13.68 5.34 12.36 4.68 11 4 C11.66 4 12.32 4 13 4 C13 3.34 13 2.68 13 2 C11.783125 2.020625 10.56625 2.04125 9.3125 2.0625 C6.08022678 2.06824116 3.15065259 1.78766315 0 1 C0 0.67 0 0.34 0 0 Z " fill="#3386D7" transform="translate(219,169)"/>
<path d="M0 0 C0.99 0 1.98 0 3 0 C3.16831707 7.04736512 3.32819048 14.09488542 3.48217773 21.14257812 C3.53556744 23.54040877 3.59089442 25.93819709 3.64819336 28.3359375 C3.73018845 31.78115717 3.80522965 35.22646865 3.87890625 38.671875 C3.90594131 39.74491882 3.93297638 40.81796265 3.96083069 41.92352295 C3.99097511 43.42462616 3.99097511 43.42462616 4.02172852 44.95605469 C4.04171402 45.83541687 4.06169952 46.71477905 4.08229065 47.62078857 C4.00341327 49.90131442 3.64562907 51.81862369 3 54 C3.66 53.34 4.32 52.68 5 52 C5.99 52 6.98 52 8 52 C7.82799072 51.22962402 7.65598145 50.45924805 7.47875977 49.66552734 C6.84828968 44.83846063 7.09651312 40.20349462 7.33984375 35.3515625 C7.38565079 34.33903412 7.43145782 33.32650574 7.47865295 32.28329468 C7.62567415 29.06355681 7.78146313 25.84431228 7.9375 22.625 C8.03899106 20.43622472 8.13990895 18.24742277 8.24023438 16.05859375 C8.48685043 10.70540254 8.74065782 5.35258896 9 0 C9.66 0.33 10.32 0.66 11 1 C11.00142502 1.57771652 11.00285004 2.15543304 11.00431824 2.75065613 C11.0240213 8.76955502 11.07830753 14.78744058 11.15258789 20.8059082 C11.17576945 23.05127693 11.19016395 25.29675442 11.19555664 27.54223633 C11.2048447 30.77233673 11.24583423 34.00072609 11.29296875 37.23046875 C11.2890361 38.23272995 11.28510345 39.23499115 11.28105164 40.2676239 C11.37778557 46.10566493 11.37778557 46.10566493 14.41918945 50.9855957 C15.27085693 51.65034912 16.12252441 52.31510254 17 53 C19.83880927 57.25821391 19.51165313 61.00338745 19 66 C17.28924958 70.2318563 15.15277764 72.15432105 11 74 C6.81910862 75.12296669 3.88031624 75.30472485 -0.25 73.875 C-3.78171399 71.46701319 -6.08981265 68.8203747 -8 65 C-8.50890436 58.89314771 -8.0775461 55.87040228 -4 51 C-3.30295959 50.5474736 -2.60591919 50.0949472 -1.88775635 49.62870789 C0.19266933 48.16243048 0.19266933 48.16243048 0.48101807 45.81697083 C0.47213562 44.97091782 0.46325317 44.12486481 0.45410156 43.25317383 C0.45379944 42.29240433 0.45349731 41.33163483 0.45318604 40.3417511 C0.43254089 39.30729355 0.41189575 38.272836 0.390625 37.20703125 C0.38496521 36.14586594 0.37930542 35.08470062 0.37347412 33.99137878 C0.35106143 30.59796265 0.30085449 27.20559765 0.25 23.8125 C0.2299414 21.51368711 0.21168952 19.21485769 0.1953125 16.91601562 C0.1511807 11.27698436 0.08421972 5.63856727 0 0 Z M2 59 C2.33 60.65 2.66 62.3 3 64 C6.04913228 65.01111093 6.04913228 65.01111093 9 64 C9 62.02 9 60.04 9 58 C5.51418144 56.7979936 5.32007656 56.78661563 2 59 Z " fill="#3F6CCB" transform="translate(265,278)"/>
<path d="M0 0 C13.92202318 9.84404636 13.92202318 9.84404636 17 16 C17.57105469 15.77183594 18.14210938 15.54367188 18.73046875 15.30859375 C25.91832871 12.76027456 32.52142118 12.31884809 40 14 C43.48245364 16.52648598 45.3828454 19.03062053 47 23 C47.66 23 48.32 23 49 23 C49 23.66 49 24.32 49 25 C49.99 25.33 50.98 25.66 52 26 C50.02 26.495 50.02 26.495 48 27 C47.63648438 26.52949219 47.27296875 26.05898437 46.8984375 25.57421875 C42.57025514 20.21393137 39.0319458 17.69585641 32.1875 16.125 C28.07253749 15.70639537 24.87336488 16.78640222 21.078125 18.30859375 C19 19 19 19 15 19 C13.54296875 17.4609375 13.54296875 17.4609375 12.1875 15.375 C6.82173041 7.76340704 -0.63148472 1.73612346 -10 0 C-22.01422808 -0.81702108 -32.23069021 -0.29484298 -41.875 7.75 C-51.23208359 16.85644743 -53.52136411 27.28373132 -55 40 C-55.94359375 40.14695312 -55.94359375 40.14695312 -56.90625 40.296875 C-64.81957287 41.67932297 -71.20343293 43.35428702 -76.375 49.8125 C-80.26701824 55.52361373 -81.59366643 61.11346941 -81 68 C-79.52638045 74.57372472 -77.14761932 80.22449524 -71.32855225 84.11849976 C-65.80777481 87.10713257 -61.16488798 87.57440711 -54.953125 87.5390625 C-53.55268951 87.55675186 -53.55268951 87.55675186 -52.1239624 87.57479858 C-49.16580211 87.60986372 -46.20835062 87.61921161 -43.25 87.625 C-40.27757952 87.64136106 -37.30547195 87.66339873 -34.33319092 87.69662476 C-32.49021484 87.7162071 -30.64709508 87.72559479 -28.80401611 87.72354126 C-27.96924744 87.73050018 -27.13447876 87.73745911 -26.27441406 87.74462891 C-25.54353577 87.74588776 -24.81265747 87.74714661 -24.05963135 87.7484436 C-21.69377295 88.03740153 -20.06036302 88.82997419 -18 90 C-22.40323903 91.08064246 -26.7225688 91.17765408 -31.23046875 91.203125 C-32.02093094 91.20882507 -32.81139313 91.21452515 -33.62580872 91.22039795 C-35.29585444 91.22981888 -36.9659185 91.23637034 -38.63598633 91.24023438 C-41.16196093 91.24990225 -43.68710793 91.28093696 -46.21289062 91.3125 C-56.72085804 91.38185158 -66.79238898 91.28918235 -75.46484375 84.5234375 C-81.43933496 78.59455309 -83.14221103 72.45972076 -83.3125 64.25 C-83.26792693 58.11801934 -82.51044357 54.00969551 -79 49 C-78.4225 48.0925 -77.845 47.185 -77.25 46.25 C-71.35033839 40.35033839 -64.01992482 39.12043067 -56 38 C-56.05220703 37.07380859 -56.05220703 37.07380859 -56.10546875 36.12890625 C-56.41349904 26.49195863 -53.4345336 19.41032234 -49 11 C-48.34 11 -47.68 11 -47 11 C-47 10.34 -47 9.68 -47 9 C-34.83010771 -2.73797545 -15.95746712 -8.62785087 0 0 Z " fill="#6241B4" transform="translate(243,180)"/>
<path d="M0 0 C1.65 0.33 3.3 0.66 5 1 C5 1.66 5 2.32 5 3 C5.86625 3.2784375 5.86625 3.2784375 6.75 3.5625 C9 5 9 5 10.5 8.5 C11.42115021 10.4750369 11.42115021 10.4750369 13 12 C15.56307784 12.65951616 15.56307784 12.65951616 18.5 12.875 C27.24157571 13.86884663 33.31959226 18.84990212 39.05078125 25.3125 C42.55619874 30.13140328 43.78433172 34.0691222 44 40 C44.99 40.33 45.98 40.66 47 41 C46.01 41.495 46.01 41.495 45 42 C45 44.97 45 47.94 45 51 C43.68 51 42.36 51 41 51 C41.061875 51.78375 41.12375 52.5675 41.1875 53.375 C41.0946875 54.674375 41.0946875 54.674375 41 56 C40.01 56.66 39.02 57.32 38 58 C37.07155611 53.66726186 37.07155611 50.33273814 38 46 C37.01 45.505 37.01 45.505 36 45 C35.47265625 42.890625 35.47265625 42.890625 35.0625 40.25 C34.34301333 36.22087463 33.34353057 33.40877173 31 30 C31 29.34 31 28.68 31 28 C29.68 27.34 28.36 26.68 27 26 C27.33 25.01 27.66 24.02 28 23 C20.65062002 20.13498747 13.85879863 19.35224909 6 19 C5.97421875 18.39671875 5.9484375 17.7934375 5.921875 17.171875 C5.5890327 11.97639492 5.5890327 11.97639492 3.125 7.5 C0.98068723 5.8331503 0.98068723 5.8331503 -2 5 C-1.34 3.35 -0.68 1.7 0 0 Z " fill="#1AA0D4" transform="translate(303,200)"/>
<path d="M0 0 C9.24 0 18.48 0 28 0 C29.06408795 3.19226384 29.14597987 5.52078607 29.17700195 8.87670898 C29.18983719 10.08483749 29.20267242 11.292966 29.21589661 12.53770447 C29.22328354 13.84397293 29.23067047 15.15024139 29.23828125 16.49609375 C29.24235678 17.16133623 29.2464323 17.82657871 29.25063133 18.51198006 C29.27146467 22.03085136 29.28578004 25.54968394 29.29516602 29.06860352 C29.30624523 32.70156896 29.34066913 36.3339244 29.38033772 39.96667385 C29.40647947 42.76252888 29.41485543 45.55823768 29.41844749 48.35420418 C29.42568276 50.34400778 29.4521273 52.3337115 29.47883606 54.323349 C29.47591049 55.53462967 29.47298492 56.74591034 29.4699707 57.99389648 C29.47877007 59.59248756 29.47877007 59.59248756 29.48774719 61.22337341 C28.87974788 64.6845662 27.69922125 65.82694795 25 68 C24.01 68.495 24.01 68.495 23 69 C20.6096994 73.38221777 20.69084105 77.13074657 21 82 C21.65682309 84.40686815 21.65682309 84.40686815 23 86 C26.00778521 87.00259507 28.53820647 87.30314642 31.6875 87.5625 C33.17830078 87.68818359 33.17830078 87.68818359 34.69921875 87.81640625 C35.45847656 87.87699219 36.21773437 87.93757813 37 88 C37 87.34 37 86.68 37 86 C38.2065625 84.9171875 38.2065625 84.9171875 39.4375 83.8125 C42.53818604 80.409308 42.83779072 78.54185997 43 74 C42.64025105 71.18762459 42.64025105 71.18762459 42 69 C40.68 68.67 39.36 68.34 38 68 C38 67.34 38 66.68 38 66 C36.35 66 34.7 66 33 66 C33.33 65.34 33.66 64.68 34 64 C34.11504179 62.04011796 34.16690929 60.07640733 34.18945312 58.11328125 C34.21452942 56.26126099 34.21452942 56.26126099 34.2401123 54.37182617 C34.24679428 53.71040619 34.25347626 53.04898621 34.26036072 52.36752319 C34.28137679 50.30002679 34.30839984 48.23268719 34.33703613 46.1652832 C34.39674471 41.77691553 34.44890443 37.38847531 34.5 33 C34.55919776 27.91564739 34.62145621 22.83137247 34.69187927 17.74716187 C34.71848876 15.7075245 34.73928163 13.66787942 34.7598877 11.62817383 C34.78496399 9.77615356 34.78496399 9.77615356 34.81054688 7.88671875 C34.82307495 6.79576904 34.83560303 5.70481934 34.84851074 4.58081055 C35 2 35 2 36 0 C45.24 0 54.48 0 64 0 C63.67 0.66 63.34 1.32 63 2 C54.42 2 45.84 2 37 2 C37.01773263 10.01514954 37.05646466 18.02935621 37.13209057 26.04413986 C37.16636985 29.76583654 37.19147184 33.48712236 37.19555664 37.20898438 C37.19983785 40.80146386 37.2282832 44.3930164 37.27343178 47.9852066 C37.28641291 49.35506031 37.29071219 50.72502493 37.28615379 52.09493256 C37.28125345 54.01486522 37.31018996 55.93479374 37.34057617 57.85449219 C37.34723801 58.94703308 37.35389984 60.03957397 37.36076355 61.16522217 C38.20967361 64.9298251 39.91562807 65.8172851 43 68 C45.09862816 71.70757642 45.98634603 74.23537789 46.0625 78.5 C44.69987893 82.98863411 42.39278429 85.81420255 39 89 C35.28763586 90.85618207 31.05156912 90.44809981 27 90 C22.59169084 87.83592096 19.87156447 85.57493538 18 81 C17.41924217 77.03148815 17.59086512 73.94747025 19.1875 70.25 C21 68 21 68 23.57780457 66.23773193 C26.23469205 64.21379117 26.23469205 64.21379117 26.60127258 61.20318604 C26.59016953 60.12841003 26.57906647 59.05363403 26.56762695 57.94628906 C26.5672493 56.72532532 26.56687164 55.50436157 26.56648254 54.24639893 C26.54067612 52.93274353 26.51486969 51.61908813 26.48828125 50.265625 C26.47895112 48.90372008 26.47183594 47.54179833 26.46684265 46.17987061 C26.44778774 42.60212549 26.39870266 39.02540173 26.34332275 35.44805908 C26.29209611 31.79494035 26.26932149 28.14165593 26.24414062 24.48828125 C26.19057972 17.32500216 26.10265928 10.16277453 26 3 C13.13 2.505 13.13 2.505 0 2 C0 1.34 0 0.68 0 0 Z " fill="#5250B5" transform="translate(202,276)"/>
<path d="M0 0 C0 0.33 0 0.66 0 1 C-0.91523438 1.19335938 -1.83046875 1.38671875 -2.7734375 1.5859375 C-3.96195312 1.84632813 -5.15046875 2.10671875 -6.375 2.375 C-7.55835938 2.63023437 -8.74171875 2.88546875 -9.9609375 3.1484375 C-13.08196967 3.75523965 -13.08196967 3.75523965 -15 6 C-15.78375 6.12375 -16.5675 6.2475 -17.375 6.375 C-20.63101636 7.15024199 -21.74701609 8.59681716 -24 11 C-24.99 11.33 -25.98 11.66 -27 12 C-28.33827304 13.66270287 -29.67189785 15.32916181 -31 17 C-31.66 17 -32.32 17 -33 17 C-33.268125 17.721875 -33.53625 18.44375 -33.8125 19.1875 C-35 22 -35 22 -36.4375 24.25 C-39.2027831 29.11689826 -40.71275726 34.38099546 -41.6875 39.875 C-43 43 -43 43 -46.5625 44.5625 C-47.27019531 44.77261719 -47.97789062 44.98273438 -48.70703125 45.19921875 C-56.49758976 47.91994191 -61.54085036 53.31127553 -66 60 C-70.13357087 69.78404849 -69.3082644 78.01983835 -66 88 C-64.81865388 90.20602626 -63.52374849 92.00336405 -62 94 C-62 94.66 -62 95.32 -62 96 C-61.01 96.33 -60.02 96.66 -59 97 C-59 97.66 -59 98.32 -59 99 C-51.15003625 103.08198115 -44.4804785 104.98725842 -35.6875 105.5625 C-34.50647705 105.63976318 -33.3254541 105.71702637 -32.10864258 105.79663086 C-30.5698645 105.89729858 -30.5698645 105.89729858 -29 106 C-28.912158 110.47904099 -28.85932553 114.95785724 -28.8125 119.4375 C-28.78736328 120.69755859 -28.76222656 121.95761719 -28.73632812 123.25585938 C-28.67928889 130.53786796 -29.2035605 136.2547824 -32 143 C-32.66 143 -33.32 143 -34 143 C-34 143.66 -34 144.32 -34 145 C-36.38717306 148.18289742 -39.24044738 149.00256767 -43 150 C-44.32 150 -45.64 150 -47 150 C-47.495 148.02 -47.495 148.02 -48 146 C-48.66 146 -49.32 146 -50 146 C-50.41894531 145.50886719 -50.83789062 145.01773438 -51.26953125 144.51171875 C-53.72942726 142.36278025 -55.47990049 142.69929061 -58.6875 142.8125 C-59.68136719 142.83957031 -60.67523438 142.86664063 -61.69921875 142.89453125 C-62.45847656 142.92933594 -63.21773437 142.96414063 -64 143 C-64 143.66 -64 144.32 -64 145 C-64.65355469 145.4228125 -65.30710938 145.845625 -65.98046875 146.28125 C-68.26201687 147.84777923 -68.26201687 147.84777923 -68.42578125 150.59375 C-68.38839844 151.5528125 -68.35101563 152.511875 -68.3125 153.5 C-68.28800781 154.4590625 -68.26351562 155.418125 -68.23828125 156.40625 C-68.0890629 159.11300139 -68.0890629 159.11300139 -67 162 C-64.99983534 163.20882096 -64.99983534 163.20882096 -63 164 C-64.32 164 -65.64 164 -67 164 C-70.05121536 160.6945167 -71.29034731 157.92516923 -71.5 153.5 C-71.25739808 148.98912059 -70.13316518 146.36815257 -67 143 C-63.13061271 140.2301566 -60.10267084 139 -55.3125 139 C-51.65801753 140.10323999 -49.65409877 141.2678395 -47 144 C-46.3671875 146.13671875 -46.3671875 146.13671875 -46 148 C-40.21032936 146.33178982 -37.24310386 144.86666924 -33.91015625 139.81640625 C-31.9790061 135.96239415 -31.82993617 132.18671138 -31.68359375 127.921875 C-31.62075195 126.18164062 -31.62075195 126.18164062 -31.55664062 124.40625 C-31.51732422 123.1996875 -31.47800781 121.993125 -31.4375 120.75 C-31.37272461 118.91695312 -31.37272461 118.91695312 -31.30664062 117.046875 C-31.20062645 114.0313608 -31.09856064 111.01576552 -31 108 C-31.65154053 108.01232666 -32.30308105 108.02465332 -32.97436523 108.03735352 C-43.24062855 108.15004472 -52.01705072 106.9158078 -60.03125 100.01953125 C-63.29878778 96.66771175 -65.76280077 93.10153191 -68 89 C-68.3403125 88.38640625 -68.680625 87.7728125 -69.03125 87.140625 C-72.56663361 79.48062718 -72.26717772 69.6158976 -69.5625 61.75 C-65.46265227 53.01804362 -58.93197284 46.79109843 -50.26171875 42.7421875 C-48 42 -48 42 -44 42 C-43.92523438 41.27296875 -43.85046875 40.5459375 -43.7734375 39.796875 C-42.18799387 27.6728943 -37.31682766 16.97032813 -27.75 9.1640625 C-18.93544883 2.63578554 -11.05692367 -0.8469133 0 0 Z " fill="#683DBF" transform="translate(223,170)"/>
<path d="M0 0 C0.66 0 1.32 0 2 0 C2.56836658 8.71495417 0.30142089 16.34800039 -5.28125 23.12109375 C-14.79041332 33.5163382 -22.87604391 35.71600399 -37 37 C-37 45.25 -37 53.5 -37 62 C-37.66 62 -38.32 62 -39 62 C-40.07222792 56.74179427 -40.18341331 51.65380543 -40.1875 46.3125 C-40.19974609 45.45849609 -40.21199219 44.60449219 -40.22460938 43.72460938 C-40.22654297 42.90412109 -40.22847656 42.08363281 -40.23046875 41.23828125 C-40.23457764 40.49618408 -40.23868652 39.75408691 -40.24291992 38.98950195 C-40 37 -40 37 -38 34 C-35.3125 33.62890625 -35.3125 33.62890625 -32 33.5625 C-26.35282765 33.27418709 -22.04312309 32.19331848 -16.92578125 29.83984375 C-15 29 -15 29 -13 29 C-12.505 27.515 -12.505 27.515 -12 26 C-11.34 26 -10.68 26 -10 26 C-10 25.34 -10 24.68 -10 24 C-9.34 24 -8.68 24 -8 24 C-7.34 21.69 -6.68 19.38 -6 17 C-7.65 16.67 -9.3 16.34 -11 16 C-11.24469528 16.74753036 -11.48939056 17.49506073 -11.74150085 18.26524353 C-13.88176639 22.91610487 -17.29630547 25.29803937 -21.95108414 27.35097122 C-30.06149554 29.92008131 -39.42719793 28.95904114 -47.82421875 28.90234375 C-50.14021707 28.91173779 -52.45620478 28.92420108 -54.77217102 28.93959045 C-60.83694343 28.97171408 -66.90095695 28.96241057 -72.96575928 28.94421387 C-79.16670932 28.93302761 -85.36746802 28.9613869 -91.56835938 28.98632812 C-103.71237486 29.02939097 -115.85595663 29.02865007 -128 29 C-127.505 27.515 -127.505 27.515 -127 26 C-125.75687042 25.99857498 -124.51374084 25.99714996 -123.23294067 25.99568176 C-111.49239355 25.97898042 -99.75219163 25.93611065 -88.01182747 25.86790943 C-81.97658486 25.83368315 -75.94159424 25.80853616 -69.90625 25.80444336 C-64.07696988 25.80015118 -58.24825777 25.77161123 -52.41915512 25.72656822 C-50.20016671 25.71362276 -47.98111023 25.70927501 -45.76208878 25.71384621 C-42.64302198 25.71877302 -39.52560208 25.69256614 -36.40673828 25.65942383 C-35.49826645 25.66804947 -34.58979462 25.67667511 -33.65379333 25.68556213 C-26.94152072 25.56673799 -21.57465644 23.80381303 -16 20 C-11.80903398 15.24151059 -10.20588937 10.13907314 -9 4 C-8.34 4 -7.68 4 -7 4 C-7 7.3 -7 10.6 -7 14 C-6.34 14 -5.68 14 -5 14 C-5 12.35 -5 10.7 -5 9 C-3.68 9 -2.36 9 -1 9 C-0.67 6.03 -0.34 3.06 0 0 Z " fill="#3B6CB3" transform="translate(348,242)"/>
<path d="M0 0 C0 0.66 0 1.32 0 2 C1.45833358 3.62514468 1.45833358 3.62514468 3 5 C-0.15439227 6.00586488 -3.14014503 6.08317118 -6.43261719 6.13842773 C-15.21837711 6.34697022 -21.38761361 8.43014384 -29 13 C-29.74765625 13.33128906 -30.4953125 13.66257813 -31.265625 14.00390625 C-33.35162045 14.94624722 -33.35162045 14.94624722 -34 18 C-34.66 18 -35.32 18 -36 18 C-36 18.66 -36 19.32 -36 20 C-36.66 20 -37.32 20 -38 20 C-38.12503906 20.59167969 -38.25007812 21.18335938 -38.37890625 21.79296875 C-39 24 -39 24 -40.9375 27.3125 C-44.0978668 33.34592753 -44.33914317 40.32186787 -45 47 C-47.97 47.495 -47.97 47.495 -51 48 C-50.979375 47.21625 -50.95875 46.4325 -50.9375 45.625 C-50.81315937 43.01885039 -50.81315937 43.01885039 -52 41 C-50.10604177 31.84586854 -46.7140077 24.04921473 -42 16 C-41.34 16 -40.68 16 -40 16 C-39.67 15.01 -39.34 14.02 -39 13 C-38.34 13 -37.68 13 -37 13 C-36.67 12.01 -36.34 11.02 -36 10 C-34 9.33333333 -32 8.66666667 -30 8 C-29.67 7.01 -29.34 6.02 -29 5 C-19.97768451 -0.1217589 -10.0978274 -1.62868184 0 0 Z " fill="#8345F4" transform="translate(232,171)"/>
<path d="M0 0 C2.2109375 0.83984375 2.2109375 0.83984375 4 2 C5 5 5 5 4 8 C3.24074219 7.84402344 2.48148437 7.68804687 1.69921875 7.52734375 C0.70535156 7.33269531 -0.28851563 7.13804687 -1.3125 6.9375 C-2.29863281 6.74027344 -3.28476562 6.54304688 -4.30078125 6.33984375 C-7.09276461 5.79077784 -7.09276461 5.79077784 -10 7 C-10 9.97 -10 12.94 -10 16 C-7.8653125 16.0309375 -7.8653125 16.0309375 -5.6875 16.0625 C-4.88699219 16.07410156 -4.08648437 16.08570313 -3.26171875 16.09765625 C-0.83138666 16.09657855 -0.83138666 16.09657855 2 15 C2 13.35 2 11.7 2 10 C2.66 9.67 3.32 9.34 4 9 C4 9.66 4 10.32 4 11 C4.99 11.33 5.98 11.66 7 12 C6.74337755 13.44010481 6.46909179 14.8770687 6.1875 16.3125 C6.03667969 17.11300781 5.88585937 17.91351563 5.73046875 18.73828125 C4.89121497 21.33682637 4.19613876 22.39016073 2 24 C-2.85235067 25.39473763 -6.80875228 25.57356372 -11.375 23.375 C-13.9194814 21.07285017 -15.96751936 18.75836659 -18 16 C-19.9082026 13.78976417 -19.9082026 13.78976417 -22.875 13.0625 C-25.82443346 12.05969262 -27.64685679 10.99112118 -30 9 C-29.67 7.68 -29.34 6.36 -29 5 C-29.99 4.67 -30.98 4.34 -32 4 C-31.67 3.01 -31.34 2.02 -31 1 C-27.95871087 2.10592332 -25.21327296 3.41737594 -22.4375 5.0625 C-19.77921569 6.5608057 -17.9498774 7.52801962 -15 8 C-15 7.01 -15 6.02 -15 5 C-10.48103418 0.0175505 -6.65371989 -1.14927889 0 0 Z M-30 2 C-29 4 -29 4 -29 4 Z " fill="#2799D7" transform="translate(340,307)"/>
<path d="M0 0 C8.25 0 16.5 0 25 0 C25 0.99 25 1.98 25 3 C23.0625 3.5625 23.0625 3.5625 21 4 C20.67 3.67 20.34 3.34 20 3 C17.94603274 3.40929986 17.94603274 3.40929986 16 4 C16.33 4.99 16.66 5.98 17 7 C17.10355733 9.36658965 17.14132771 11.69579866 17.125 14.0625 C17.11774902 15.18217163 17.11774902 15.18217163 17.11035156 16.32446289 C17.09308996 18.11121115 17.07114931 19.8979171 17.04589844 21.68457031 C17.01154897 24.16577115 16.9841432 26.64661989 16.96191406 29.12792969 C16.92519357 32.95432512 16.86424927 36.77983068 16.79046631 40.60568237 C16.76350324 42.15939375 16.74319147 43.71323489 16.72955322 45.26712036 C16.70826268 47.47965571 16.66172061 49.69035331 16.609375 51.90234375 C16.5779541 53.84355103 16.5779541 53.84355103 16.54589844 55.82397461 C16 59 16 59 14.10253906 60.96313477 C12 62 12 62 9.75 61.6875 C9.1725 61.460625 8.595 61.23375 8 61 C8.66 60.34 9.32 59.68 10 59 C10.88594113 55.6738101 11.12277321 52.54886161 11.11352539 49.11791992 C11.11341209 47.70702339 11.11341209 47.70702339 11.11329651 46.2676239 C11.10813522 45.2653627 11.10297394 44.2631015 11.09765625 43.23046875 C11.0962413 42.19432938 11.09482635 41.15819 11.09336853 40.09065247 C11.08778242 36.78957196 11.07523242 33.48855992 11.0625 30.1875 C11.05748321 27.94596452 11.05292061 25.70442798 11.04882812 23.46289062 C11.03781753 17.97523414 11.02056239 12.48762867 11 7 C6.71 6.34 2.42 5.68 -2 5 C-1.34 3.35 -0.68 1.7 0 0 Z " fill="#4879E3" transform="translate(257,271)"/>
<path d="M0 0 C0.78246094 -0.01417969 1.56492188 -0.02835937 2.37109375 -0.04296875 C4.5625 0.1875 4.5625 0.1875 7.5625 2.1875 C7.5625 2.8475 7.5625 3.5075 7.5625 4.1875 C8.2225 4.1875 8.8825 4.1875 9.5625 4.1875 C9.8925 5.5075 10.2225 6.8275 10.5625 8.1875 C11.8825 8.1875 13.2025 8.1875 14.5625 8.1875 C14.14828031 13.02006305 12.09836014 15.01429218 8.5625 18.1875 C7.9025 17.8575 7.2425 17.5275 6.5625 17.1875 C5.9296875 15.12109375 5.9296875 15.12109375 5.4375 12.625 C5.26992187 11.79871094 5.10234375 10.97242188 4.9296875 10.12109375 C4.80851562 9.48300781 4.68734375 8.84492188 4.5625 8.1875 C2.2525 7.5275 -0.0575 6.8675 -2.4375 6.1875 C-4.10596734 7.88245956 -4.10596734 7.88245956 -5.4375 10.1875 C-5.2999874 13.00650839 -4.79280428 14.64519347 -3.25 17 C-0.64388339 18.70745571 1.5224355 18.39017097 4.5625 18.1875 C4.8925 19.1775 5.2225 20.1675 5.5625 21.1875 C2.41927724 23.28298184 -0.70658812 23.74675201 -4.46484375 23.61328125 C-7.27517693 23.00669448 -8.94921774 21.56453374 -10.59375 19.2421875 C-12.29647529 15.09573609 -12.25933961 10.5500986 -11.4375 6.1875 C-10.03125 4.35546875 -10.03125 4.35546875 -8.4375 3.1875 C-7.7775 3.1875 -7.1175 3.1875 -6.4375 3.1875 C-6.4375 2.5275 -6.4375 1.8675 -6.4375 1.1875 C-4.0978331 0.01766655 -2.60358473 0.0213759 0 0 Z " fill="#9536F7" transform="translate(165.4375,311.8125)"/>
<path d="M0 0 C20.88479263 5.7281106 20.88479263 5.7281106 25.625 13.75 C26.88729025 16.28620721 26.88729025 16.28620721 30 17.375 C33.0314418 18.26900206 33.0314418 18.26900206 36 17 C38.22818441 16.93062938 40.45834524 16.91542916 42.6875 16.9375 C44.45673828 16.95103516 44.45673828 16.95103516 46.26171875 16.96484375 C47.16535156 16.97644531 48.06898438 16.98804688 49 17 C49 17.33 49 17.66 49 18 C47.02 18 45.04 18 43 18 C43 19.32 43 20.64 43 22 C40.60887459 22.64064115 38.21937273 23.2370895 35.8125 23.8125 C35.13896484 23.99748047 34.46542969 24.18246094 33.77148438 24.37304688 C31.76953125 24.83203125 31.76953125 24.83203125 28 25 C25.27734375 22.828125 25.27734375 22.828125 23 20 C15.64791296 12.79549135 8.79882387 9.01502273 -1 6 C-0.01 5.34 0.98 4.68 2 4 C0.68 3.34 -0.64 2.68 -2 2 C-1.34 2 -0.68 2 0 2 C0 1.34 0 0.68 0 0 Z " fill="#576AE8" transform="translate(232,171)"/>
<path d="M0 0 C0.66 0.33 1.32 0.66 2 1 C2.0879568 5.145697 2.14071153 9.29115012 2.1875 13.4375 C2.21263672 14.60216797 2.23777344 15.76683594 2.26367188 16.96679688 C2.35625008 27.92188486 0.75979119 35.03024661 -6.8828125 43.05078125 C-10.6848981 46.55122537 -14.09474894 48.71241493 -19.3125 49.5 C-20.6428125 49.7475 -20.6428125 49.7475 -22 50 C-23.12516085 51.83284443 -23.12516085 51.83284443 -24 54 C-28.89659383 58.28451961 -31.44347561 59.34508023 -38 59 C-38.99 58.34 -39.98 57.68 -41 57 C-38.36 57 -35.72 57 -33 57 C-32.67 56.01 -32.34 55.02 -32 54 C-32.98448162 52.82329065 -32.98448162 52.82329065 -34.8125 52.6875 C-37.83219969 51.73845153 -39.13798735 50.55164697 -41 48 C-40.93088668 44.61344731 -40.62064369 42.74477242 -38.4375 40.125 C-37.963125 39.75375 -37.48875 39.3825 -37 39 C-33.625 39.5625 -33.625 39.5625 -30 41 C-28.6875 44.4375 -28.6875 44.4375 -28 48 C-27.34 48.99 -26.68 49.98 -26 51 C-25.59394531 50.53464844 -25.18789062 50.06929688 -24.76953125 49.58984375 C-22.7545236 47.77945056 -21.27989465 47.28335585 -18.6875 46.5625 C-11.80523018 44.39503191 -7.51326517 41.42079496 -4 35 C-0.71650653 27.63245098 -0.46691031 20.40948374 -0.3125 12.4375 C-0.27833984 11.23802734 -0.24417969 10.03855469 -0.20898438 8.80273438 C-0.12715546 5.86858316 -0.0577937 2.93470636 0 0 Z M-37.75 42.25 C-39.24915434 43.93420967 -39.24915434 43.93420967 -38.75 46.125 C-38.15045529 47.98085115 -38.15045529 47.98085115 -37 49 C-35.33382885 49.04063832 -33.66611905 49.042721 -32 49 C-31.34 47.35 -30.68 45.7 -30 44 C-31.31201173 42.43750191 -31.31201173 42.43750191 -33 41 C-35.95156348 40.7093809 -35.95156348 40.7093809 -37.75 42.25 Z " fill="#7A35D7" transform="translate(200,278)"/>
<path d="M0 0 C2.49388574 4.98777148 1.88836125 6.66983248 1 12 C0.05640625 12.14695313 0.05640625 12.14695313 -0.90625 12.296875 C-8.81957287 13.67932297 -15.20343293 15.35428702 -20.375 21.8125 C-24.26701824 27.52361373 -25.59366643 33.11346941 -25 40 C-23.52638045 46.57372472 -21.14761932 52.22449524 -15.32855225 56.11849976 C-9.80777481 59.10713257 -5.16488798 59.57440711 1.046875 59.5390625 C1.98049866 59.55085541 2.91412231 59.56264832 3.8760376 59.57479858 C6.83419789 59.60986372 9.79164938 59.61921161 12.75 59.625 C15.72242048 59.64136106 18.69452805 59.66339873 21.66680908 59.69662476 C23.50978516 59.7162071 25.35290492 59.72559479 27.19598389 59.72354126 C28.03075256 59.73050018 28.86552124 59.73745911 29.72558594 59.74462891 C30.45646423 59.74588776 31.18734253 59.74714661 31.94036865 59.7484436 C34.30622705 60.03740153 35.93963698 60.82997419 38 62 C33.59676097 63.08064246 29.2774312 63.17765408 24.76953125 63.203125 C23.97906906 63.20882507 23.18860687 63.21452515 22.37419128 63.22039795 C20.70414556 63.22981888 19.0340815 63.23637034 17.36401367 63.24023438 C14.83803907 63.24990225 12.31289207 63.28093696 9.78710938 63.3125 C-0.72085804 63.38185158 -10.79238898 63.28918235 -19.46484375 56.5234375 C-25.43933496 50.59455309 -27.14221103 44.45972076 -27.3125 36.25 C-27.26792693 30.11801934 -26.51044357 26.00969551 -23 21 C-22.13375 19.63875 -22.13375 19.63875 -21.25 18.25 C-15.35033839 12.35033839 -8.01992482 11.12043067 0 10 C0 6.7 0 3.4 0 0 Z " fill="#6B43B5" transform="translate(187,208)"/>
<path d="M0 0 C3.30133235 0.2676756 4.62503298 0.5603835 6.8125 3.125 C8.77035187 7.86506241 8.56088375 11.46494973 6.8125 16.25 C4.73256673 19.40576082 3.50550868 20.59779653 0 22 C-4.97927461 22.88341969 -4.97927461 22.88341969 -8 22 C-11.66267274 19.32555783 -14.57981159 16.24100488 -15.43359375 11.6875 C-15.4375 9.5 -15.4375 9.5 -15 6 C-12.03 6.495 -12.03 6.495 -9 7 C-8.690625 8.134375 -8.38125 9.26875 -8.0625 10.4375 C-7.37075469 13.78775099 -7.37075469 13.78775099 -6 15 C-3.66702567 15.04092937 -1.33294775 15.04241723 1 15 C1.33 11.7 1.66 8.4 2 5 C1.34 5 0.68 5 0 5 C0 3.35 0 1.7 0 0 Z " fill="#427CE2" transform="translate(274,329)"/>
<path d="M0 0 C0.66 0.33 1.32 0.66 2 1 C2.00142502 1.57771652 2.00285004 2.15543304 2.00431824 2.75065613 C2.0240213 8.76955502 2.07830753 14.78744058 2.15258789 20.8059082 C2.17576945 23.05127693 2.19016395 25.29675442 2.19555664 27.54223633 C2.2048447 30.77233673 2.24583423 34.00072609 2.29296875 37.23046875 C2.2890361 38.23272995 2.28510345 39.23499115 2.28105164 40.2676239 C2.37778557 46.10566493 2.37778557 46.10566493 5.41918945 50.9855957 C6.27085693 51.65034912 7.12252441 52.31510254 8 53 C10.83880927 57.25821391 10.51165313 61.00338745 10 66 C8.28924958 70.2318563 6.15277764 72.15432105 2 74 C-2.18089138 75.12296669 -5.11968376 75.30472485 -9.25 73.875 C-12.78171399 71.46701319 -15.08981265 68.8203747 -17 65 C-17.39231417 60.29223 -17.47336758 57.92920303 -15.3125 53.6875 C-13.03519341 51.04090045 -11.10375933 49.55187967 -8 48 C-8 51 -8 51 -10.375 53.625 C-13 56 -13 56 -15 57 C-14.35576791 61.9519332 -13.71727521 65.94518351 -10.875 70.125 C-7.09674196 72.58908133 -4.38724142 72.80817605 0 72 C3.21476838 70.67216089 4.56324376 69.74872498 6.3125 66.75 C7.45258062 62.18967753 7.68138756 58.533122 5.75 54.1875 C3.95198292 51.62677631 3.95198292 51.62677631 0 50 C0 33.5 0 17 0 0 Z " fill="#3B60B0" transform="translate(274,278)"/>
<path d="M0 0 C2.97 0.495 2.97 0.495 6 1 C6 1.66 6 2.32 6 3 C6.928125 3.0928125 6.928125 3.0928125 7.875 3.1875 C10 4 10 4 11.3125 6.125 C12.1970621 9.82407786 11.92185663 12.31257349 11 16 C9.0625 18.9375 9.0625 18.9375 7 21 C6.34 21 5.68 21 5 21 C5 21.66 5 22.32 5 23 C-1.0546875 23.1953125 -1.0546875 23.1953125 -3 23 C-3.66 22.34 -4.32 21.68 -5 21 C-4.34 21 -3.68 21 -3 21 C-3 20.01 -3 19.02 -3 18 C-3.495 17.5875 -3.99 17.175 -4.5 16.75 C-6 15 -6 15 -6.375 11.4375 C-6.25125 10.303125 -6.1275 9.16875 -6 8 C-3.08235 6.0549 -1.37462715 5.54723683 2 5 C1.34 3.35 0.68 1.7 0 0 Z M-4 9 C-4.16687448 11.41645782 -4.16687448 11.41645782 -4 14 C-3.34 14.66 -2.68 15.32 -2 16 C0.60280568 15.67958603 0.60280568 15.67958603 3 15 C3.69159401 13.15274948 3.69159401 13.15274948 4 11 C3.34 10.01 2.68 9.02 2 8 C-1.7763932 7.7018576 -1.7763932 7.7018576 -4 9 Z " fill="#5C65E6" transform="translate(234,341)"/>
<path d="M0 0 C0.44730469 0.40992188 0.89460938 0.81984375 1.35546875 1.2421875 C4.73744485 4.25640074 7.579668 6.66050545 12 8 C12.70125 7.05125 13.4025 6.1025 14.125 5.125 C16.77308046 1.97854485 18.86547422 0.74421464 23 0 C28.4416024 0.19434294 31.78168117 1.56648468 36 5 C38.76874455 9.40738929 38.5459798 13.95579853 38 19 C36.625 22.125 36.625 22.125 35 24 C34.34 24 33.68 24 33 24 C33.58803797 20.97580475 34.22678118 17.98241547 35 15 C34.01 14.34 33.02 13.68 32 13 C31.9071875 14.175625 31.9071875 14.175625 31.8125 15.375 C31 18 31 18 28.875 19.375 C25.3289466 20.14588117 22.53766637 19.69366007 19 19 C19 16.03 19 13.06 19 10 C22.45817559 8.05477623 24.56877603 7.91745781 28.3125 8.875 C29.529375 9.24625 30.74625 9.6175 32 10 C32.33 9.01 32.66 8.02 33 7 C32.505 6.01 32.505 6.01 32 5 C27.28474515 4.20080426 22.78845757 3.88028856 18 4 C17.34 5.32 16.68 6.64 16 8 C15.34 8 14.68 8 14 8 C14 8.99 14 9.98 14 11 C9.21643523 10.42017397 6.00320934 8.56809656 2 6 C0 3 0 3 0 0 Z M23 10 C22.34 10.66 21.68 11.32 21 12 C21.32041397 14.60280568 21.32041397 14.60280568 22 17 C23.65 17.33 25.3 17.66 27 18 C27.66 16.35 28.32 14.7 29 13 C27.68798827 11.43750191 27.68798827 11.43750191 26 10 C25.01 10 24.02 10 23 10 Z " fill="#1992BB" transform="translate(311,304)"/>
<path d="M0 0 C4.67746828 0.11924688 9.35476649 0.24354861 14.03198242 0.37231445 C15.61951145 0.41533386 17.207077 0.45702837 18.79467773 0.49731445 C35.02895258 0.91095908 35.02895258 0.91095908 43 2 C42.67 3.32 42.34 4.64 42 6 C34.74 6 27.48 6 20 6 C18.96285478 9.11143567 18.79968139 11.49468096 18.68359375 14.76171875 C18.64169922 15.87998047 18.59980469 16.99824219 18.55664062 18.15039062 C18.51732422 19.31763672 18.47800781 20.48488281 18.4375 21.6875 C18.39431641 22.86634766 18.35113281 24.04519531 18.30664062 25.25976562 C18.20048824 28.17305883 18.09843758 31.08643757 18 34 C17.67 34 17.34 34 17 34 C16.94465088 33.29915283 16.88930176 32.59830566 16.83227539 31.8762207 C16.57875273 28.68806115 16.32067224 25.50028627 16.0625 22.3125 C15.97548828 21.20970703 15.88847656 20.10691406 15.79882812 18.97070312 C15.71181641 17.90400391 15.62480469 16.83730469 15.53515625 15.73828125 C15.456604 14.75899658 15.37805176 13.77971191 15.29711914 12.77075195 C15.01406289 10.13114191 14.52098933 7.60058461 14 5 C14 4.01 14 3.02 14 2 C13.34 2 12.68 2 12 2 C12 3.32 12 4.64 12 6 C7.38 6 2.76 6 -2 6 C2 4 2 4 5 4 C5 3.34 5 2.68 5 2 C3.35 2 1.7 2 0 2 C0 1.34 0 0.68 0 0 Z " fill="#754DE9" transform="translate(182,270)"/>
<path d="M0 0 C1.65 0.33 3.3 0.66 5 1 C5 1.66 5 2.32 5 3 C5.86625 3.2784375 5.86625 3.2784375 6.75 3.5625 C9 5 9 5 10.5 8.5 C11.39984774 10.46822716 11.39984774 10.46822716 13 12 C16.02403715 12.81047682 18.95972323 13.13411448 22.0703125 13.46875 C26.29546349 14.23491071 28.09565461 15.93430209 31 19 C28.57479454 21.42520546 27.37932259 21.68564441 24 22 C23.26007813 21.68804687 22.52015625 21.37609375 21.7578125 21.0546875 C18.50109451 19.80920045 15.6616225 19.58555288 12.1875 19.375 C10.44533203 19.26285156 10.44533203 19.26285156 8.66796875 19.1484375 C7.78753906 19.09945312 6.90710938 19.05046875 6 19 C5.97421875 18.39671875 5.9484375 17.7934375 5.921875 17.171875 C5.5890327 11.97639492 5.5890327 11.97639492 3.125 7.5 C0.98068723 5.8331503 0.98068723 5.8331503 -2 5 C-1.34 3.35 -0.68 1.7 0 0 Z " fill="#239ADC" transform="translate(303,200)"/>
<path d="M0 0 C22.11 0 44.22 0 67 0 C67 0.33 67 0.66 67 1 C62.05 1.33 57.1 1.66 52 2 C52 2.99 52 3.98 52 5 C49.50907189 6.24546405 48.58919267 5.7767578 46 5 C45.67 5.99 45.34 6.98 45 8 C45 7.34 45 6.68 45 6 C37.41 6.33 29.82 6.66 22 7 C22 7.66 22 8.32 22 9 C20.68 8.67 19.36 8.34 18 8 C17.67 6.68 17.34 5.36 17 4 C18.32 4 19.64 4 21 4 C21.33 3.34 21.66 2.68 22 2 C22.66 2 23.32 2 24 2 C24.33 2.66 24.66 3.32 25 4 C25.66 4 26.32 4 27 4 C27 3.01 27 2.02 27 1 C18.09 1 9.18 1 0 1 C0 0.67 0 0.34 0 0 Z " fill="#3C7CD7" transform="translate(255,270)"/>
<path d="M0 0 C13.07764529 -0.56136156 24.08512806 1.37986495 35 9 C36.21537901 10.4351816 37.40371479 11.89374742 38.5625 13.375 C40.54183823 15.54615039 41.93840483 16.85732858 44.90380859 17.25585938 C47.99053089 17.31419113 51.04803021 17.16411036 54.12939453 16.99243164 C61.53796347 16.68495533 66.89848221 18.71329263 73 23 C73.78503906 23.81984375 73.78503906 23.81984375 74.5859375 24.65625 C76.95583447 26.90830679 79.86070502 26.7038401 83 27 C83 27.66 83 28.32 83 29 C77.22545684 28.69607668 74.18235383 27.79547569 69.67578125 24.2109375 C67.30720093 22.49937596 64.7998222 21.75117181 62 21 C62 20.34 62 19.68 62 19 C59.9163691 19.14151828 57.83310062 19.28837936 55.75 19.4375 C54.58984375 19.51871094 53.4296875 19.59992188 52.234375 19.68359375 C49.13878882 19.89590161 49.13878882 19.89590161 46.765625 20.60546875 C43.60947365 21.31071496 41.62586989 19.64116868 39 18 C37.65576661 16.34211215 36.32381517 14.67423683 35 13 C25.58147309 3.88681186 12.48641005 2.42273938 0 1 C0 0.67 0 0.34 0 0 Z " fill="#4664B7" transform="translate(219,169)"/>
<path d="M0 0 C0.33 0.66 0.66 1.32 1 2 C1.99 2.33 2.98 2.66 4 3 C3.71758359 4.46015291 3.42373386 5.91809793 3.125 7.375 C2.96257812 8.18710937 2.80015625 8.99921875 2.6328125 9.8359375 C2 12 2 12 0 14 C-5.73266753 15.38374733 -9.26623895 15.17826609 -14.4296875 12.2421875 C-16 11 -16 11 -17.0625 8.5 C-17.00370946 6.14837852 -16.74243637 4.2273091 -16 2 C-15.01 2 -14.02 2 -13 2 C-13 3.65 -13 5.3 -13 7 C-11.56260487 7.02712066 -10.12506137 7.04645067 -8.6875 7.0625 C-7.88699219 7.07410156 -7.08648437 7.08570313 -6.26171875 7.09765625 C-3.83138666 7.09657855 -3.83138666 7.09657855 -1 6 C-1.020625 5.195625 -1.04125 4.39125 -1.0625 3.5625 C-1 1 -1 1 0 0 Z " fill="#16A2D1" transform="translate(343,316)"/>
<path d="M0 0 C2.30142435 1.78174788 3.80034391 3.16304165 4.48828125 6.046875 C4.72323102 8.0246611 4.86751458 10.01271872 5 12 C5.99 12.33 6.98 12.66 8 13 C7.01 13.495 7.01 13.495 6 14 C6 16.97 6 19.94 6 23 C4.68 23 3.36 23 2 23 C2.061875 23.78375 2.12375 24.5675 2.1875 25.375 C2.125625 26.24125 2.06375 27.1075 2 28 C1.01 28.66 0.02 29.32 -1 30 C-1.92844389 25.66726186 -1.92844389 22.33273814 -1 18 C-1.66 17.67 -2.32 17.34 -3 17 C-2.34 16.67 -1.68 16.34 -1 16 C-0.14428627 11.63585999 0.10827397 7.43923267 0 3 C-0.66 3 -1.32 3 -2 3 C-1 1 -1 1 0 0 Z " fill="#18A5D8" transform="translate(342,228)"/>
<path d="M0 0 C0 0.66 0 1.32 0 2 C1.45833358 3.62514468 1.45833358 3.62514468 3 5 C-1.52976815 6.41995323 -6.27542107 6.33862919 -10.98046875 6.51757812 C-15.30929879 6.73361202 -18.95882082 7.43546825 -23 9 C-23.144375 8.38125 -23.28875 7.7625 -23.4375 7.125 C-23.93152225 4.96741678 -23.93152225 4.96741678 -25 3 C-8.29157175 -1.77676538 -8.29157175 -1.77676538 0 0 Z " fill="#6B58EB" transform="translate(232,171)"/>
<path d="M0 0 C0.78246094 -0.01417969 1.56492188 -0.02835937 2.37109375 -0.04296875 C4.5625 0.1875 4.5625 0.1875 7.5625 2.1875 C7.5625 2.8475 7.5625 3.5075 7.5625 4.1875 C8.2225 4.1875 8.8825 4.1875 9.5625 4.1875 C9.8925 5.5075 10.2225 6.8275 10.5625 8.1875 C11.8825 8.1875 13.2025 8.1875 14.5625 8.1875 C14.14828031 13.02006305 12.09836014 15.01429218 8.5625 18.1875 C7.9025 17.8575 7.2425 17.5275 6.5625 17.1875 C6.27687245 15.73916635 6.05752024 14.27740267 5.875 12.8125 C5.25670445 9.34048938 5.25670445 9.34048938 2.87890625 6.92578125 C0.73505272 5.99606993 0.73505272 5.99606993 -2.4375 5.1875 C-1.7775 3.8675 -1.1175 2.5475 -0.4375 1.1875 C-2.0875 1.8475 -3.7375 2.5075 -5.4375 3.1875 C-5.7675 2.5275 -6.0975 1.8675 -6.4375 1.1875 C-4.0978331 0.01766655 -2.60358473 0.0213759 0 0 Z " fill="#8B3EF4" transform="translate(165.4375,311.8125)"/>
<path d="M0 0 C3.10420715 0.33660078 4.65007452 0.66830711 6.94921875 2.84765625 C7.80966797 3.94400391 7.80966797 3.94400391 8.6875 5.0625 C9.7529033 6.40665627 10.84956685 7.72785856 12 9 C12.66 9 13.32 9 14 9 C14 9.66 14 10.32 14 11 C14.57105469 10.77183594 15.14210938 10.54367188 15.73046875 10.30859375 C22.91832871 7.76027456 29.52142118 7.31884809 37 9 C40.48245364 11.52648598 42.3828454 14.03062053 44 18 C44.66 18 45.32 18 46 18 C46 18.66 46 19.32 46 20 C46.99 20.33 47.98 20.66 49 21 C47.68 21.33 46.36 21.66 45 22 C44.63648438 21.52949219 44.27296875 21.05898437 43.8984375 20.57421875 C39.57025514 15.21393137 36.0319458 12.69585641 29.1875 11.125 C25.07253749 10.70639537 21.87336488 11.78640222 18.078125 13.30859375 C16 14 16 14 12 14 C10.5078125 12.42578125 10.5078125 12.42578125 9.125 10.3125 C6.448894 6.46218423 3.67180427 3.88498907 0 1 C0 0.67 0 0.34 0 0 Z " fill="#4664B6" transform="translate(246,185)"/>
<path d="M0 0 C5.24560911 0.3179157 8.58456149 3.24562485 12 7 C12.391875 8.051875 12.78375 9.10375 13.1875 10.1875 C15.47903083 13.7433237 16.65145006 13.66447889 20.6875 14.5625 C21.75742187 14.78550781 22.82734375 15.00851563 23.9296875 15.23828125 C31.2325164 17.05005178 37.45900756 22.08127927 42 28 C44.79530032 32.97648164 47 37.23797081 47 43 C46.34 43 45.68 43 45 43 C44.82984375 42.41992188 44.6596875 41.83984375 44.484375 41.2421875 C42.91053764 36.16907347 41.05721536 32.32226999 38 28 C38 27.34 38 26.68 38 26 C37.4121875 25.731875 36.824375 25.46375 36.21875 25.1875 C33.99224997 23.99585209 32.39194974 22.65960504 30.5 21 C26.94772281 18.21272633 24.34392135 17.60334256 19.875 17.1875 C14.51257775 16.53567674 14.51257775 16.53567674 12.1796875 14.09765625 C11.22651125 12.53246793 10.31444998 10.94149398 9.4453125 9.328125 C7.39821353 6.03063585 4.71781956 4.23673229 1.5390625 2.09375 C1.03117187 1.7328125 0.52328125 1.371875 0 1 C0 0.67 0 0.34 0 0 Z " fill="#277FAB" transform="translate(302,197)"/>
<path d="M0 0 C0 0.33 0 0.66 0 1 C-0.91523438 1.19335938 -1.83046875 1.38671875 -2.7734375 1.5859375 C-3.96195313 1.84632813 -5.15046875 2.10671875 -6.375 2.375 C-7.55835938 2.63023437 -8.74171875 2.88546875 -9.9609375 3.1484375 C-13.08196967 3.75523965 -13.08196967 3.75523965 -15 6 C-15.78375 6.12375 -16.5675 6.2475 -17.375 6.375 C-20.63101636 7.15024199 -21.74701609 8.59681716 -24 11 C-24.99 11.33 -25.98 11.66 -27 12 C-28.33827304 13.66270287 -29.67189785 15.32916181 -31 17 C-31.66 17 -32.32 17 -33 17 C-33.268125 17.721875 -33.53625 18.44375 -33.8125 19.1875 C-35 22 -35 22 -36.4375 24.25 C-39.71102334 30.01140109 -41.24137251 36.64188522 -43 43 C-44.98 43.495 -44.98 43.495 -47 44 C-47.33 43.34 -47.66 42.68 -48 42 C-46.68 42 -45.36 42 -44 42 C-43.92523438 41.27296875 -43.85046875 40.5459375 -43.7734375 39.796875 C-42.18799387 27.6728943 -37.31682766 16.97032813 -27.75 9.1640625 C-18.93544883 2.63578554 -11.05692367 -0.8469133 0 0 Z " fill="#6B44B8" transform="translate(223,170)"/>
<path d="M0 0 C0.66 0.33 1.32 0.66 2 1 C2.0879568 5.145697 2.14071153 9.29115012 2.1875 13.4375 C2.21263672 14.60216797 2.23777344 15.76683594 2.26367188 16.96679688 C2.35625008 27.92188486 0.75979119 35.03024661 -6.8828125 43.05078125 C-10.6848981 46.55122537 -14.09474894 48.71241493 -19.3125 49.5 C-20.6428125 49.7475 -20.6428125 49.7475 -22 50 C-23.43637698 51.95163118 -23.43637698 51.95163118 -24 54 C-25 52 -25 52 -24.328125 49.96875 C-22.66151069 47.49823937 -21.59738182 47.23605789 -18.75 46.5 C-11.80580711 44.41562749 -7.53005402 41.45147804 -4 35 C-0.71650653 27.63245098 -0.46691031 20.40948374 -0.3125 12.4375 C-0.27833984 11.23802734 -0.24417969 10.03855469 -0.20898438 8.80273438 C-0.12715546 5.86858316 -0.0577937 2.93470636 0 0 Z " fill="#5E3BB5" transform="translate(200,278)"/>
<path d="M0 0 C0.53625 0.78375 1.0725 1.5675 1.625 2.375 C4.33531985 5.37061667 6.08715301 6.16747936 10 7 C10.99 6.67 11.98 6.34 13 6 C15.22818441 5.93062938 17.45834524 5.91542916 19.6875 5.9375 C21.45673828 5.95103516 21.45673828 5.95103516 23.26171875 5.96484375 C24.16535156 5.97644531 25.06898438 5.98804688 26 6 C26 6.33 26 6.66 26 7 C24.02 7 22.04 7 20 7 C20 8.32 20 9.64 20 11 C17.60887459 11.64064115 15.21937273 12.2370895 12.8125 12.8125 C12.13896484 12.99748047 11.46542969 13.18246094 10.77148438 13.37304688 C8.76953125 13.83203125 8.76953125 13.83203125 5 14 C1.65005462 11.45297096 0.26165908 9.9344967 -0.875 5.875 C-1 3 -1 3 0 0 Z " fill="#5072E0" transform="translate(255,182)"/>
<path d="M0 0 C0 3.55659336 -0.46974174 3.92540518 -2.875 6.375 C-11.56474154 14.56274452 -20.54723308 15.85472331 -32 17 C-32 25.25 -32 33.5 -32 42 C-32.66 42 -33.32 42 -34 42 C-35.07222792 36.74179427 -35.18341331 31.65380543 -35.1875 26.3125 C-35.19974609 25.45849609 -35.21199219 24.60449219 -35.22460938 23.72460938 C-35.22654297 22.90412109 -35.22847656 22.08363281 -35.23046875 21.23828125 C-35.23457764 20.49618408 -35.23868652 19.75408691 -35.24291992 18.98950195 C-35 17 -35 17 -33 14 C-30.3125 13.62890625 -30.3125 13.62890625 -27 13.5625 C-21.35282765 13.27418709 -17.04312309 12.19331848 -11.92578125 9.83984375 C-10 9 -10 9 -8 9 C-7.67 8.01 -7.34 7.02 -7 6 C-6.34 6 -5.68 6 -5 6 C-5 5.34 -5 4.68 -5 4 C-4.34 4 -3.68 4 -3 4 C-3 3.34 -3 2.68 -3 2 C-2.01 1.34 -1.02 0.68 0 0 Z " fill="#2C74AC" transform="translate(343,262)"/>
<path d="M0 0 C4.09341499 -0.02469575 8.18680121 -0.04285793 12.28027344 -0.05493164 C13.67318477 -0.0599643 15.0660908 -0.06679098 16.45898438 -0.07543945 C18.45961246 -0.08755152 20.46027888 -0.09270412 22.4609375 -0.09765625 C23.66540527 -0.10289307 24.86987305 -0.10812988 26.11083984 -0.11352539 C29 0 29 0 31 1 C30.34 2.65 29.68 4.3 29 6 C26.5622037 6.05397335 24.12560315 6.09365616 21.6875 6.125 C20.65206055 6.15013672 20.65206055 6.15013672 19.59570312 6.17578125 C15.82864604 6.21217794 14.21568296 6.14378864 11 4 C11 3.34 11 2.68 11 2 C7.37 1.67 3.74 1.34 0 1 C0 0.67 0 0.34 0 0 Z " fill="#5768E3" transform="translate(226,270)"/>
<path d="M0 0 C2.475 0.495 2.475 0.495 5 1 C4.125 5.75 4.125 5.75 3 8 C2.34 8 1.68 8 1 8 C1 8.66 1 9.32 1 10 C-2.69718736 13.58165025 -6.98003285 15.8762835 -12 17 C-12.99 16.67 -13.98 16.34 -15 16 C-14.67 15.01 -14.34 14.02 -14 13 C-13.67 13.66 -13.34 14.32 -13 15 C-12.34 14.34 -11.68 13.68 -11 13 C-10.01 12.67 -9.02 12.34 -8 12 C-9.32 11.34 -10.64 10.68 -12 10 C-11.38511719 9.69707031 -10.77023437 9.39414062 -10.13671875 9.08203125 C-3.82431806 5.84866923 -3.82431806 5.84866923 0 0 Z " fill="#1E9AD1" transform="translate(337,258)"/>
<path d="M0 0 C8.58 0 17.16 0 26 0 C26.375 12 26.375 12 26.47802734 15.734375 C26.69443445 21.78202331 27.25157458 27.20034494 29 33 C28.01 33.495 28.01 33.495 27 34 C24.21509538 27.11680005 23.48476408 20.81809596 23.3125 13.4375 C23.209375 9.993125 23.10625 6.54875 23 3 C15.74 3 8.48 3 1 3 C0.67 2.01 0.34 1.02 0 0 Z " fill="#2C6CB3" transform="translate(276,276)"/>
<path d="M0 0 C0.33 0.66 0.66 1.32 1 2 C0.01 2.99 -0.98 3.98 -2 5 C-2.99 4.67 -3.98 4.34 -5 4 C-5.33 4.66 -5.66 5.32 -6 6 C-5.01 6.33 -4.02 6.66 -3 7 C-6.06533164 8.53266582 -9.26754272 8.10276471 -12.625 8.0625 C-13.33140625 8.05798828 -14.0378125 8.05347656 -14.765625 8.04882812 C-16.51045275 8.03703875 -18.255237 8.01910324 -20 8 C-20 8.66 -20 9.32 -20 10 C-21.98 10 -23.96 10 -26 10 C-26.66 8.35 -27.32 6.7 -28 5 C-26.02 5.66 -24.04 6.32 -22 7 C-22 6.01 -22 5.02 -22 4 C-22 3.67 -22 3.34 -22 3 C-20.91460937 2.95101563 -19.82921875 2.90203125 -18.7109375 2.8515625 C-17.26560216 2.77648014 -15.82029081 2.70093472 -14.375 2.625 C-13.66214844 2.5940625 -12.94929688 2.563125 -12.21484375 2.53125 C-7.82847392 2.28979845 -4.1405166 1.60657269 0 0 Z " fill="#2995D9" transform="translate(328,268)"/>
<path d="M0 0 C1.98 0 3.96 0 6 0 C6.33 0.99 6.66 1.98 7 3 C5.2490337 6.50193261 1.16677578 7.49544831 -2.3125 9 C-4.35003098 9.95854206 -4.35003098 9.95854206 -5 13 C-5.66 13 -6.32 13 -7 13 C-7 13.66 -7 14.32 -7 15 C-9.99332739 14.0022242 -10.94766315 13.2477975 -13 11 C-12.34 11 -11.68 11 -11 11 C-10.67 10.01 -10.34 9.02 -10 8 C-9.34 8 -8.68 8 -8 8 C-7.67 7.01 -7.34 6.02 -7 5 C-5 4.33333333 -3 3.66666667 -1 3 C-0.67 2.01 -0.34 1.02 0 0 Z " fill="#754DEC" transform="translate(203,176)"/>
<path d="M0 0 C3.63 1.32 7.26 2.64 11 4 C11 4.66 11 5.32 11 6 C12.65 6 14.3 6 16 6 C16 6.66 16 7.32 16 8 C17.32 8.33 18.64 8.66 20 9 C3.1070615 9.738041 3.1070615 9.738041 -4 5 C-4 4.01 -4 3.02 -4 2 C-3.01 2 -2.02 2 -1 2 C-0.67 1.34 -0.34 0.68 0 0 Z " fill="#893FF6" transform="translate(171,266)"/>
<path d="M0 0 C0.44730469 0.40992188 0.89460938 0.81984375 1.35546875 1.2421875 C4.73744485 4.25640074 7.579668 6.66050545 12 8 C12.70125 7.05125 13.4025 6.1025 14.125 5.125 C16.77308046 1.97854485 18.86547422 0.74421464 23 0 C28.60855534 0.20030555 31.6574291 1.71659273 36 5 C35.67 5.99 35.34 6.98 35 8 C34.505 7.2884375 34.505 7.2884375 34 6.5625 C29.77853893 3.26448354 23.16023405 3.87099415 18 4 C17.34 5.32 16.68 6.64 16 8 C15.34 8 14.68 8 14 8 C14 8.99 14 9.98 14 11 C9.21643523 10.42017397 6.00320934 8.56809656 2 6 C0 3 0 3 0 0 Z " fill="#2286AF" transform="translate(311,304)"/>
<path d="M0 0 C8.07861415 -0.09579384 15.98340366 -0.12513633 24 1 C23.67 2.32 23.34 3.64 23 5 C15.74 5 8.48 5 1 5 C0.67 4.34 0.34 3.68 0 3 C2.97 3.495 2.97 3.495 6 4 C4.02 3.01 2.04 2.02 0 1 C0 0.67 0 0.34 0 0 Z " fill="#6F57EC" transform="translate(201,271)"/>
<path d="M0 0 C11.22 0 22.44 0 34 0 C34 0.33 34 0.66 34 1 C29.05 1.33 24.1 1.66 19 2 C19 2.99 19 3.98 19 5 C16.50907189 6.24546405 15.58919267 5.7767578 13 5 C12.67 5.99 12.34 6.98 12 8 C11.67 7.34 11.34 6.68 11 6 C8.6859378 5.26924352 6.35171131 4.59861742 4 4 C4 3.01 4 2.02 4 1 C2.68 0.67 1.36 0.34 0 0 Z " fill="#2E86CC" transform="translate(288,270)"/>
<path d="M0 0 C0.33 0.99 0.66 1.98 1 3 C1.99 3 2.98 3 4 3 C4.66 4.65 5.32 6.3 6 8 C4.68 8 3.36 8 2 8 C2 8.66 2 9.32 2 10 C2.66 10.33 3.32 10.66 4 11 C4 12.32 4 13.64 4 15 C6.85410334 16.50560497 9.68124642 17.63216796 12.75 18.625 C13.54921875 18.88539063 14.3484375 19.14578125 15.171875 19.4140625 C15.77515625 19.60742188 16.3784375 19.80078125 17 20 C16.01 20.66 15.02 21.32 14 22 C7.46991795 20.33980965 2.42317968 17.12912357 -2 12 C-3.32092445 8.44313573 -2.7531381 5.6820085 -2 2 C-1.34 2 -0.68 2 0 2 C0 1.34 0 0.68 0 0 Z " fill="#2C89D7" transform="translate(307,301)"/>
<path d="M0 0 C-0.03480469 1.15757812 -0.06960937 2.31515625 -0.10546875 3.5078125 C-0.13362207 5.0468604 -0.16092056 6.58592411 -0.1875 8.125 C-0.21263672 8.88554687 -0.23777344 9.64609375 -0.26367188 10.4296875 C-0.32873293 15.46107612 0.47387162 18.53120597 3 23 C3 23.99 3 24.98 3 26 C-1.59213503 24.5498521 -1.59213503 24.5498521 -3.14453125 22.45703125 C-4.41941112 18.79538997 -4.32874236 15.28693963 -4.3125 11.4375 C-4.32861328 10.66986328 -4.34472656 9.90222656 -4.36132812 9.11132812 C-4.36621197 3.509555 -4.36621197 3.509555 -2.54296875 0.97265625 C-1 0 -1 0 0 0 Z " fill="#9635F9" transform="translate(159,236)"/>
<path d="M0 0 C1.65 0.33 3.3 0.66 5 1 C5 1.66 5 2.32 5 3 C5.86625 3.2784375 5.86625 3.2784375 6.75 3.5625 C10.16717779 5.74569692 11.24528583 8.36059284 13 12 C12.67 12.66 12.34 13.32 12 14 C11.34 13.67 10.68 13.34 10 13 C9.67 13.66 9.34 14.32 9 15 C8.01 14.67 7.02 14.34 6 14 C5.30341637 12.34561387 4.63903117 10.67745682 4 9 C1.99584162 6.56015502 1.08628136 6.02876045 -2 5 C-1.34 3.35 -0.68 1.7 0 0 Z " fill="#2A90DE" transform="translate(303,200)"/>
<path d="M0 0 C2.97 0.495 2.97 0.495 6 1 C6.2475 2.093125 6.495 3.18625 6.75 4.3125 C8.02002851 8.05908409 8.65756352 9.10595266 12 11 C11.01 11 10.02 11 9 11 C9 11.99 9 12.98 9 14 C8.01 14.33 7.02 14.66 6 15 C0.27443946 9.5470852 0.27443946 9.5470852 -0.3984375 5.75390625 C-0.375 3.5625 -0.375 3.5625 0 0 Z " fill="#4A75E5" transform="translate(259,335)"/>
<path d="M0 0 C0.66 0.66 1.32 1.32 2 2 C1.01 2.78375 0.02 3.5675 -1 4.375 C-2.485 5.674375 -2.485 5.674375 -4 7 C-4 7.66 -4 8.32 -4 9 C-4.66 9 -5.32 9 -6 9 C-5.35576791 13.9519332 -4.71727521 17.94518351 -1.875 22.125 C2.76129665 25.14867173 6.72656461 24.3789059 12 23.5 C12.99 23.2525 12.99 23.2525 14 23 C12.01686847 25.85075158 10.66160245 26.07766501 7.1875 26.875 C3.01562385 27.24243129 0.5085889 26.3922197 -3 24 C-6.89944801 19.67899005 -8.36020885 17.00536835 -8.28515625 11.09765625 C-7.68811593 6.7057295 -5.04271939 3.86893282 -1.75 1.125 C-1.1725 0.75375 -0.595 0.3825 0 0 Z " fill="#435CA6" transform="translate(265,326)"/>
<path d="M0 0 C0.66 0 1.32 0 2 0 C2.41979213 6.43681269 1.66959041 13.44054612 -2.3125 18.75 C-3.6875 20.125 -3.6875 20.125 -6 22 C-6.33 21.34 -6.66 20.68 -7 20 C-6.67 19.01 -6.34 18.02 -6 17 C-7.32 16.34 -8.64 15.68 -10 15 C-9.34 14.01 -8.68 13.02 -8 12 C-7.01 13.485 -7.01 13.485 -6 15 C-4.84607545 12.6921509 -4.46562834 10.52769669 -4 8 C-3.01 8.33 -2.02 8.66 -1 9 C-0.67 6.03 -0.34 3.06 0 0 Z " fill="#189AC5" transform="translate(348,242)"/>
<path d="M0 0 C1.41623216 -0.05447047 2.83308191 -0.09300508 4.25 -0.125 C5.03890625 -0.14820313 5.8278125 -0.17140625 6.640625 -0.1953125 C9.26966951 0.02232364 10.81048189 0.53709188 13 2 C14 5 14 5 13 8 C11.86111328 7.7834375 11.86111328 7.7834375 10.69921875 7.5625 C9.70535156 7.376875 8.71148437 7.19125 7.6875 7 C6.70136719 6.814375 5.71523438 6.62875 4.69921875 6.4375 C1.96218195 5.92000204 1.96218195 5.92000204 -1 6 C-0.67 4.02 -0.34 2.04 0 0 Z " fill="#19A2DA" transform="translate(331,307)"/>
<path d="M0 0 C2.86724686 0.57344937 3.8614515 0.8614515 6 3 C6.1953125 5.1640625 6.1953125 5.1640625 6.125 7.625 C6.10695313 8.44226563 6.08890625 9.25953125 6.0703125 10.1015625 C6.03550781 11.04128906 6.03550781 11.04128906 6 12 C7.28583984 11.94779297 7.28583984 11.94779297 8.59765625 11.89453125 C15.24016504 11.73726779 20.15270423 11.75150235 26 15 C26.66 15.33 27.32 15.66 28 16 C28 16.66 28 17.32 28 18 C22.25 16.125 22.25 16.125 20 15 C17.45384991 14.76827173 14.92603775 14.58105471 12.375 14.4375 C11.66859375 14.39431641 10.9621875 14.35113281 10.234375 14.30664062 C8.48981463 14.20055249 6.74493303 14.09977111 5 14 C4.79890625 12.87658203 4.79890625 12.87658203 4.59375 11.73046875 C3.68796453 7.56504742 1.90073043 3.80146085 0 0 Z " fill="#377DAF" transform="translate(303,207)"/>
<path d="M0 0 C2.49388574 4.98777148 1.88836125 6.66983248 1 12 C0.05640625 12.14695313 0.05640625 12.14695313 -0.90625 12.296875 C-8.81957287 13.67932297 -15.20343293 15.35428702 -20.375 21.8125 C-22.87763138 25.43723512 -24.1053018 28.70544864 -25 33 C-25.33 33 -25.66 33 -26 33 C-25.97116619 26.77189786 -24.82789122 22.53671039 -20.7890625 17.72265625 C-14.98493857 12.13396924 -7.73644972 11.08082754 0 10 C0 6.7 0 3.4 0 0 Z " fill="#6838BB" transform="translate(187,208)"/>
<path d="M0 0 C0.66 0.33 1.32 0.66 2 1 C2.59355614 3.64860427 2.74209269 6.29197322 3 9 C1.4375 10.5625 1.4375 10.5625 -1 12 C-4.6875 11.8125 -4.6875 11.8125 -8 11 C-9.52150158 7.95699684 -9.23899393 5.345915 -9 2 C-5.54337669 -0.30441554 -4.05142119 -0.25860135 0 0 Z M-7 3 C-7.16687448 5.41645782 -7.16687448 5.41645782 -7 8 C-6.34 8.66 -5.68 9.32 -5 10 C-2.39719432 9.67958603 -2.39719432 9.67958603 0 9 C0.69159401 7.15274948 0.69159401 7.15274948 1 5 C0.34 4.01 -0.32 3.02 -1 2 C-4.7763932 1.7018576 -4.7763932 1.7018576 -7 3 Z " fill="#4B4FB8" transform="translate(237,347)"/>
<path d="M0 0 C4.78373993 1.6401394 8.70723897 3.78383824 11.3125 8.25 C11.539375 8.8275 11.76625 9.405 12 10 C8.12331765 11.29222745 6.37094106 10.64738884 2.75 8.9375 C2.1725 8.628125 1.595 8.31875 1 8 C1.33 6.68 1.66 5.36 2 4 C1.01 3.67 0.02 3.34 -1 3 C-0.67 2.01 -0.34 1.02 0 0 Z M1 1 C2 3 2 3 2 3 Z " fill="#2B93DB" transform="translate(309,308)"/>
<path d="M0 0 C2.97 0.495 2.97 0.495 6 1 C6.67464772 3.96844996 7.14843292 6.31349776 6.5 9.3125 C5 11 5 11 1.5625 11.9375 C-2 12 -2 12 -3.9375 11 C-5.52633023 8.00926074 -5.18792343 5.31998061 -5 2 C-3.35 2 -1.7 2 0 2 C0 1.34 0 0.68 0 0 Z M-3 4 C-2.67 5.65 -2.34 7.3 -2 9 C1.04913228 10.01111093 1.04913228 10.01111093 4 9 C4 7.02 4 5.04 4 3 C0.51418144 1.7979936 0.32007656 1.78661563 -3 4 Z " fill="#4560B3" transform="translate(270,333)"/>
<path d="M0 0 C1.45880109 0.14107747 2.91703551 0.28802415 4.375 0.4375 C5.59316406 0.55931641 5.59316406 0.55931641 6.8359375 0.68359375 C9 1 9 1 11 2 C11 2.99 11 3.98 11 5 C11.66 5.33 12.32 5.66 13 6 C13 6.66 13 7.32 13 8 C13.66 8.33 14.32 8.66 15 9 C14.67 9.99 14.34 10.98 14 12 C11.56070254 10.07423885 9.19909405 8.19909405 7 6 C4.68234271 5.28072705 2.34904126 4.6090107 0 4 C0 2.68 0 1.36 0 0 Z " fill="#3F83E2" transform="translate(275,189)"/>
<path d="M0 0 C13.28173606 -0.57012222 23.78900803 1.57426916 35 9 C35.495 9.99 35.495 9.99 36 11 C33.53119884 10.5428146 31.87739323 9.92373943 29.7265625 8.5859375 C20.80662838 3.39755175 10.08558713 2.14918234 0 1 C0 0.67 0 0.34 0 0 Z " fill="#5256B1" transform="translate(219,169)"/>
<path d="M0 0 C-2.33214148 1.20628008 -4.49642139 2.1654738 -7 3 C-7.33 2.34 -7.66 1.68 -8 1 C-9.65 1.33 -11.3 1.66 -13 2 C-13 2.66 -13 3.32 -13 4 C-11.35 4 -9.7 4 -8 4 C-8 4.33 -8 4.66 -8 5 C-11.63 5 -15.26 5 -19 5 C-19 3.35 -19 1.7 -19 0 C-12.94932758 -1.76070375 -6.07663119 -1.62043498 0 0 Z " fill="#2592D5" transform="translate(328,214)"/>
<path d="M0 0 C0 0.66 0 1.32 0 2 C-2.64 2.66 -5.28 3.32 -8 4 C-8 4.66 -8 5.32 -8 6 C-8.65355469 6.4228125 -9.30710938 6.845625 -9.98046875 7.28125 C-12.26201687 8.84777923 -12.26201687 8.84777923 -12.42578125 11.59375 C-12.38839844 12.5528125 -12.35101563 13.511875 -12.3125 14.5 C-12.28800781 15.4590625 -12.26351562 16.418125 -12.23828125 17.40625 C-12.0890629 20.11300139 -12.0890629 20.11300139 -11 23 C-8.99983534 24.20882096 -8.99983534 24.20882096 -7 25 C-8.32 25 -9.64 25 -11 25 C-14.05121536 21.6945167 -15.29034731 18.92516923 -15.5 14.5 C-15.25739808 9.98912059 -14.13316518 7.36815257 -11 4 C-7.39312745 1.67041029 -4.33712226 0 0 0 Z " fill="#7A3FBD" transform="translate(167,309)"/>
<path d="M0 0 C3.375 0.5625 3.375 0.5625 7 2 C8.4375 5.625 8.4375 5.625 9 9 C7.9375 10.5 7.9375 10.5 6 12 C2.5333811 12.37142345 0.08762598 12.61178961 -3 10.875 C-4.5459806 7.97628638 -3.89832014 6.07995476 -3 3 C-1.4375 1.125 -1.4375 1.125 0 0 Z M-0.75 3.25 C-2.24915434 4.93420967 -2.24915434 4.93420967 -1.75 7.125 C-1.15045529 8.98085115 -1.15045529 8.98085115 0 10 C1.66617115 10.04063832 3.33388095 10.042721 5 10 C5.66 8.35 6.32 6.7 7 5 C5.68798827 3.43750191 5.68798827 3.43750191 4 2 C1.04843652 1.7093809 1.04843652 1.7093809 -0.75 3.25 Z " fill="#7430C4" transform="translate(163,317)"/>
<path d="M0 0 C1.65 0.33 3.3 0.66 5 1 C4.125 5.75 4.125 5.75 3 8 C2.34 8 1.68 8 1 8 C1 8.66 1 9.32 1 10 C-0.32 10.33 -1.64 10.66 -3 11 C-3 10.34 -3 9.68 -3 9 C-3.66 8.67 -4.32 8.34 -5 8 C-3.35 5.36 -1.7 2.72 0 0 Z " fill="#169FD3" transform="translate(337,258)"/>
<path d="M0 0 C1.76923828 0.01353516 1.76923828 0.01353516 3.57421875 0.02734375 C4.47785156 0.03894531 5.38148438 0.05054688 6.3125 0.0625 C6.3125 0.3925 6.3125 0.7225 6.3125 1.0625 C4.3325 1.0625 2.3525 1.0625 0.3125 1.0625 C0.3125 2.3825 0.3125 3.7025 0.3125 5.0625 C-1.30921239 5.45147161 -2.93504925 5.82328298 -4.5625 6.1875 C-5.46742188 6.39632812 -6.37234375 6.60515625 -7.3046875 6.8203125 C-8.09101563 6.90023437 -8.87734375 6.98015625 -9.6875 7.0625 C-10.3475 6.4025 -11.0075 5.7425 -11.6875 5.0625 C-10.6975 5.0625 -9.7075 5.0625 -8.6875 5.0625 C-9.0175 3.7425 -9.3475 2.4225 -9.6875 1.0625 C-6.26517028 -0.07827657 -3.60076783 -0.03565117 0 0 Z " fill="#4779E0" transform="translate(274.6875,187.9375)"/>
<path d="M0 0 C7.01498794 5.73416149 12.06049936 11.25967629 15 20 C15 21.32 15 22.64 15 24 C14.34 24 13.68 24 13 24 C12.82984375 23.41992188 12.6596875 22.83984375 12.484375 22.2421875 C10.91053764 17.16907347 9.05721536 13.32226999 6 9 C6 8.34 6 7.68 6 7 C5.4225 6.7525 4.845 6.505 4.25 6.25 C1.6997003 4.83316683 -0.01785701 3.12372463 -2 1 C-1.34 0.67 -0.68 0.34 0 0 Z " fill="#1F89B1" transform="translate(334,216)"/>
<path d="M0 0 C3.3 0.99 6.6 1.98 10 3 C9.67 4.65 9.34 6.3 9 8 C9.66 8.33 10.32 8.66 11 9 C6.80530429 8.40075776 2.99000166 7.42500059 -1 6 C-0.01 5.34 0.98 4.68 2 4 C0.68 3.34 -0.64 2.68 -2 2 C-1.34 2 -0.68 2 0 2 C0 1.34 0 0.68 0 0 Z " fill="#5F65E9" transform="translate(232,171)"/>
<path d="M0 0 C3.33388318 0.16951948 4.94441987 0.43192871 7.6875 2.1875 C3.16692904 3.32452786 -1.26589783 3.31564634 -5.89453125 3.28515625 C-7.11579964 3.28303383 -7.11579964 3.28303383 -8.36174011 3.28086853 C-10.94953156 3.27529317 -13.53723492 3.26274524 -16.125 3.25 C-17.88476437 3.24498181 -19.64453011 3.24041946 -21.40429688 3.23632812 C-25.70706494 3.22533181 -30.00976756 3.20808421 -34.3125 3.1875 C-34.3125 2.8575 -34.3125 2.5275 -34.3125 2.1875 C-33.40894775 2.16244385 -32.50539551 2.1373877 -31.57446289 2.11157227 C-28.2328572 2.01662683 -24.89143748 1.91738379 -21.55004883 1.81518555 C-20.1018576 1.7717837 -18.65361346 1.73011256 -17.20532227 1.69018555 C-15.12760441 1.63260938 -13.05015427 1.56887972 -10.97265625 1.50390625 C-9.72105713 1.46724854 -8.46945801 1.43059082 -7.17993164 1.39282227 C-3.75993023 1.14793328 -3.56977584 0.20206278 0 0 Z " fill="#5B41DA" transform="translate(217.3125,267.8125)"/>
<path d="M0 0 C0 0.33 0 0.66 0 1 C-1.37285156 1.29003906 -1.37285156 1.29003906 -2.7734375 1.5859375 C-3.96195313 1.84632813 -5.15046875 2.10671875 -6.375 2.375 C-7.55835938 2.63023437 -8.74171875 2.88546875 -9.9609375 3.1484375 C-13.08196967 3.75523965 -13.08196967 3.75523965 -15 6 C-15.78375 6.12375 -16.5675 6.2475 -17.375 6.375 C-20.60838899 7.14485452 -21.85071239 8.53229941 -24 11 C-24.66 10.67 -25.32 10.34 -26 10 C-19.90452265 1.40566582 -10.14162965 -1.00967552 0 0 Z " fill="#5B47C0" transform="translate(223,170)"/>
<path d="M0 0 C0.99 0 1.98 0 3 0 C3 1.65 3 3.3 3 5 C5.475 5.99 5.475 5.99 8 7 C7.01 7.495 7.01 7.495 6 8 C6.33 8.99 6.66 9.98 7 11 C4.39376858 10.64780657 2.39210885 10.23526531 0.125 8.875 C-1.67626472 5.87289213 -0.68453372 3.29820792 0 0 Z " fill="#1E9CDA" transform="translate(327,318)"/>
<path d="M0 0 C1.98 0.66 3.96 1.32 6 2 C5.67 2.66 5.34 3.32 5 4 C5.47050781 4.54140625 5.94101562 5.0828125 6.42578125 5.640625 C8.26222671 8.39301472 8.68383854 10.49557207 9.1875 13.75 C9.34605469 14.73484375 9.50460937 15.7196875 9.66796875 16.734375 C9.77753906 17.48203125 9.88710938 18.2296875 10 19 C9.34 19.33 8.68 19.66 8 20 C7.81824219 19.33613281 7.63648438 18.67226562 7.44921875 17.98828125 C6.09303733 13.22425934 4.73960549 9.17463694 2 5 C2 4.34 2 3.68 2 3 C1.01 2.67 0.02 2.34 -1 2 C-0.67 1.34 -0.34 0.68 0 0 Z " fill="#268AB1" transform="translate(332,225)"/>
<path d="M0 0 C0 3.55659336 -0.46974174 3.92540518 -2.875 6.375 C-6.95177317 10.27741016 -11.60516924 13.26497905 -17 15 C-19.30078125 14.625 -19.30078125 14.625 -21 14 C-19.21046815 13.16209211 -17.41830305 12.32980604 -15.625 11.5 C-14.62726563 11.0359375 -13.62953125 10.571875 -12.6015625 10.09375 C-10 9 -10 9 -8 9 C-7.67 8.01 -7.34 7.02 -7 6 C-6.34 6 -5.68 6 -5 6 C-5 5.34 -5 4.68 -5 4 C-4.34 4 -3.68 4 -3 4 C-3 3.34 -3 2.68 -3 2 C-2.01 1.34 -1.02 0.68 0 0 Z " fill="#2D83A6" transform="translate(343,262)"/>
<path d="M0 0 C17.00455393 -0.78887106 17.00455393 -0.78887106 23.73046875 4.3125 C25.125 5.6875 25.125 5.6875 27 8 C23.545901 7.40908712 20.62900336 6.49354635 17.4375 5.0625 C11.76544825 2.70983902 6.0627727 1.79170228 0 1 C0 0.67 0 0.34 0 0 Z " fill="#4D4EBC" transform="translate(221,177)"/>
<path d="M0 0 C2.91843445 2.626591 4.94517315 5.66976339 7 9 C7 9.66 7 10.32 7 11 C7.99 11.33 8.98 11.66 10 12 C10 12.66 10 13.32 10 14 C10.5775 14.28875 11.155 14.5775 11.75 14.875 C14.875 16.4375 14.875 16.4375 18 18 C18 18.66 18 19.32 18 20 C10.835626 17.98501981 5.58260188 12.49776467 2 6.1875 C0 2.36513158 0 2.36513158 0 0 Z " fill="#6B33B3" transform="translate(154,255)"/>
<path d="M0 0 C4.10958767 1.45044271 7.43258745 3.51110752 11 6 C10.67 7.65 10.34 9.3 10 11 C8.68 10.67 7.36 10.34 6 10 C6 8.68 6 7.36 6 6 C4.68 5.34 3.36 4.68 2 4 C2 3.34 2 2.68 2 2 C1.01 1.67 0.02 1.34 -1 1 C-0.67 0.67 -0.34 0.34 0 0 Z " fill="#5672E3" transform="translate(244,175)"/>
<path d="M0 0 C0.33 0 0.66 0 1 0 C1.33 5.94 1.66 11.88 2 18 C1.34 18 0.68 18 0 18 C-2.16666667 18.83333333 -2.16666667 18.83333333 -3 21 C-3 19.02 -3 17.04 -3 15 C-2.01 14.67 -1.02 14.34 0 14 C-0.165 13.484375 -0.33 12.96875 -0.5 12.4375 C-1.38504441 8.12290849 -1.39291284 4.17873852 0 0 Z " fill="#2E89D3" transform="translate(307,286)"/>
<path d="M0 0 C0.66 0 1.32 0 2 0 C2 0.99 2 1.98 2 3 C2.99 3.33 3.98 3.66 5 4 C5.33 4.66 5.66 5.32 6 6 C8.78903037 7.61665035 11.69067346 8.63521788 14.75 9.625 C15.54921875 9.88539063 16.3484375 10.14578125 17.171875 10.4140625 C17.77515625 10.60742188 18.3784375 10.80078125 19 11 C18.01 11.66 17.02 12.32 16 13 C9.49445476 11.34604782 4.39044841 8.13775878 0 3 C0 2.01 0 1.02 0 0 Z " fill="#2D74B2" transform="translate(305,310)"/>
<path d="M0 0 C3.3 0 6.6 0 10 0 C10.33 0.99 10.66 1.98 11 3 C10.01 3.495 10.01 3.495 9 4 C8.67 4.99 8.34 5.98 8 7 C7.67 6.34 7.34 5.68 7 5 C4.6859378 4.26924352 2.35171131 3.59861742 0 3 C0 2.01 0 1.02 0 0 Z " fill="#3688E0" transform="translate(292,271)"/>
<path d="M0 0 C0.66 0 1.32 0 2 0 C2.66294065 6.62940649 -0.12904093 11.12160143 -3.625 16.5 C-4.07875 16.995 -4.5325 17.49 -5 18 C-5.66 18 -6.32 18 -7 18 C-5.83099972 14.88266593 -4.47306241 11.94827982 -2.9375 9 C-1.41590733 6.01337945 -0.41996883 3.35975066 0 0 Z " fill="#2086A7" transform="translate(339,246)"/>
<path d="M0 0 C3.63 0.33 7.26 0.66 11 1 C11 2.65 11 4.3 11 6 C6.71 6 2.42 6 -2 6 C2 4 2 4 5 4 C5 3.34 5 2.68 5 2 C3.35 2 1.7 2 0 2 C0 1.34 0 0.68 0 0 Z " fill="#7F47ED" transform="translate(182,270)"/>
<path d="M0 0 C0 0.33 0 0.66 0 1 C-0.81082031 1.03738281 -1.62164062 1.07476562 -2.45703125 1.11328125 C-9.99203557 1.56064472 -16.80868543 2.70857912 -24 5 C-24 4.34 -24 3.68 -24 3 C-16.14499565 -1.959935 -8.86173832 -1.0741501 0 0 Z " fill="#5E50B2" transform="translate(230,178)"/>
<path d="M0 0 C6.35714286 0.48901099 6.35714286 0.48901099 9.4375 2.9375 C11 5 11 5 11 7 C11.66 7 12.32 7 13 7 C13 7.66 13 8.32 13 9 C13.99 9.33 14.98 9.66 16 10 C14.68 10.33 13.36 10.66 12 11 C11.63648438 10.52949219 11.27296875 10.05898437 10.8984375 9.57421875 C7.63136132 5.52807056 4.93417419 2.99716574 0 1 C0 0.67 0 0.34 0 0 Z " fill="#3B68A6" transform="translate(279,196)"/>
<path d="M0 0 C3.14008843 -0.47101326 5.25139003 -0.50361035 7.93359375 1.30078125 C9.27804537 2.39888111 10.62178708 3.49785069 11.96484375 4.59765625 C14.98641971 6.67970187 17.38019488 6.84917479 21 7 C21 7.66 21 8.32 21 9 C15.22545684 8.69607668 12.18235383 7.79547569 7.67578125 4.2109375 C5.30720093 2.49937596 2.7998222 1.75117181 0 1 C0 0.67 0 0.34 0 0 Z " fill="#3B6EB1" transform="translate(281,189)"/>
<path d="M0 0 C1.485 0.99 1.485 0.99 3 2 C3 2.66 3 3.32 3 4 C9.03378363 6.51407651 12.42967534 7.13717158 19 6 C18.67 6.66 18.34 7.32 18 8 C12.99504447 9.33842502 9.1323753 9.58640864 4.5 7.1875 C2.95797959 5.83823214 1.44885311 4.44885311 0 3 C0 2.01 0 1.02 0 0 Z " fill="#237DAA" transform="translate(324,323)"/>
<path d="M0 0 C1.8125 2 1.8125 2 3 4 C-0.9813783 5.3271261 -4.85045227 5.06915913 -9 5 C-8.34 4.67 -7.68 4.34 -7 4 C-7 3.01 -7 2.02 -7 1 C-4.4254716 -0.2872642 -2.85291355 -0.34791629 0 0 Z " fill="#6660F0" transform="translate(232,172)"/>
<path d="M0 0 C0.66 0.33 1.32 0.66 2 1 C-3.96774194 8.25806452 -3.96774194 8.25806452 -6 10 C-6.66 10 -7.32 10 -8 10 C-8.66 11.65 -9.32 13.3 -10 15 C-10.66 15 -11.32 15 -12 15 C-9.87209933 8.42285246 -5.45517519 4.05241586 0 0 Z " fill="#6648B5" transform="translate(198,177)"/>
<path d="M0 0 C0.33 0 0.66 0 1 0 C1.4375 2.125 1.4375 2.125 1 5 C-1.80155762 8.37927995 -4.52784987 10.81206594 -8.9375 11.375 C-9.618125 11.25125 -10.29875 11.1275 -11 11 C-11 10.34 -11 9.68 -11 9 C-9.35 9 -7.7 9 -6 9 C-6 8.34 -6 7.68 -6 7 C-4.3545622 5.31237149 -2.68711423 3.6459651 -1 2 C-0.67 1.34 -0.34 0.68 0 0 Z " fill="#4C50AA" transform="translate(245,355)"/>
<path d="M0 0 C1.32 0 2.64 0 4 0 C4 1.65 4 3.3 4 5 C3.01 5.495 3.01 5.495 2 6 C2 6.33 2 6.66 2 7 C0.02 7 -1.96 7 -4 7 C-4.66 5.35 -5.32 3.7 -6 2 C-4.02 2.66 -2.04 3.32 0 4 C0 3.01 0 2.02 0 1 C0 0.67 0 0.34 0 0 Z " fill="#2C93E4" transform="translate(306,271)"/>
<path d="M0 0 C0.66 0.66 1.32 1.32 2 2 C1.67 2.66 1.34 3.32 1 4 C0.01 4.33 -0.98 4.66 -2 5 C-2 6.32 -2 7.64 -2 9 C-3.32 9.33 -4.64 9.66 -6 10 C-7 7 -7 7 -6.375 5 C-4.63619914 2.47083511 -2.68936682 1.41545622 0 0 Z " fill="#8E3CF8" transform="translate(172,215)"/>
<path d="M0 0 C4.64073925 0.28125692 7.14028602 2.45124187 10.546875 5.33203125 C12.18304197 7.21010463 12.59909978 8.56822368 13 11 C9.57300248 9.85766749 8.5304841 8.32967599 6.33984375 5.56640625 C4.47216279 3.38290752 2.2991781 1.70796088 0 0 Z " fill="#367AA8" transform="translate(302,197)"/>
<path d="M0 0 C2.97 0.495 2.97 0.495 6 1 C7.23076923 6.41538462 7.23076923 6.41538462 6.0625 9.375 C5.711875 9.91125 5.36125 10.4475 5 11 C4.34 10.67 3.68 10.34 3 10 C3.33 7.69 3.66 5.38 4 3 C2.68 2.67 1.36 2.34 0 2 C0 1.34 0 0.68 0 0 Z " fill="#3B65BD" transform="translate(270,333)"/>
<path d="M0 0 C0.33 0 0.66 0 1 0 C1.12117187 1.09699219 1.24234375 2.19398438 1.3671875 3.32421875 C1.53609363 4.77868823 1.70538481 6.23311304 1.875 7.6875 C1.95363281 8.40873047 2.03226563 9.12996094 2.11328125 9.87304688 C2.5896051 13.88515932 3.26300142 17.29975512 5 21 C2 20 2 20 0.25 17.25 C-1.97835334 11.74261896 -0.71614637 5.73779922 0 0 Z " fill="#8731E8" transform="translate(159,239)"/>
<path d="M0 0 C2.1519437 3.22791555 2.20086443 4.28400809 2 8 C2.99 8.33 3.98 8.66 5 9 C4.01 9.495 4.01 9.495 3 10 C3 12.97 3 15.94 3 19 C2.67 19 2.34 19 2 19 C0.67611771 12.56971459 -0.24794402 6.5705166 0 0 Z " fill="#13A1CA" transform="translate(345,232)"/>
<path d="M0 0 C0 3.16611388 -0.46280377 4.17751295 -1.9375 6.875 C-3.52462768 9.91465797 -4.57002529 12.56020233 -5 16 C-5.66 16 -6.32 16 -7 16 C-7.125 12.625 -7.125 12.625 -7 9 C-6.34 8.34 -5.68 7.68 -5 7 C-4.5359375 6.0409375 -4.5359375 6.0409375 -4.0625 5.0625 C-2.96378184 2.92969416 -1.76412816 1.60375287 0 0 Z " fill="#7942E9" transform="translate(193,192)"/>
<path d="M0 0 C0.6875 1.6875 0.6875 1.6875 1 4 C-0.1875 6.6875 -0.1875 6.6875 -2 9 C-4.1875 9.8125 -4.1875 9.8125 -6 10 C-5.75 7.625 -5.75 7.625 -5 5 C-3 3.875 -3 3.875 -1 3 C-0.67 2.01 -0.34 1.02 0 0 Z " fill="#5E6AF6" transform="translate(243,352)"/>
<path d="M0 0 C0.44730469 0.40992188 0.89460938 0.81984375 1.35546875 1.2421875 C4.73744485 4.25640074 7.579668 6.66050545 12 8 C12 8.99 12 9.98 12 11 C7.01767779 9.72545246 4.29731516 7.95677819 1 4 C0.36328125 1.8359375 0.36328125 1.8359375 0 0 Z " fill="#277AAE" transform="translate(311,304)"/>
<path d="M0 0 C0.99 0 1.98 0 3 0 C3.33 0.66 3.66 1.32 4 2 C4.99 2.33 5.98 2.66 7 3 C5.02 3.66 3.04 4.32 1 5 C1 5.66 1 6.32 1 7 C-0.32 6.67 -1.64 6.34 -3 6 C-3.33 4.68 -3.66 3.36 -4 2 C-2.68 2 -1.36 2 0 2 C0 1.34 0 0.68 0 0 Z " fill="#4079D9" transform="translate(276,272)"/>
<path d="M0 0 C0.33 0 0.66 0 1 0 C2.2982126 5.76081841 3.25706972 11.08739655 3 17 C2.34 17 1.68 17 1 17 C-0.13480527 13.39006828 -0.10015767 10.0157673 -0.0625 6.25 C-0.05347656 5.07953125 -0.04445312 3.9090625 -0.03515625 2.703125 C-0.02355469 1.81109375 -0.01195312 0.9190625 0 0 Z " fill="#783BC4" transform="translate(152,238)"/>
<path d="M0 0 C0.99 0.33 1.98 0.66 3 1 C2.814375 1.61875 2.62875 2.2375 2.4375 2.875 C1.76313824 5.04160178 1.76313824 5.04160178 3 7 C1.02 7.66 -0.96 8.32 -3 9 C-3 5 -3 5 -1.5 3.375 C-1.005 2.92125 -0.51 2.4675 0 2 C0 1.34 0 0.68 0 0 Z " fill="#843AE9" transform="translate(173,214)"/>
<path d="M0 0 C1.32 0.99 2.64 1.98 4 3 C3.01 3.66 2.02 4.32 1 5 C1 5.99 1 6.98 1 8 C-0.98 6.68 -2.96 5.36 -5 4 C-4.67 3.34 -4.34 2.68 -4 2 C-3.01 2 -2.02 2 -1 2 C-0.67 1.34 -0.34 0.68 0 0 Z " fill="#883CEB" transform="translate(171,266)"/>
<path d="M0 0 C0.33 0.66 0.66 1.32 1 2 C0.5875 2.680625 0.175 3.36125 -0.25 4.0625 C-2.51035956 7.85667498 -3.70846262 11.79563364 -5 16 C-5.66 15.34 -6.32 14.68 -7 14 C-6.40362909 12.41371392 -5.79754075 10.83107941 -5.1875 9.25 C-4.68283203 7.92742187 -4.68283203 7.92742187 -4.16796875 6.578125 C-3.03153178 4.06960192 -1.73457073 2.12720995 0 0 Z " fill="#6F30BF" transform="translate(159,223)"/>
<path d="M0 0 C1.64846769 0.44876616 3.29373455 0.90930488 4.9375 1.375 C5.85402344 1.63023437 6.77054687 1.88546875 7.71484375 2.1484375 C10 3 10 3 11 5 C9.37581255 5.08090971 7.75048255 5.13914995 6.125 5.1875 C5.22007812 5.22230469 4.31515625 5.25710937 3.3828125 5.29296875 C2.20332031 5.14794922 2.20332031 5.14794922 1 5 C0.34 4.01 -0.32 3.02 -1 2 C-0.67 1.34 -0.34 0.68 0 0 Z " fill="#2E6FCB" transform="translate(294,202)"/>
<path d="M0 0 C0.66 0.66 1.32 1.32 2 2 C1.01 2.78375 0.02 3.5675 -1 4.375 C-2.485 5.674375 -2.485 5.674375 -4 7 C-4 7.66 -4 8.32 -4 9 C-4.66 9 -5.32 9 -6 9 C-6.33 9.66 -6.66 10.32 -7 11 C-6.85969405 7.98342209 -6.70648535 5.76158727 -4.59765625 3.48828125 C-3.11095765 2.26743934 -1.55865102 1.12753478 0 0 Z " fill="#3D57AE" transform="translate(265,326)"/>
<path d="M0 0 C0.33 0.66 0.66 1.32 1 2 C1.99 2.33 2.98 2.66 4 3 C3.34 4.98 2.68 6.96 2 9 C1.34 9 0.68 9 0 9 C-0.87890625 2.84765625 -0.87890625 2.84765625 -1 1 C-0.67 0.67 -0.34 0.34 0 0 Z " fill="#15A9E0" transform="translate(343,316)"/>
<path d="M0 0 C1.32 0.33 2.64 0.66 4 1 C4 1.99 4 2.98 4 4 C0.61981469 5.04005702 -2.4780279 5.08004482 -6 5 C-6.33 4.01 -6.66 3.02 -7 2 C-4.37886292 2 -2.49064888 2.31292445 0 3 C0 2.01 0 1.02 0 0 Z " fill="#1C97D8" transform="translate(325,312)"/>
<path d="M0 0 C2.49005677 2.49005677 2.29703766 3.37470732 2.3125 6.8125 C2.2341905 10.97495096 1.81766823 13.74884435 -1 17 C-1.66 17 -2.32 17 -3 17 C-3 16.01 -3 15.02 -3 14 C-2.50886719 13.56042969 -2.01773437 13.12085938 -1.51171875 12.66796875 C0.66712553 10.26392093 0.29971288 8.49186496 0.1875 5.3125 C0.16042969 4.31863281 0.13335937 3.32476562 0.10546875 2.30078125 C0.05326172 1.16189453 0.05326172 1.16189453 0 0 Z " fill="#29879C" transform="translate(347,311)"/>
<path d="M0 0 C0 0.99 0 1.98 0 3 C-2.33333333 3 -4.66666667 3 -7 3 C-7.99 3.495 -7.99 3.495 -9 4 C-9.33 2.68 -9.66 1.36 -10 0 C-6.30581799 -1.231394 -3.7943739 -0.64432764 0 0 Z " fill="#3B89E3" transform="translate(301,201)"/>
<path d="M0 0 C-0.33 1.65 -0.66 3.3 -1 5 C-2.65 5.33 -4.3 5.66 -6 6 C-6.33 4.35 -6.66 2.7 -7 1 C-4.50935112 0.31292445 -2.62113708 0 0 0 Z " fill="#4F77EF" transform="translate(266,190)"/>
<path d="M0 0 C0.66 0.33 1.32 0.66 2 1 C1.67 1.66 1.34 2.32 1 3 C-1.64 3 -4.28 3 -7 3 C-7 4.65 -7 6.3 -7 8 C-7.33 8 -7.66 8 -8 8 C-8.33 6.02 -8.66 4.04 -9 2 C-5.54337669 -0.30441554 -4.05142119 -0.25860135 0 0 Z " fill="#5451C0" transform="translate(237,347)"/>
<path d="M0 0 C2.31 0.66 4.62 1.32 7 2 C7.33 3.65 7.66 5.3 8 7 C7.1646875 6.01 7.1646875 6.01 6.3125 5 C4.15937692 2.74507789 4.15937692 2.74507789 1.25 2.75 C0.13625 2.87375 0.13625 2.87375 -1 3 C-1 3.66 -1 4.32 -1 5 C-1.66 5 -2.32 5 -3 5 C-1.125 1.125 -1.125 1.125 0 0 Z " fill="#6A29C7" transform="translate(163,317)"/>
<path d="M0 0 C0.66 0 1.32 0 2 0 C2.21192221 5.19209404 1.5912689 9.126739 0 14 C-0.66 13.67 -1.32 13.34 -2 13 C-1.34 8.71 -0.68 4.42 0 0 Z " fill="#1B84A1" transform="translate(348,242)"/>
<path d="M0 0 C1.32 0 2.64 0 4 0 C4 0.99 4 1.98 4 3 C3.34 3 2.68 3 2 3 C1.67 4.32 1.34 5.64 1 7 C0.34 7 -0.32 7 -1 7 C-1 6.34 -1 5.68 -1 5 C-1.66 4.67 -2.32 4.34 -3 4 C-1.75 2 -1.75 2 0 0 Z " fill="#1DA5DE" transform="translate(335,262)"/>
<path d="M0 0 C1.65 0.33 3.3 0.66 5 1 C5.33 1.99 5.66 2.98 6 4 C3.50935112 4.68707555 1.62113708 5 -1 5 C-1 2 -1 2 0 0 Z " fill="#3091E7" transform="translate(303,200)"/>
<path d="M0 0 C2.912575 0.08566397 4.56798024 0.57910955 6.66796875 2.625 C8.16091772 4.38391375 9.60436262 6.16313019 11 8 C7.24026115 8 6.54322371 7.03457593 3.8125 4.5625 C3.09707031 3.92441406 2.38164062 3.28632813 1.64453125 2.62890625 C1.10183594 2.09136719 0.55914062 1.55382812 0 1 C0 0.67 0 0.34 0 0 Z " fill="#4B5BB0" transform="translate(246,185)"/>
<path d="M0 0 C0.33 0 0.66 0 1 0 C1.05416188 1.60379341 1.09286638 3.20811406 1.125 4.8125 C1.14820313 5.70582031 1.17140625 6.59914063 1.1953125 7.51953125 C1 10 1 10 -1 13 C-2.32 12.67 -3.64 12.34 -5 12 C-4.52949219 11.60167969 -4.05898438 11.20335937 -3.57421875 10.79296875 C-1.68239447 8.6382607 -1.33939211 7.10908118 -0.8125 4.3125 C-0.65394531 3.50425781 -0.49539063 2.69601562 -0.33203125 1.86328125 C-0.22246094 1.24839844 -0.11289062 0.63351562 0 0 Z " fill="#3864B3" transform="translate(282,336)"/>
<path d="M0 0 C0.33 0 0.66 0 1 0 C1.06058594 0.61488281 1.12117187 1.22976563 1.18359375 1.86328125 C1.26738281 2.67152344 1.35117188 3.47976563 1.4375 4.3125 C1.51871094 5.11300781 1.59992188 5.91351563 1.68359375 6.73828125 C1.95265693 9.16087179 1.95265693 9.16087179 3 12 C5.00016466 13.20882096 5.00016466 13.20882096 7 14 C3 14 3 14 1.26171875 12.328125 C-0.2360495 9.56444117 -0.31065988 7.87005042 -0.1875 4.75 C-0.16042969 3.85796875 -0.13335937 2.9659375 -0.10546875 2.046875 C-0.07066406 1.37140625 -0.03585938 0.6959375 0 0 Z " fill="#6424C1" transform="translate(153,320)"/>
<path d="M0 0 C-0.1875 2.375 -0.1875 2.375 -1 5 C-3.5625 6.3125 -3.5625 6.3125 -6 7 C-6.33 6.34 -6.66 5.68 -7 5 C-2.25 0 -2.25 0 0 0 Z " fill="#1BA3DC" transform="translate(342,322)"/>
<path d="M0 0 C0.66 0 1.32 0 2 0 C1.33989524 2.84550012 0.48275034 5.52325999 -0.5625 8.25 C-0.83191406 8.95640625 -1.10132813 9.6628125 -1.37890625 10.390625 C-1.68634766 11.18726563 -1.68634766 11.18726563 -2 12 C-2.33 12 -2.66 12 -3 12 C-2.88541307 10.56163249 -2.75790884 9.12429034 -2.625 7.6875 C-2.55539063 6.88699219 -2.48578125 6.08648437 -2.4140625 5.26171875 C-2 3 -2 3 0 0 Z " fill="#6A3EC5" transform="translate(185,192)"/>
<path d="M0 0 C2.64 0.33 5.28 0.66 8 1 C6.68 2.32 5.36 3.64 4 5 C3.34 4.67 2.68 4.34 2 4 C1.34 4.66 0.68 5.32 0 6 C0 4.02 0 2.04 0 0 Z " fill="#794FF7" transform="translate(195,182)"/>
<path d="M0 0 C3.82097239 0.53069061 6.06171403 1.49701566 9 4 C8.67 4.99 8.34 5.98 8 7 C7.608125 6.54625 7.21625 6.0925 6.8125 5.625 C4.69167513 3.72357081 2.66957765 2.93795972 0 2 C0 1.34 0 0.68 0 0 Z " fill="#2786A1" transform="translate(338,305)"/>
<path d="M0 0 C0.33 0 0.66 0 1 0 C1.04898438 0.60328125 1.09796875 1.2065625 1.1484375 1.828125 C1.22320312 2.62734375 1.29796875 3.4265625 1.375 4.25 C1.44460937 5.03890625 1.51421875 5.8278125 1.5859375 6.640625 C2.01507113 9.085877 2.78600638 10.84836903 4 13 C3.01 13.495 3.01 13.495 2 14 C-0.28062828 10.57905758 -0.21925007 9.31812778 -0.125 5.3125 C-0.10695312 4.31863281 -0.08890625 3.32476562 -0.0703125 2.30078125 C-0.04710937 1.54152344 -0.02390625 0.78226562 0 0 Z " fill="#8830F1" transform="translate(154,318)"/>
<path d="M0 0 C1.70884005 1.62339805 3.37446717 3.29319053 5 5 C5 5.66 5 6.32 5 7 C4.34 7 3.68 7 3 7 C3 6.34 3 5.68 3 5 C1.35 5 -0.3 5 -2 5 C-1.34 3.35 -0.68 1.7 0 0 Z " fill="#4F58C1" transform="translate(237,337)"/>
<path d="M0 0 C2.475 0.495 2.475 0.495 5 1 C5 1.99 5 2.98 5 4 C4.01 4.495 4.01 4.495 3 5 C1.5 3.625 1.5 3.625 0 2 C0 1.34 0 0.68 0 0 Z " fill="#328BD5" transform="translate(302,271)"/>
<path d="M0 0 C1.98 0.66 3.96 1.32 6 2 C5.67 2.66 5.34 3.32 5 4 C5.33 4.99 5.66 5.98 6 7 C4.68 6.34 3.36 5.68 2 5 C2 4.34 2 3.68 2 3 C1.01 2.67 0.02 2.34 -1 2 C-0.67 1.34 -0.34 0.68 0 0 Z " fill="#1B90AF" transform="translate(332,225)"/>
<path d="M0 0 C0.66 0 1.32 0 2 0 C2.66 2.31 3.32 4.62 4 7 C3.01 7.495 3.01 7.495 2 8 C0.74335022 5.09399739 0 3.20395416 0 0 Z " fill="#3271A9" transform="translate(301,302)"/>
<path d="M0 0 C1.32 0 2.64 0 4 0 C4 0.66 4 1.32 4 2 C5.32 2.33 6.64 2.66 8 3 C5.03 3 2.06 3 -1 3 C-0.67 2.01 -0.34 1.02 0 0 Z " fill="#8648FA" transform="translate(183,272)"/>
<path d="M0 0 C2.92879371 0.62759865 5.36095629 1.58622659 8 3 C8 3.66 8 4.32 8 5 C2.25 3.125 2.25 3.125 0 2 C0 1.34 0 0.68 0 0 Z " fill="#2580AB" transform="translate(323,220)"/>
<path d="M0 0 C2.31 0.33 4.62 0.66 7 1 C7.33 2.32 7.66 3.64 8 5 C5.36 3.68 2.72 2.36 0 1 C0 0.67 0 0.34 0 0 Z " fill="#4C70AD" transform="translate(279,196)"/>
<path d="M0 0 C2.91517292 1.07401108 4.77810176 1.77810176 7 4 C5.68 4.33 4.36 4.66 3 5 C2.67 4.01 2.34 3.02 2 2 C1.01 1.67 0.02 1.34 -1 1 C-0.67 0.67 -0.34 0.34 0 0 Z " fill="#5268D7" transform="translate(244,175)"/>
</svg>
