<?xml version="1.0" encoding="UTF-8"?>
<svg version="1.1" xmlns="http://www.w3.org/2000/svg" width="500" height="500">
<path d="M0 0 C165 0 330 0 500 0 C500 165 500 330 500 500 C335 500 170 500 0 500 C0 335 0 170 0 0 Z " fill="#FEFEFE" transform="translate(0,0)"/>
<path d="M0 0 C1.87085069 1.50609363 3.38438223 2.9132298 4.85546875 4.8125 C6.33821464 6.69093468 7.40000219 7.89050952 9.5 9.0625 C12.82482178 9.15510114 15.95459269 8.79491986 19.25390625 8.38671875 C27.84552532 7.52859073 33.85065514 10.88922535 40.5 16.0625 C41.49 17.0525 41.49 17.0525 42.5 18.0625 C44.50423605 18.37454552 44.50423605 18.37454552 46.75 18.4375 C52.71991989 19.00196358 56.34594852 21.61532202 60.3125 26 C62.38722488 28.90461484 63.19117173 30.56244626 63.5 34.0625 C64.61375 33.98 65.7275 33.8975 66.875 33.8125 C74.92997516 33.85519421 81.88113613 37.49941155 87.67578125 42.9296875 C94.38160333 50.76989918 96.89653668 58.72558817 96.7734375 68.83203125 C95.99282704 78.05438627 92.07339853 84.74423338 85.5 91.0625 C84.736875 91.805 83.97375 92.5475 83.1875 93.3125 C74.4888186 98.97675765 66.75618704 99.59452123 56.5 99.0625 C56.55234536 102.73028538 56.64752842 106.3957997 56.75 110.0625 C56.76417969 111.09246094 56.77835938 112.12242187 56.79296875 113.18359375 C57.02681774 120.52645219 58.00414118 126.52153333 63.31640625 131.90234375 C63.89261719 132.26457031 64.46882812 132.62679687 65.0625 133 C65.64128906 133.38027344 66.22007812 133.76054687 66.81640625 134.15234375 C68.66102554 135.21227253 68.66102554 135.21227253 71.5 136.0625 C71.87125 134.9178125 71.87125 134.9178125 72.25 133.75 C73.70709398 130.61724795 74.43151551 129.63608179 77.5 128.0625 C82.2881694 126.79477515 85.40418813 126.49430125 89.875 128.8125 C94.29247414 132.5989064 96.24168651 134.32437706 96.8125 140.375 C96.36350502 145.67314075 94.29911289 148.52040324 90.3125 151.9375 C86.29749947 153.54350021 82.76411006 153.7369638 78.5 153.0625 C75 151.375 75 151.375 72.5 149.0625 C71.625 146.3125 71.625 146.3125 71.5 144.0625 C70.30375 143.98 69.1075 143.8975 67.875 143.8125 C61.30198128 142.95615601 56.93600901 139.17757788 52.91088867 134.1105957 C47.96813637 126.93552232 48.11656542 118.90091186 48.3125 110.5 C48.374375 106.725625 48.43625 102.95125 48.5 99.0625 C39.92 99.0625 31.34 99.0625 22.5 99.0625 C22.5 115.5625 22.5 132.0625 22.5 149.0625 C24.15 149.7225 25.8 150.3825 27.5 151.0625 C30.95352461 154.87328577 30.95658393 158.77475055 30.78125 163.69140625 C30.40143151 166.89348709 29.67582683 168.66909048 27.5 171.0625 C23.58670686 173.7016977 20.1139967 174.65764547 15.4609375 174.48828125 C10.79007273 173.4740895 8.06198204 169.90547307 5.5 166.0625 C4.73231884 161.3760743 5.09114915 157.86559989 7.25 153.625 C9.5 151.0625 9.5 151.0625 13.5 149.0625 C13.5 132.8925 13.5 116.7225 13.5 100.0625 C4.26 100.0625 -4.98 100.0625 -14.5 100.0625 C-14.5 120.8525 -14.5 141.6425 -14.5 163.0625 C-12.85 163.7225 -11.2 164.3825 -9.5 165.0625 C-6.74071695 168.26923436 -5.60013324 170.36156735 -5 174.5625 C-5.7516973 179.82438108 -8.16697611 182.65541923 -11.75 186.4375 C-15.36612132 188.57429896 -18.45230632 188.84822877 -22.5 188.0625 C-26.85944153 185.84165243 -29.66830464 183.64173841 -31.5 179.0625 C-32.26273321 174.97147643 -32.3906111 171.59446312 -30.2578125 167.92578125 C-28.75655694 166.08468924 -27.39540137 164.49673315 -25.5 163.0625 C-24.51 163.0625 -23.52 163.0625 -22.5 163.0625 C-22.5 141.9425 -22.5 120.8225 -22.5 99.0625 C-32.07 99.0625 -41.64 99.0625 -51.5 99.0625 C-51.3427692 108.15650616 -51.3427692 108.15650616 -51.13964844 117.24951172 C-51.05622504 126.87414996 -52.14405782 134.62776974 -58.75 141.9375 C-62.70784211 145.54637109 -67.3043233 148.42928258 -72.609375 149.48046875 C-75.77743744 150.4557607 -76.79091651 153.36104545 -78.5 156.0625 C-82.9575575 159.034205 -87.27413182 158.81544249 -92.5 158.0625 C-95.67568542 156.41016078 -97.87696485 154.30857029 -99.5 151.0625 C-100.53037808 142.05405166 -100.53037808 142.05405166 -98.453125 138.0390625 C-96.07228399 135.16804834 -94.07891407 133.23572618 -90.328125 132.82421875 C-84.55500578 132.65802289 -80.94902757 132.95570532 -76.5 137.0625 C-75.84765625 139.203125 -75.84765625 139.203125 -75.5 141.0625 C-68.55600051 138.18683609 -64.49684619 136.09857367 -61.5 129.0625 C-60.42044788 125.82384365 -60.29558259 123.27094162 -60.18359375 119.86328125 C-60.12075195 118.05053711 -60.12075195 118.05053711 -60.05664062 116.20117188 C-60.01732422 114.93853516 -59.97800781 113.67589844 -59.9375 112.375 C-59.87272461 110.46364258 -59.87272461 110.46364258 -59.80664062 108.51367188 C-59.7004514 105.36339148 -59.59840467 102.21303161 -59.5 99.0625 C-60.46679688 99.10890625 -61.43359375 99.1553125 -62.4296875 99.203125 C-73.09636083 99.49883476 -80.72422297 98.36046175 -89.25 91.5625 C-95.98644539 85.04142941 -99.68676789 77.9553144 -100.05664062 68.56054688 C-100.08685009 56.97018358 -97.91627942 50.77849534 -89.90234375 42.3359375 C-84.55082536 37.27157376 -79.89015909 34.52438494 -72.5 34.0625 C-72.603125 33.155 -72.70625 32.2475 -72.8125 31.3125 C-72.79455665 22.44848673 -67.13157355 12.66758407 -61.5 6.0625 C-44.71824401 -9.99214351 -19.56766515 -13.99272659 0 0 Z " fill="#FDFEFE" transform="translate(252.5,177.9375)"/>
<path d="M0 0 C1.87085069 1.50609363 3.38438223 2.9132298 4.85546875 4.8125 C6.33821464 6.69093468 7.40000219 7.89050952 9.5 9.0625 C12.82482178 9.15510114 15.95459269 8.79491986 19.25390625 8.38671875 C27.84552532 7.52859073 33.85065514 10.88922535 40.5 16.0625 C41.49 17.0525 41.49 17.0525 42.5 18.0625 C44.50423605 18.37454552 44.50423605 18.37454552 46.75 18.4375 C52.71991989 19.00196358 56.34594852 21.61532202 60.3125 26 C62.38722488 28.90461484 63.19117173 30.56244626 63.5 34.0625 C64.61375 33.98 65.7275 33.8975 66.875 33.8125 C74.92997516 33.85519421 81.88113613 37.49941155 87.67578125 42.9296875 C94.38160333 50.76989918 96.89653668 58.72558817 96.7734375 68.83203125 C95.99282704 78.05438627 92.07339853 84.74423338 85.5 91.0625 C84.736875 91.805 83.97375 92.5475 83.1875 93.3125 C74.4888186 98.97675765 66.75618704 99.59452123 56.5 99.0625 C56.55234536 102.73028538 56.64752842 106.3957997 56.75 110.0625 C56.76417969 111.09246094 56.77835938 112.12242187 56.79296875 113.18359375 C57.02681774 120.52645219 58.00414118 126.52153333 63.31640625 131.90234375 C63.89261719 132.26457031 64.46882812 132.62679687 65.0625 133 C65.64128906 133.38027344 66.22007812 133.76054687 66.81640625 134.15234375 C68.66102554 135.21227253 68.66102554 135.21227253 71.5 136.0625 C71.87125 134.9178125 71.87125 134.9178125 72.25 133.75 C73.70709398 130.61724795 74.43151551 129.63608179 77.5 128.0625 C82.2881694 126.79477515 85.40418813 126.49430125 89.875 128.8125 C94.29247414 132.5989064 96.24168651 134.32437706 96.8125 140.375 C96.36350502 145.67314075 94.29911289 148.52040324 90.3125 151.9375 C86.29749947 153.54350021 82.76411006 153.7369638 78.5 153.0625 C75 151.375 75 151.375 72.5 149.0625 C71.625 146.3125 71.625 146.3125 71.5 144.0625 C70.30375 143.98 69.1075 143.8975 67.875 143.8125 C61.30198128 142.95615601 56.93600901 139.17757788 52.91088867 134.1105957 C47.96813637 126.93552232 48.11656542 118.90091186 48.3125 110.5 C48.374375 106.725625 48.43625 102.95125 48.5 99.0625 C39.92 99.0625 31.34 99.0625 22.5 99.0625 C22.5 115.5625 22.5 132.0625 22.5 149.0625 C24.15 149.7225 25.8 150.3825 27.5 151.0625 C30.95352461 154.87328577 30.95658393 158.77475055 30.78125 163.69140625 C30.40143151 166.89348709 29.67582683 168.66909048 27.5 171.0625 C23.58670686 173.7016977 20.1139967 174.65764547 15.4609375 174.48828125 C10.79007273 173.4740895 8.06198204 169.90547307 5.5 166.0625 C4.73231884 161.3760743 5.09114915 157.86559989 7.25 153.625 C9.5 151.0625 9.5 151.0625 13.5 149.0625 C13.5 132.8925 13.5 116.7225 13.5 100.0625 C4.26 100.0625 -4.98 100.0625 -14.5 100.0625 C-14.5 120.8525 -14.5 141.6425 -14.5 163.0625 C-12.85 163.7225 -11.2 164.3825 -9.5 165.0625 C-6.74071695 168.26923436 -5.60013324 170.36156735 -5 174.5625 C-5.7516973 179.82438108 -8.16697611 182.65541923 -11.75 186.4375 C-15.36612132 188.57429896 -18.45230632 188.84822877 -22.5 188.0625 C-26.85944153 185.84165243 -29.66830464 183.64173841 -31.5 179.0625 C-32.26273321 174.97147643 -32.3906111 171.59446312 -30.2578125 167.92578125 C-28.75655694 166.08468924 -27.39540137 164.49673315 -25.5 163.0625 C-24.51 163.0625 -23.52 163.0625 -22.5 163.0625 C-22.5 141.9425 -22.5 120.8225 -22.5 99.0625 C-32.07 99.0625 -41.64 99.0625 -51.5 99.0625 C-51.3427692 108.15650616 -51.3427692 108.15650616 -51.13964844 117.24951172 C-51.05622504 126.87414996 -52.14405782 134.62776974 -58.75 141.9375 C-62.70784211 145.54637109 -67.3043233 148.42928258 -72.609375 149.48046875 C-75.77743744 150.4557607 -76.79091651 153.36104545 -78.5 156.0625 C-82.9575575 159.034205 -87.27413182 158.81544249 -92.5 158.0625 C-95.67568542 156.41016078 -97.87696485 154.30857029 -99.5 151.0625 C-100.53037808 142.05405166 -100.53037808 142.05405166 -98.453125 138.0390625 C-96.07228399 135.16804834 -94.07891407 133.23572618 -90.328125 132.82421875 C-84.55500578 132.65802289 -80.94902757 132.95570532 -76.5 137.0625 C-75.84765625 139.203125 -75.84765625 139.203125 -75.5 141.0625 C-68.55600051 138.18683609 -64.49684619 136.09857367 -61.5 129.0625 C-60.42044788 125.82384365 -60.29558259 123.27094162 -60.18359375 119.86328125 C-60.12075195 118.05053711 -60.12075195 118.05053711 -60.05664062 116.20117188 C-60.01732422 114.93853516 -59.97800781 113.67589844 -59.9375 112.375 C-59.87272461 110.46364258 -59.87272461 110.46364258 -59.80664062 108.51367188 C-59.7004514 105.36339148 -59.59840467 102.21303161 -59.5 99.0625 C-60.46679688 99.10890625 -61.43359375 99.1553125 -62.4296875 99.203125 C-73.09636083 99.49883476 -80.72422297 98.36046175 -89.25 91.5625 C-95.98644539 85.04142941 -99.68676789 77.9553144 -100.05664062 68.56054688 C-100.08685009 56.97018358 -97.91627942 50.77849534 -89.90234375 42.3359375 C-84.55082536 37.27157376 -79.89015909 34.52438494 -72.5 34.0625 C-72.603125 33.155 -72.70625 32.2475 -72.8125 31.3125 C-72.79455665 22.44848673 -67.13157355 12.66758407 -61.5 6.0625 C-44.71824401 -9.99214351 -19.56766515 -13.99272659 0 0 Z M-56.5 13.0625 C-61.72358559 20.26931414 -64.80912678 26.91528759 -64.625 35.9375 C-64.59792969 37.66613281 -64.59792969 37.66613281 -64.5703125 39.4296875 C-64.54710937 40.29851562 -64.52390625 41.16734375 -64.5 42.0625 C-65.77875 41.959375 -67.0575 41.85625 -68.375 41.75 C-74.99449976 41.77084882 -80.46803091 44.37436246 -85.39453125 48.7421875 C-91.04463296 54.92843025 -91.91259533 60.88268562 -91.75 69.09375 C-91.18155229 75.84406652 -88.62943389 81.499908 -83.5 86.0625 C-76.23719895 91.6330716 -69.31275019 91.77880439 -60.41821289 91.70947266 C-59.01439789 91.71625994 -57.61059181 91.72516928 -56.20680237 91.73602295 C-52.41730372 91.75869377 -48.62849056 91.75003077 -44.83898091 91.73412752 C-40.8584921 91.7214021 -36.87805905 91.7332272 -32.89756775 91.74105835 C-26.21391345 91.75013676 -19.53053602 91.73821588 -12.84692383 91.71435547 C-5.14014794 91.68715858 2.56596618 91.6959548 10.272726 91.7234875 C16.91000876 91.74624274 23.54709332 91.74934714 30.18440253 91.73629415 C34.13956982 91.72853327 38.09442702 91.72736428 42.0495739 91.74397659 C45.77061315 91.75851576 49.49080699 91.74823013 53.21175575 91.71950531 C55.2136077 91.70983594 57.2155319 91.72451458 59.21734619 91.74014282 C66.9599715 91.65010145 73.10710011 90.6661963 79.5 86.0625 C86.13364626 79.04666509 87.92260623 72.79151415 87.75 63.22265625 C87.23660579 56.73303259 84.43390056 51.40051885 79.5 47.0625 C71.88754751 41.56300961 64.64151894 41.46975021 55.5 42.0625 C55.54125 40.825 55.5825 39.5875 55.625 38.3125 C55.62182856 33.86335195 55.62182856 33.86335195 53.5 30.0625 C48.90639547 26.81336509 45.57527272 26.92223537 40.2578125 27.73828125 C39.67773438 27.84527344 39.09765625 27.95226562 38.5 28.0625 C38.22800781 27.45664063 37.95601562 26.85078125 37.67578125 26.2265625 C35.0784088 21.44601653 30.54643215 18.70775493 25.5 17.0625 C22.58079889 16.71145109 22.58079889 16.71145109 19.5625 16.75 C18.06396484 16.72486328 18.06396484 16.72486328 16.53515625 16.69921875 C13.00832742 17.12134884 10.57394797 18.32624623 7.5 20.0625 C6.79875 19.25425781 6.0975 18.44601563 5.375 17.61328125 C-2.05100386 9.0908678 -2.05100386 9.0908678 -11.5 3.0625 C-12.49 2.59070313 -12.49 2.59070313 -13.5 2.109375 C-29.09425254 -4.19712419 -45.73144703 0.78021806 -56.5 13.0625 Z " fill="#7F4BF1" transform="translate(252.5,177.9375)"/>
<path d="M0 0 C1.87085069 1.50609363 3.38438223 2.9132298 4.85546875 4.8125 C6.33821464 6.69093468 7.40000219 7.89050952 9.5 9.0625 C12.82482178 9.15510114 15.95459269 8.79491986 19.25390625 8.38671875 C27.84552532 7.52859073 33.85065514 10.88922535 40.5 16.0625 C41.49 17.0525 41.49 17.0525 42.5 18.0625 C44.50423605 18.37454552 44.50423605 18.37454552 46.75 18.4375 C52.71991989 19.00196358 56.34594852 21.61532202 60.3125 26 C62.38722488 28.90461484 63.19117173 30.56244626 63.5 34.0625 C64.61375 33.98 65.7275 33.8975 66.875 33.8125 C74.92997516 33.85519421 81.88113613 37.49941155 87.67578125 42.9296875 C94.38160333 50.76989918 96.89653668 58.72558817 96.7734375 68.83203125 C95.99282704 78.05438627 92.07339853 84.74423338 85.5 91.0625 C84.736875 91.805 83.97375 92.5475 83.1875 93.3125 C74.4888186 98.97675765 66.75618704 99.59452123 56.5 99.0625 C56.55234536 102.73028538 56.64752842 106.3957997 56.75 110.0625 C56.76417969 111.09246094 56.77835937 112.12242187 56.79296875 113.18359375 C57.02681774 120.52645219 58.00414118 126.52153333 63.31640625 131.90234375 C63.89261719 132.26457031 64.46882813 132.62679687 65.0625 133 C65.93068359 133.57041016 65.93068359 133.57041016 66.81640625 134.15234375 C68.66102554 135.21227253 68.66102554 135.21227253 71.5 136.0625 C71.87125 134.9178125 71.87125 134.9178125 72.25 133.75 C73.70709398 130.61724795 74.43151551 129.63608179 77.5 128.0625 C82.2881694 126.79477515 85.40418813 126.49430125 89.875 128.8125 C94.29247414 132.5989064 96.24168651 134.32437706 96.8125 140.375 C96.36350502 145.67314075 94.29911289 148.52040324 90.3125 151.9375 C86.29749947 153.54350021 82.76411006 153.7369638 78.5 153.0625 C75 151.375 75 151.375 72.5 149.0625 C71.625 146.3125 71.625 146.3125 71.5 144.0625 C70.30375 143.98 69.1075 143.8975 67.875 143.8125 C61.30198128 142.95615601 56.93600901 139.17757788 52.91088867 134.1105957 C47.96813637 126.93552232 48.11656542 118.90091186 48.3125 110.5 C48.374375 106.725625 48.43625 102.95125 48.5 99.0625 C39.92 99.0625 31.34 99.0625 22.5 99.0625 C22.5 115.5625 22.5 132.0625 22.5 149.0625 C24.15 149.7225 25.8 150.3825 27.5 151.0625 C30.95352461 154.87328577 30.95658393 158.77475055 30.78125 163.69140625 C30.40143151 166.89348709 29.67582683 168.66909048 27.5 171.0625 C23.58670686 173.7016977 20.1139967 174.65764547 15.4609375 174.48828125 C10.79007273 173.4740895 8.06198204 169.90547307 5.5 166.0625 C5.3046875 163.80078125 5.3046875 163.80078125 5.375 161.375 C5.39304687 160.56675781 5.41109375 159.75851562 5.4296875 158.92578125 C5.45289063 158.31089844 5.47609375 157.69601562 5.5 157.0625 C5.83 157.0625 6.16 157.0625 6.5 157.0625 C6.995 159.5375 6.995 159.5375 7.5 162.0625 C8.16 161.7325 8.82 161.4025 9.5 161.0625 C10.49 163.0425 10.49 163.0425 11.5 165.0625 C11.83 164.0725 12.16 163.0825 12.5 162.0625 C11.84 162.0625 11.18 162.0625 10.5 162.0625 C10.17 161.0725 9.84 160.0825 9.5 159.0625 C9.83 158.4025 10.16 157.7425 10.5 157.0625 C11.82 157.3925 13.14 157.7225 14.5 158.0625 C14.5 160.3725 14.5 162.6825 14.5 165.0625 C16.49954746 165.10504356 18.50041636 165.10330783 20.5 165.0625 C21.85618499 163.93715895 21.85618499 163.93715895 21.5625 161 C21.541875 160.030625 21.52125 159.06125 21.5 158.0625 C19.85 157.4025 18.2 156.7425 16.5 156.0625 C16.5 155.4025 16.5 154.7425 16.5 154.0625 C18.15 154.3925 19.8 154.7225 21.5 155.0625 C21.17 154.4025 20.84 153.7425 20.5 153.0625 C19.51 153.0625 18.52 153.0625 17.5 153.0625 C18.07344937 150.19525314 18.3614515 149.2010485 20.5 147.0625 C19.51 147.0625 18.52 147.0625 17.5 147.0625 C16.72478329 144.31354407 16.37721153 141.88134931 16.38647461 139.02832031 C16.38655014 138.24781311 16.38662567 137.46730591 16.38670349 136.66314697 C16.39186478 135.83071472 16.39702606 134.99828247 16.40234375 134.140625 C16.4037587 133.28063904 16.40517365 132.42065308 16.40663147 131.53460693 C16.41221903 128.79386891 16.42476925 126.05321324 16.4375 123.3125 C16.44251661 121.4518241 16.44707923 119.59114691 16.45117188 117.73046875 C16.46218439 113.17444754 16.47944049 108.61848772 16.5 104.0625 C17.82 104.0625 19.14 104.0625 20.5 104.0625 C20.83 101.7525 21.16 99.4425 21.5 97.0625 C24.14 97.0625 26.78 97.0625 29.5 97.0625 C29.995 95.0825 29.995 95.0825 30.5 93.0625 C26.87 93.0625 23.24 93.0625 19.5 93.0625 C19.5 92.7325 19.5 92.4025 19.5 92.0625 C20.07470032 92.06329559 20.64940063 92.06409119 21.24151611 92.06491089 C27.27775649 92.06736773 33.31272788 92.02777239 39.34863281 91.96484375 C41.59466647 91.94678778 43.84081024 91.93909615 46.08691406 91.94238281 C63.8663976 92.45917977 63.8663976 92.45917977 79.5 85.0625 C86.23180365 77.17991964 87.18966387 70.25967299 86.5 60.0625 C85.19151339 54.55915925 82.15809844 49.91115785 77.51171875 46.6796875 C70.427531 42.62164214 63.5498915 42.19009194 55.5 42.0625 C54.51 36.1225 54.51 36.1225 53.5 30.0625 C49.74355138 28.52139287 46.98293965 28.03129455 43 28.375 C40.17993734 28.45988483 38.99248632 28.49024633 36.8359375 26.6171875 C35.85476518 25.36317582 34.88870634 24.09720361 33.9375 22.8203125 C31.61262108 19.9773899 29.00183852 18.77966619 25.5 18.0625 C18.44826571 17.38038401 12.75831476 17.64887377 6.5 21.0625 C6.1596875 20.56621094 5.819375 20.06992188 5.46875 19.55859375 C-1.47535247 9.82576928 -8.76741682 4.15410681 -20.5 1.0625 C-25.17182434 0.43866589 -29.78897497 0.14019307 -34.5 0.0625 C-34.5 -0.2675 -34.5 -0.5975 -34.5 -0.9375 C-31.81243045 -0.96470824 -29.12514202 -0.9844388 -26.4375 -1 C-25.68533203 -1.00837891 -24.93316406 -1.01675781 -24.15820312 -1.02539062 C-19.49366882 -1.04558341 -15.10076827 -0.71345959 -10.5 0.0625 C-10.5 -1.2575 -10.5 -2.5775 -10.5 -3.9375 C-12.046875 -3.875625 -12.046875 -3.875625 -13.625 -3.8125 C-17.5 -3.9375 -17.5 -3.9375 -20.3125 -4.9375 C-27.45575379 -7.1785208 -35.19305696 -5.88033136 -42.5 -4.9375 C-42.17 -5.5975 -41.84 -6.2575 -41.5 -6.9375 C-27.85009658 -10.97221234 -11.46025483 -8.19516336 0 0 Z " fill="#3F8BCC" transform="translate(252.5,177.9375)"/>
<path d="M0 0 C45.54 0 91.08 0 138 0 C138 0.33 138 0.66 138 1 C125.79 1.33 113.58 1.66 101 2 C100.67 3.65 100.34 5.3 100 7 C97.36 6.67 94.72 6.34 92 6 C91.67 8.31 91.34 10.62 91 13 C89.68 13 88.36 13 87 13 C87.33 27.19 87.66 41.38 88 56 C88.99 56 89.98 56 91 56 C90.67 57.32 90.34 58.64 90 60 C89.67 59.67 89.34 59.34 89 59 C88.67 59.99 88.34 60.98 88 62 C89.32 61.67 90.64 61.34 92 61 C92.495 62.98 92.495 62.98 93 65 C91.02 64.34 89.04 63.68 87 63 C87 63.66 87 64.32 87 65 C88.2065625 65.2165625 88.2065625 65.2165625 89.4375 65.4375 C92 66 92 66 93 67 C93.1875 69.9375 93.1875 69.9375 93 73 C92.34 73.66 91.68 74.32 91 75 C87.875 74.625 87.875 74.625 85 74 C84.505 70.535 84.505 70.535 84 67 C82.515 66.505 82.515 66.505 81 66 C81 67.65 81 69.3 81 71 C81.66 71 82.32 71 83 71 C82.505 72.98 82.505 72.98 82 75 C80.515 73.02 80.515 73.02 79 71 C78.34 71.66 77.68 72.32 77 73 C76.51720712 68.17207121 76.17939415 64.34532299 79.375 60.4375 C82 58 82 58 84 58 C84 41.83 84 25.66 84 9 C74.76 9 65.52 9 56 9 C56 29.79 56 50.58 56 72 C57.65 72.66 59.3 73.32 61 74 C63.75928305 77.20673436 64.89986676 79.29906735 65.5 83.5 C64.7483027 88.76188108 62.33302389 91.59291923 58.75 95.375 C55.13387868 97.51179896 52.04769368 97.78572877 48 97 C43.64055847 94.77915243 40.83169536 92.57923841 39 88 C38.23726679 83.90897643 38.1093889 80.53196312 40.2421875 76.86328125 C41.74344306 75.02218924 43.10459863 73.43423315 45 72 C45.99 72 46.98 72 48 72 C48 50.88 48 29.76 48 8 C40.41 8 32.82 8 25 8 C25 7.67 25 7.34 25 7 C32.92 6.505 32.92 6.505 41 6 C41 4.68 41 3.36 41 2 C20.705 1.505 20.705 1.505 0 1 C0 0.67 0 0.34 0 0 Z " fill="#6464E8" transform="translate(182,269)"/>
<path d="M0 0 C1.87085069 1.50609363 3.38438223 2.9132298 4.85546875 4.8125 C6.33821464 6.69093468 7.40000219 7.89050952 9.5 9.0625 C12.82482178 9.15510114 15.95459269 8.79491986 19.25390625 8.38671875 C27.84552532 7.52859073 33.85065514 10.88922535 40.5 16.0625 C41.49 17.0525 41.49 17.0525 42.5 18.0625 C44.50423605 18.37454552 44.50423605 18.37454552 46.75 18.4375 C52.71991989 19.00196358 56.34594852 21.61532202 60.3125 26 C62.38722488 28.90461484 63.19117173 30.56244626 63.5 34.0625 C62.84 33.7325 62.18 33.4025 61.5 33.0625 C61.5 32.4025 61.5 31.7425 61.5 31.0625 C60.18 31.0625 58.86 31.0625 57.5 31.0625 C57.005 36.0125 57.005 36.0125 56.5 41.0625 C59.14 41.0625 61.78 41.0625 64.5 41.0625 C64.5 41.3925 64.5 41.7225 64.5 42.0625 C61.53 42.0625 58.56 42.0625 55.5 42.0625 C54.51 36.1225 54.51 36.1225 53.5 30.0625 C49.74355138 28.52139287 46.98293965 28.03129455 43 28.375 C40.17993734 28.45988483 38.99248632 28.49024633 36.8359375 26.6171875 C35.85476518 25.36317582 34.88870634 24.09720361 33.9375 22.8203125 C31.61262108 19.9773899 29.00183852 18.77966619 25.5 18.0625 C18.44826571 17.38038401 12.75831476 17.64887377 6.5 21.0625 C6.1596875 20.56621094 5.819375 20.06992188 5.46875 19.55859375 C-1.47535247 9.82576928 -8.76741682 4.15410681 -20.5 1.0625 C-25.17182434 0.43866589 -29.78897497 0.14019307 -34.5 0.0625 C-34.5 -0.2675 -34.5 -0.5975 -34.5 -0.9375 C-31.81243045 -0.96470824 -29.12514202 -0.9844388 -26.4375 -1 C-25.68533203 -1.00837891 -24.93316406 -1.01675781 -24.15820312 -1.02539062 C-19.49366882 -1.04558341 -15.10076827 -0.71345959 -10.5 0.0625 C-10.5 -1.2575 -10.5 -2.5775 -10.5 -3.9375 C-12.046875 -3.875625 -12.046875 -3.875625 -13.625 -3.8125 C-17.5 -3.9375 -17.5 -3.9375 -20.3125 -4.9375 C-27.45575379 -7.1785208 -35.19305696 -5.88033136 -42.5 -4.9375 C-42.17 -5.5975 -41.84 -6.2575 -41.5 -6.9375 C-27.85009658 -10.97221234 -11.46025483 -8.19516336 0 0 Z " fill="#4587D8" transform="translate(252.5,177.9375)"/>
<path d="M0 0 C45.54 0 91.08 0 138 0 C138 0.33 138 0.66 138 1 C125.79 1.33 113.58 1.66 101 2 C100.67 3.65 100.34 5.3 100 7 C97.36 6.67 94.72 6.34 92 6 C91.67 8.31 91.34 10.62 91 13 C89.68 13 88.36 13 87 13 C87.33 27.19 87.66 41.38 88 56 C88.99 56 89.98 56 91 56 C90.67 57.32 90.34 58.64 90 60 C89.67 59.67 89.34 59.34 89 59 C88.67 59.99 88.34 60.98 88 62 C89.32 61.67 90.64 61.34 92 61 C92.495 62.98 92.495 62.98 93 65 C91.02 64.34 89.04 63.68 87 63 C87 63.66 87 64.32 87 65 C88.2065625 65.2165625 88.2065625 65.2165625 89.4375 65.4375 C92 66 92 66 93 67 C93.1875 69.9375 93.1875 69.9375 93 73 C92.34 73.66 91.68 74.32 91 75 C87.875 74.625 87.875 74.625 85 74 C84.505 70.535 84.505 70.535 84 67 C82.515 66.505 82.515 66.505 81 66 C81 67.65 81 69.3 81 71 C81.66 71 82.32 71 83 71 C82.505 72.98 82.505 72.98 82 75 C80.515 73.02 80.515 73.02 79 71 C78.34 71.66 77.68 72.32 77 73 C76.51720712 68.17207121 76.17939415 64.34532299 79.375 60.4375 C82 58 82 58 84 58 C84 41.83 84 25.66 84 9 C74.76 9 65.52 9 56 9 C56 8.67 56 8.34 56 8 C65.24 8 74.48 8 84 8 C84 7.34 84 6.68 84 6 C80.7 6 77.4 6 74 6 C74.33 4.68 74.66 3.36 75 2 C50.25 1.67 25.5 1.34 0 1 C0 0.67 0 0.34 0 0 Z " fill="#6B8AE4" transform="translate(182,269)"/>
<path d="M0 0 C12.87 0.495 12.87 0.495 26 1 C26 1.33 26 1.66 26 2 C17.75 2 9.5 2 1 2 C1 18.5 1 35 1 52 C2.65 52.66 4.3 53.32 6 54 C9.45352461 57.81078577 9.45658393 61.71225055 9.28125 66.62890625 C8.90143151 69.83098709 8.17582683 71.60659048 6 74 C2.08670686 76.6391977 -1.3860033 77.59514547 -6.0390625 77.42578125 C-10.70992727 76.4115895 -13.43801796 72.84297307 -16 69 C-16.1953125 66.73828125 -16.1953125 66.73828125 -16.125 64.3125 C-16.10695313 63.50425781 -16.08890625 62.69601562 -16.0703125 61.86328125 C-16.04710937 61.24839844 -16.02390625 60.63351562 -16 60 C-15.67 60 -15.34 60 -15 60 C-14.67 61.65 -14.34 63.3 -14 65 C-13.01 64.505 -13.01 64.505 -12 64 C-11.34 65.32 -10.68 66.64 -10 68 C-9.67 67.01 -9.34 66.02 -9 65 C-9.66 65 -10.32 65 -11 65 C-11.33 64.01 -11.66 63.02 -12 62 C-11.67 61.34 -11.34 60.68 -11 60 C-9.68 60.33 -8.36 60.66 -7 61 C-7 63.31 -7 65.62 -7 68 C-5.00045254 68.04254356 -2.99958364 68.04080783 -1 68 C0.35618499 66.87465895 0.35618499 66.87465895 0.0625 63.9375 C0.041875 62.968125 0.02125 61.99875 0 61 C-1.65 60.34 -3.3 59.68 -5 59 C-5 58.34 -5 57.68 -5 57 C-3.35 57.33 -1.7 57.66 0 58 C-0.33 57.34 -0.66 56.68 -1 56 C-1.99 56 -2.98 56 -4 56 C-3.42655063 53.13275314 -3.1385485 52.1385485 -1 50 C-1.99 50 -2.98 50 -4 50 C-4.77521671 47.25104407 -5.12278847 44.81884931 -5.11352539 41.96582031 C-5.11344986 41.18531311 -5.11337433 40.40480591 -5.11329651 39.60064697 C-5.10813522 38.76821472 -5.10297394 37.93578247 -5.09765625 37.078125 C-5.0962413 36.21813904 -5.09482635 35.35815308 -5.09336853 34.47210693 C-5.08778097 31.73136891 -5.07523075 28.99071324 -5.0625 26.25 C-5.05748339 24.3893241 -5.05292077 22.52864691 -5.04882812 20.66796875 C-5.03781561 16.11194754 -5.02055951 11.55598772 -5 7 C-3.68 7 -2.36 7 -1 7 C-0.67 4.69 -0.34 2.38 0 0 Z " fill="#5480D3" transform="translate(274,275)"/>
<path d="M0 0 C5.4939759 2.69879518 5.4939759 2.69879518 6.875 6.25 C6.91625 6.8275 6.9575 7.405 7 8 C8.258125 7.814375 9.51625 7.62875 10.8125 7.4375 C13.82744268 6.99267239 15.00468461 7.00156154 18 8 C18 9.65 18 11.3 18 13 C12.36298932 15.94661922 12.36298932 15.94661922 9.875 16.3125 C6.77020461 17.45092498 5.71520586 20.28886815 4 23 C-0.4575575 25.971705 -4.77413182 25.75294249 -10 25 C-13.17568542 23.34766078 -15.37696485 21.24607029 -17 18 C-18.03037808 8.99155166 -18.03037808 8.99155166 -15.953125 4.9765625 C-11.33552641 -0.59171815 -6.86055303 -0.7669531 0 0 Z " fill="#8C41F7" transform="translate(170,311)"/>
<path d="M0 0 C0.5625 2.625 0.5625 2.625 0 6 C-2.13295895 7.70368419 -4.39204767 9.02237125 -6.734375 10.421875 C-10.90686179 13.32822786 -12.41498694 17.24496082 -14 22 C-14.6704487 30.70293984 -13.93040054 37.15356835 -9.375 44.6875 C-3.71792136 50.19570815 3.53309529 52.82877239 11 55 C11 55.99 11 56.98 11 58 C12.65 58 14.3 58 16 58 C16 58.33 16 58.66 16 59 C13.60385874 59.05425226 11.20896147 59.09379027 8.8125 59.125 C8.13896484 59.14175781 7.46542969 59.15851563 6.77148438 59.17578125 C2.71192193 59.21538674 -0.34998815 58.80020002 -4 57 C-4 56.34 -4 55.68 -4 55 C-4.99 55.185625 -5.98 55.37125 -7 55.5625 C-9.9605876 55.59264855 -10.88449552 55.09891497 -13.17578125 53.13671875 C-21.23123432 44.13876294 -22.21482485 36.86310577 -22 25 C-21.34 25 -20.68 25 -20 25 C-20.226875 24.154375 -20.45375 23.30875 -20.6875 22.4375 C-21.17628972 17.06081313 -18.92467808 13.38701713 -16 9 C-15.01 9 -14.02 9 -13 9 C-13 8.34 -13 7.68 -13 7 C-12.34 7 -11.68 7 -11 7 C-10.9175 6.401875 -10.835 5.80375 -10.75 5.1875 C-8.93621924 -0.10269389 -5.05827545 -0.34488242 0 0 Z " fill="#8941FA" transform="translate(176,216)"/>
<path d="M0 0 C2 0.3125 2 0.3125 4 1 C4.33 1.66 4.66 2.32 5 3 C7.00945989 3.3452376 9.03463642 3.60063366 11.0625 3.8125 C17.22001878 4.6748221 21.15019932 6.19820223 26 10 C27.03125 10.70125 28.0625 11.4025 29.125 12.125 C34.03273168 16.33354799 37.9206473 23.63427216 39 30 C39.37433084 36.25045452 39.58902621 42.17469103 37 48 C35.68 48 34.36 48 33 48 C33.061875 48.7425 33.12375 49.485 33.1875 50.25 C32.96646289 53.49187763 32.27837542 54.72162458 30 57 C29.01 57 28.02 57 27 57 C27 56.34 27 55.68 27 55 C26.34 54.67 25.68 54.34 25 54 C26.65 54 28.3 54 30 54 C30.25832274 50.52236975 30.47620671 47.04327902 30.6875 43.5625 C30.76033203 42.58861328 30.83316406 41.61472656 30.90820312 40.61132812 C31.28386193 34.0041527 30.41467577 29.12017555 28 23 C27.62770641 21.34160126 27.2706431 19.67798725 27 18 C26.01 17.9175 25.02 17.835 24 17.75 C21.03947937 17.34307585 18.96038525 16.54222049 16.375 15.0625 C10.97321122 12.12674523 5.02713288 11.69826539 -1 11 C-1.02688151 9.35425434 -1.04634123 7.70838587 -1.0625 6.0625 C-1.07410156 5.14597656 -1.08570313 4.22945312 -1.09765625 3.28515625 C-1 1 -1 1 0 0 Z " fill="#3294D1" transform="translate(310,208)"/>
<path d="M0 0 C0.91007812 0.10183594 1.82015625 0.20367187 2.7578125 0.30859375 C3.45648438 0.39238281 4.15515625 0.47617187 4.875 0.5625 C5.205 1.5525 5.535 2.5425 5.875 3.5625 C6.865 3.8925 7.855 4.2225 8.875 4.5625 C10.03599866 9.52835564 10.45006843 13.44667142 8 18.0625 C5.82982929 21.07662599 4.16482703 22.18496112 0.5 22.8125 C-4.36745112 22.9674105 -7.20442284 21.31524566 -11.125 18.5625 C-11.125 16.5825 -11.125 14.6025 -11.125 12.5625 C-12.115 12.5625 -13.105 12.5625 -14.125 12.5625 C-14.455 11.9025 -14.785 11.2425 -15.125 10.5625 C-17.14963255 9.91036708 -17.14963255 9.91036708 -19.125 9.5625 C-19.125 8.5725 -19.125 7.5825 -19.125 6.5625 C-17.701875 6.6553125 -17.701875 6.6553125 -16.25 6.75 C-14.703125 6.6571875 -14.703125 6.6571875 -13.125 6.5625 C-12.465 5.5725 -11.805 4.5825 -11.125 3.5625 C-10.135 3.5625 -9.145 3.5625 -8.125 3.5625 C-7.795 2.5725 -7.465 1.5825 -7.125 0.5625 C-4.50184968 -0.74907516 -2.89466564 -0.33399988 0 0 Z " fill="#209CDB" transform="translate(337.125,307.4375)"/>
<path d="M0 0 C4.5206665 -0.02468857 9.0412939 -0.04285449 13.56201172 -0.05493164 C15.10043013 -0.05996552 16.63884375 -0.06679308 18.17724609 -0.07543945 C20.38640526 -0.08754639 22.59550126 -0.09323769 24.8046875 -0.09765625 C25.83914505 -0.10539818 25.83914505 -0.10539818 26.89450073 -0.11329651 C31.77225659 -0.11387171 31.77225659 -0.11387171 34 1 C34 1.99 34 2.98 34 4 C36.97 4.33 39.94 4.66 43 5 C43 5.66 43 6.32 43 7 C33.76 7 24.52 7 15 7 C15 28.12 15 49.24 15 71 C13.10541653 67.21083307 12.75239729 66.03492593 12.77294922 62.04785156 C12.77310028 61.06713684 12.77325134 60.08642212 12.77340698 59.07598877 C12.78372955 58.02481873 12.79405212 56.97364868 12.8046875 55.890625 C12.8075174 54.80867859 12.81034729 53.72673218 12.81326294 52.61199951 C12.82445391 49.15788696 12.8495568 45.70403412 12.875 42.25 C12.88503119 39.90755583 12.8941568 37.56510759 12.90234375 35.22265625 C12.9243897 29.48168229 12.95785666 23.7408597 13 18 C12.34 18 11.68 18 11 18 C11 14.7 11 11.4 11 8 C10.34 8 9.68 8 9 8 C8.67 7.34 8.34 6.68 8 6 C7.67 6.33 7.34 6.66 7 7 C5.29227642 7.08713831 3.58101351 7.10700007 1.87109375 7.09765625 C0.31938477 7.09282227 0.31938477 7.09282227 -1.26367188 7.08789062 C-2.35228516 7.07951172 -3.44089844 7.07113281 -4.5625 7.0625 C-6.2012207 7.05573242 -6.2012207 7.05573242 -7.87304688 7.04882812 C-10.58208495 7.03699826 -13.29101599 7.02051543 -16 7 C-16 6.67 -16 6.34 -16 6 C-8.08 5.505 -8.08 5.505 0 5 C0 3.35 0 1.7 0 0 Z " fill="#6464E6" transform="translate(223,270)"/>
<path d="M0 0 C1.87085069 1.50609363 3.38438223 2.9132298 4.85546875 4.8125 C6.33821464 6.69093468 7.40000219 7.89050952 9.5 9.0625 C12.81982533 9.15496198 15.92781533 8.79729213 19.21875 8.36328125 C23.73120079 7.94963993 27.17388484 8.81599224 31.5 10.0625 C31.5 10.3925 31.5 10.7225 31.5 11.0625 C23.91 11.0625 16.32 11.0625 8.5 11.0625 C8.17 13.0425 7.84 15.0225 7.5 17.0625 C8.758125 16.7325 10.01625 16.4025 11.3125 16.0625 C16.72793168 14.83799156 21.97495171 14.87661052 27.5 15.0625 C24.47306057 16.79516188 22.15460574 17.3198197 18.6875 17.5 C14.02646483 17.87288281 10.66673811 18.97913095 6.5 21.0625 C6.1596875 20.56621094 5.819375 20.06992188 5.46875 19.55859375 C-1.47535247 9.82576928 -8.76741682 4.15410681 -20.5 1.0625 C-25.17182434 0.43866589 -29.78897497 0.14019307 -34.5 0.0625 C-34.5 -0.2675 -34.5 -0.5975 -34.5 -0.9375 C-31.81243045 -0.96470824 -29.12514202 -0.9844388 -26.4375 -1 C-25.68533203 -1.00837891 -24.93316406 -1.01675781 -24.15820312 -1.02539062 C-19.49366882 -1.04558341 -15.10076827 -0.71345959 -10.5 0.0625 C-10.5 -1.2575 -10.5 -2.5775 -10.5 -3.9375 C-12.046875 -3.875625 -12.046875 -3.875625 -13.625 -3.8125 C-17.5 -3.9375 -17.5 -3.9375 -20.3125 -4.9375 C-27.45575379 -7.1785208 -35.19305696 -5.88033136 -42.5 -4.9375 C-42.17 -5.5975 -41.84 -6.2575 -41.5 -6.9375 C-27.85009658 -10.97221234 -11.46025483 -8.19516336 0 0 Z " fill="#5571E0" transform="translate(252.5,177.9375)"/>
<path d="M0 0 C2.32694964 0.37531446 4.65976685 0.71917202 7 1 C7.495 3.475 7.495 3.475 8 6 C2.25 6.125 2.25 6.125 0 5 C-2.87910588 4.76725791 -5.74146495 4.58027243 -8.625 4.4375 C-9.42679688 4.39431641 -10.22859375 4.35113281 -11.0546875 4.30664062 C-13.0362511 4.20048543 -15.01810271 4.09973145 -17 4 C-17 4.66 -17 5.32 -17 6 C-17.76183594 6.1959375 -18.52367187 6.391875 -19.30859375 6.59375 C-27.22907867 8.88782303 -32.29813643 12.06775811 -38 18 C-39.33332095 15.3333581 -38.67102033 13.83319697 -38 11 C-38.66 11 -39.32 11 -40 11 C-39.68416856 8.05223985 -39.06918843 7.06511852 -36.875 5 C-35.92625 4.34 -34.9775 3.68 -34 3 C-33.47019531 2.62359375 -32.94039062 2.2471875 -32.39453125 1.859375 C-27.74395611 -1.16296674 -24.49295271 -1.27464764 -19 -1 C-12.58824643 -3.13725119 -6.23610071 -2.35586027 0 0 Z " fill="#795CE0" transform="translate(235,173)"/>
<path d="M0 0 C13.2 0 26.4 0 40 0 C41 5 41 5 41 6 C33.41 6.33 25.82 6.66 18 7 C18.04640625 8.98902344 18.0928125 10.97804688 18.140625 13.02734375 C18.16847006 14.98345934 18.19616107 16.93958013 18.21972656 18.89575195 C18.24940781 20.89756051 18.30027058 22.89901919 18.3515625 24.90039062 C18.42829889 32.51647752 17.97595673 38.39395013 14 45 C13 42 13 42 13.93188477 39.72851562 C15.23067687 36.41073265 15.18070553 33.89899549 15.08984375 30.34375 C15.06986328 29.07402344 15.04988281 27.80429687 15.02929688 26.49609375 C14.96809683 23.8319387 14.90299225 21.16787049 14.83398438 18.50390625 C14.81529297 17.23417969 14.79660156 15.96445312 14.77734375 14.65625 C14.73468384 12.92084961 14.73468384 12.92084961 14.69116211 11.15039062 C15.03222796 7.67124938 15.98956036 5.81930553 18 3 C14.43913342 1.81304447 11.02668976 1.64904582 7.3125 1.4375 C6.61060547 1.39431641 5.90871094 1.35113281 5.18554688 1.30664062 C3.45724794 1.2008264 1.7286489 1.09993419 0 1 C0 0.67 0 0.34 0 0 Z " fill="#7756DB" transform="translate(183,270)"/>
<path d="M0 0 C2.89741846 2.77144374 3.91688506 4.1356046 4.3125 8.25 C3.85462485 13.74450176 1.45228575 16.46703171 -2.25 20.375 C-5.86612132 22.51179896 -8.95230632 22.78572877 -13 22 C-17.35944153 19.77915243 -20.16830464 17.57923841 -22 13 C-22.22869139 9.98127368 -22.17766109 7.02023846 -22 4 C-21.67 4.66 -21.34 5.32 -21 6 C-18.98330173 7.13350534 -18.98330173 7.13350534 -17 8 C-17.99 8.495 -17.99 8.495 -19 9 C-19.65213292 11.02463255 -19.65213292 11.02463255 -20 13 C-18.68 12.67 -17.36 12.34 -16 12 C-16.33 13.98 -16.66 15.96 -17 18 C-14.36 18.66 -11.72 19.32 -9 20 C-9 19.34 -9 18.68 -9 18 C-9.99 18.33 -10.98 18.66 -12 19 C-11.67 17.68 -11.34 16.36 -11 15 C-11.99 14.67 -12.98 14.34 -14 14 C-14.33 11.69 -14.66 9.38 -15 7 C-13.3125 5.4375 -13.3125 5.4375 -11 4 C-8.375 4.125 -8.375 4.125 -6 5 C-5.01 6.485 -5.01 6.485 -4 8 C-3.01 8 -2.02 8 -1 8 C-1 11 -1 11 -3.5 13.6875 C-4.325 14.450625 -5.15 15.21375 -6 16 C-4.35 16.33 -2.7 16.66 -1 17 C0.8815683 11.12009907 1.86838009 6.07223528 0 0 Z " fill="#6C6BDC" transform="translate(243,344)"/>
<path d="M0 0 C0 1.98 0 3.96 0 6 C-2.31 5.34 -4.62 4.68 -7 4 C-7.66 5.32 -8.32 6.64 -9 8 C-9.66 7.67 -10.32 7.34 -11 7 C-10.63802104 4.37565253 -10.17343943 3.17986311 -8.3125 1.25 C-5.39572708 -0.32663401 -3.26709987 -0.22275681 0 0 Z M-13 7 C-12.34 7 -11.68 7 -11 7 C-11 7.66 -11 8.32 -11 9 C-10.34 9.33 -9.68 9.66 -9 10 C-10.2065625 11.051875 -10.2065625 11.051875 -11.4375 12.125 C-14.23433811 15.26291593 -14.71308751 16.88758763 -15 21 C-15.66 21 -16.32 21 -17 21 C-17 25.95 -17 30.9 -17 36 C-16.34 36 -15.68 36 -15 36 C-14.67 38.64 -14.34 41.28 -14 44 C-14.66 44 -15.32 44 -16 44 C-16.33 44.66 -16.66 45.32 -17 46 C-19.79586345 43.74527141 -20.90126502 42.41139575 -21.75 38.875 C-22.04901608 34.24025079 -22.08406329 29.64216148 -22 25 C-21.34 25 -20.68 25 -20 25 C-20.226875 24.154375 -20.45375 23.30875 -20.6875 22.4375 C-21.17628972 17.06081313 -18.92467808 13.38701713 -16 9 C-15.01 9 -14.02 9 -13 9 C-13 8.34 -13 7.68 -13 7 Z " fill="#9537F9" transform="translate(176,216)"/>
<path d="M0 0 C0.99 0.33 1.98 0.66 3 1 C3 1.66 3 2.32 3 3 C3.99 3.33 4.98 3.66 6 4 C7 6 7 6 8 8 C8.825 8.804375 9.65 9.60875 10.5 10.4375 C15.05915803 15.11063699 15.22140051 19.27617976 15.17578125 25.54882812 C15.15902344 26.46083984 15.14226562 27.37285156 15.125 28.3125 C15.11597656 29.24384766 15.10695313 30.17519531 15.09765625 31.13476562 C15.07418263 33.4234436 15.04134729 35.71158672 15 38 C13.68 38 12.36 38 11 38 C11.061875 38.7425 11.12375 39.485 11.1875 40.25 C10.96646289 43.49187763 10.27837542 44.72162458 8 47 C7.01 47 6.02 47 5 47 C5 46.34 5 45.68 5 45 C4.34 44.67 3.68 44.34 3 44 C4.65 44 6.3 44 8 44 C8.25832274 40.52236975 8.47620671 37.04327902 8.6875 33.5625 C8.76033203 32.58861328 8.83316406 31.61472656 8.90820312 30.61132812 C9.28386193 24.0041527 8.41467577 19.12017555 6 13 C5.62770641 11.34160126 5.2706431 9.67798725 5 8 C3.35 7.67 1.7 7.34 0 7 C0 6.34 0 5.68 0 5 C-1.32 4.34 -2.64 3.68 -4 3 C-2.68 2.67 -1.36 2.34 0 2 C0 1.34 0 0.68 0 0 Z " fill="#18A3D9" transform="translate(332,218)"/>
<path d="M0 0 C0 0.66 0 1.32 0 2 C0.66 2 1.32 2 2 2 C1.73828125 3.86328125 1.73828125 3.86328125 1 6 C-0.70703125 7.23046875 -0.70703125 7.23046875 -2.8125 8.1875 C-3.49957031 8.51105469 -4.18664062 8.83460938 -4.89453125 9.16796875 C-9.59197817 11.02428822 -14.24416077 11.29275071 -19.25 11.5625 C-19.99507813 11.60568359 -20.74015625 11.64886719 -21.5078125 11.69335938 C-23.338349 11.79896725 -25.16915176 11.89994201 -27 12 C-27 14.64 -27 17.28 -27 20 C-28.32 20 -29.64 20 -31 20 C-31 16 -31 12 -31 8 C-30.01 8 -29.02 8 -28 8 C-28 7.01 -28 6.02 -28 5 C-27.44014404 4.97494385 -26.88028809 4.9498877 -26.3034668 4.92407227 C-23.76458695 4.80796255 -21.22606447 4.6853042 -18.6875 4.5625 C-17.36588867 4.50352539 -17.36588867 4.50352539 -16.01757812 4.44335938 C-14.74624023 4.38051758 -14.74624023 4.38051758 -13.44921875 4.31640625 C-12.66893311 4.27974854 -11.88864746 4.24309082 -11.0847168 4.20532227 C-8.80670899 4.05874737 -8.80670899 4.05874737 -6 3 C-6 2.34 -6 1.68 -6 1 C-3 0 -3 0 0 0 Z " fill="#3191D6" transform="translate(334,266)"/>
<path d="M0 0 C2 1.5 2 1.5 3 3 C0.95301586 5.04698414 -3.30411241 4.70045693 -6 5 C-5.030625 5.309375 -4.06125 5.61875 -3.0625 5.9375 C0 7 0 7 1 8 C1.1875 10.4375 1.1875 10.4375 1 13 C-1 15 -1 15 -3.4375 15.4375 C-6 15 -6 15 -7.8125 12.5 C-8.204375 11.675 -8.59625 10.85 -9 10 C-9.33 11.32 -9.66 12.64 -10 14 C-9.34 14 -8.68 14 -8 14 C-8.33 15.65 -8.66 17.3 -9 19 C-10.875 18.875 -10.875 18.875 -13 18 C-15.24429011 13.72516169 -15.34607284 9.67534216 -14.66015625 4.9921875 C-14 3 -14 3 -11.4375 0.9375 C-7.24922252 -0.20475749 -4.33167462 -0.42606636 0 0 Z " fill="#9637FA" transform="translate(169,313)"/>
<path d="M0 0 C2.25 -0.0625 2.25 -0.0625 5 1 C12.12535708 12.36775719 10.17277124 24.44836615 8 37 C6.515 37.495 6.515 37.495 5 38 C5 38.66 5 39.32 5 40 C8.27773504 39.24849977 8.27773504 39.24849977 10 36 C10.38499891 34.34450469 10.72793135 32.6777567 11 31 C12.32 31.33 13.64 31.66 15 32 C11.95577773 37.42841405 9.00613773 41.27450216 4 45 C4 44.34 4 43.68 4 43 C3.34 43 2.68 43 2 43 C2 42.34 2 41.68 2 41 C-0.97 41.495 -0.97 41.495 -4 42 C-4 42.66 -4 43.32 -4 44 C-7.63195496 46.42130331 -9.38349348 46.21022785 -13.6875 46.125 C-14.86699219 46.10695313 -16.04648437 46.08890625 -17.26171875 46.0703125 C-18.61716797 46.03550781 -18.61716797 46.03550781 -20 46 C-20 45.67 -20 45.34 -20 45 C-19.39414062 44.91363281 -18.78828125 44.82726562 -18.1640625 44.73828125 C-10.71133012 43.48851536 -3.19693712 41.68977124 1.92578125 35.77734375 C7.04987375 28.25630106 7.6104935 22.01568077 7 13 C5.81822796 8.10781134 2.87163883 4.05990317 0 0 Z " fill="#33A4CB" transform="translate(332,225)"/>
<path d="M0 0 C1.299375 1.0828125 1.299375 1.0828125 2.625 2.1875 C2.295 2.8475 1.965 3.5075 1.625 4.1875 C-0.85 3.6925 -0.85 3.6925 -3.375 3.1875 C-2.88 4.6725 -2.88 4.6725 -2.375 6.1875 C-6.79040058 5.79501995 -10.32752417 4.86553747 -14.4375 3.1875 C-20.96894119 0.67680673 -27.43501472 0.39012731 -34.375 0.1875 C-34.375 -0.1425 -34.375 -0.4725 -34.375 -0.8125 C-31.68743045 -0.83970824 -29.00014202 -0.8594388 -26.3125 -0.875 C-25.56033203 -0.88337891 -24.80816406 -0.89175781 -24.03320312 -0.90039062 C-19.36866882 -0.92058341 -14.97576827 -0.58845959 -10.375 0.1875 C-10.375 -1.1325 -10.375 -2.4525 -10.375 -3.8125 C-11.921875 -3.750625 -11.921875 -3.750625 -13.5 -3.6875 C-17.375 -3.8125 -17.375 -3.8125 -20.1875 -4.8125 C-27.33075379 -7.0535208 -35.06805696 -5.75533136 -42.375 -4.8125 C-42.045 -5.4725 -41.715 -6.1325 -41.375 -6.8125 C-27.75788641 -10.83752014 -11.50756916 -8.03921997 0 0 Z " fill="#6B6DDE" transform="translate(252.375,177.8125)"/>
<path d="M0 0 C1.32 0 2.64 0 4 0 C4 13.86 4 27.72 4 42 C2.515 42.495 2.515 42.495 1 43 C0.22478329 40.25104407 -0.12278847 37.81884931 -0.11352539 34.96582031 C-0.11344986 34.18531311 -0.11337433 33.40480591 -0.11329651 32.60064697 C-0.10813522 31.76821472 -0.10297394 30.93578247 -0.09765625 30.078125 C-0.0962413 29.21813904 -0.09482635 28.35815308 -0.09336853 27.47210693 C-0.08778097 24.73136891 -0.07523075 21.99071324 -0.0625 19.25 C-0.05748339 17.3893241 -0.05292077 15.52864691 -0.04882812 13.66796875 C-0.03781561 9.11194754 -0.02055951 4.55598772 0 0 Z " fill="#457AE4" transform="translate(269,282)"/>
<path d="M0 0 C0 0.99 0 1.98 0 3 C0.66 3 1.32 3 2 3 C2 4.65 2 6.3 2 8 C1.44828125 7.68289062 0.8965625 7.36578125 0.328125 7.0390625 C-2.28477989 5.87290025 -4.40579002 5.59954289 -7.25 5.375 C-8.14203125 5.30023438 -9.0340625 5.22546875 -9.953125 5.1484375 C-10.96632813 5.07496094 -10.96632813 5.07496094 -12 5 C-12 4.67 -12 4.34 -12 4 C-17.91260345 3.74293028 -23.23918159 4.7017874 -29 6 C-28.125 1.25 -28.125 1.25 -27 -1 C-17.85424689 -2.94590492 -9.02908868 -2.15161262 0 0 Z " fill="#477DE0" transform="translate(288,190)"/>
<path d="M0 0 C13.2 0 26.4 0 40 0 C40 0.33 40 0.66 40 1 C38.02 1 36.04 1 34 1 C34 1.99 34 2.98 34 4 C33.34 4.33 32.68 4.66 32 5 C32 5.99 32 6.98 32 8 C31.42926758 7.84152588 30.85853516 7.68305176 30.27050781 7.51977539 C28.02789812 7.00638657 25.96682085 6.79834104 23.671875 6.68359375 C22.47304688 6.62075195 22.47304688 6.62075195 21.25 6.55664062 C20.0125 6.49766602 20.0125 6.49766602 18.75 6.4375 C17.90953125 6.39431641 17.0690625 6.35113281 16.203125 6.30664062 C14.13559329 6.20091457 12.06781719 6.09998705 10 6 C10.33 4.35 10.66 2.7 11 1 C7.37 1 3.74 1 0 1 C0 0.67 0 0.34 0 0 Z " fill="#368AE1" transform="translate(272,270)"/>
<path d="M0 0 C1.875 1.125 1.875 1.125 3 3 C2.6875 6.6875 2.6875 6.6875 2 10 C1.34 10 0.68 10 0 10 C0 10.66 0 11.32 0 12 C-1.32 12 -2.64 12 -4 12 C-4.33 12.99 -4.66 13.98 -5 15 C-5.66 15 -6.32 15 -7 15 C-7 14.34 -7 13.68 -7 13 C-7.99 12.67 -8.98 12.34 -10 12 C-11.125 4.375 -11.125 4.375 -10 1 C-6.36624296 -1.01875391 -3.93679348 -1.34679777 0 0 Z " fill="#2DA3CE" transform="translate(340,313)"/>
<path d="M0 0 C1.32 0 2.64 0 4 0 C4.02578125 0.85722656 4.0515625 1.71445312 4.078125 2.59765625 C4.42531719 9.59673522 4.9893795 14.23473304 9 20 C9.33 20.99 9.66 21.98 10 23 C12.00016466 24.20882096 12.00016466 24.20882096 14 25 C12.68 25.33 11.36 25.66 10 26 C10 26.66 10 27.32 10 28 C8.0625 27.1875 8.0625 27.1875 6 26 C5.67 25.01 5.34 24.02 5 23 C4.01 23 3.02 23 2 23 C0.22589949 17.68468311 -0.2577668 13.14381195 -0.125 7.5625 C-0.11597656 6.83095703 -0.10695313 6.09941406 -0.09765625 5.34570312 C-0.07436153 3.56365702 -0.0385019 1.78178241 0 0 Z " fill="#308FDE" transform="translate(303,288)"/>
<path d="M0 0 C1.3303125 0.928125 1.3303125 0.928125 2.6875 1.875 C4.1415625 2.865 4.1415625 2.865 5.625 3.875 C10.6332402 8.11773198 14.59392088 15.4005145 15.6875 21.875 C15.80420586 23.87257002 15.86249414 25.87406276 15.875 27.875 C15.88917969 28.90625 15.90335937 29.9375 15.91796875 31 C15.69026947 33.84045203 15.15254061 35.46607948 13.6875 37.875 C13.62691406 36.63363281 13.56632812 35.39226562 13.50390625 34.11328125 C13.41946377 32.47134423 13.33481764 30.82941768 13.25 29.1875 C13.21068359 28.37087891 13.17136719 27.55425781 13.13085938 26.71289062 C12.91851997 22.67844189 12.64302078 18.81752691 11.6875 14.875 C10.6975 14.545 9.7075 14.215 8.6875 13.875 C8.0275 12.885 7.3675 11.895 6.6875 10.875 C5.6975 11.37 5.6975 11.37 4.6875 11.875 C4.625625 10.9675 4.56375 10.06 4.5 9.125 C3.50303956 5.13715824 2.03861834 4.10907889 -1.3125 1.875 C-1.3125 2.535 -1.3125 3.195 -1.3125 3.875 C-2.3025 4.205 -3.2925 4.535 -4.3125 4.875 C-3.3225 5.535 -2.3325 6.195 -1.3125 6.875 C-1.3125 7.535 -1.3125 8.195 -1.3125 8.875 C-1.93125 8.606875 -2.55 8.33875 -3.1875 8.0625 C-7.49244393 6.4266213 -11.89281552 5.16228674 -16.3125 3.875 C-16.3125 3.545 -16.3125 3.215 -16.3125 2.875 C-12.3525 2.875 -8.3925 2.875 -4.3125 2.875 C-4.6425 1.885 -4.9725 0.895 -5.3125 -0.125 C-2.3125 -1.125 -2.3125 -1.125 0 0 Z " fill="#36A4CA" transform="translate(333.3125,216.125)"/>
<path d="M0 0 C4.77987456 3.92946743 4.77987456 3.92946743 6.03515625 7.6953125 C6.43060123 11.88702931 6.30476526 14.17606552 4.34765625 17.9453125 C1.47665531 21.35947578 -0.56224835 23.33492319 -5.07421875 24.01171875 C-10.50186547 24.29402923 -13.75233213 23.38126017 -17.96484375 19.6953125 C-18.29484375 18.7053125 -18.62484375 17.7153125 -18.96484375 16.6953125 C-18.30484375 16.6953125 -17.64484375 16.6953125 -16.96484375 16.6953125 C-16.96484375 17.3553125 -16.96484375 18.0153125 -16.96484375 18.6953125 C-11.88701056 21.62483165 -6.72341741 21.8324214 -0.96484375 21.6953125 C-0.67609375 21.1178125 -0.38734375 20.5403125 -0.08984375 19.9453125 C0.60499213 18.55564074 1.33449865 17.18199973 2.1171875 15.83984375 C3.19320589 13.32608164 3.16273653 11.8315436 2.84765625 9.1328125 C2.77160156 8.36839844 2.69554687 7.60398437 2.6171875 6.81640625 C1.89510025 4.18490707 1.28691805 3.24759085 -0.96484375 1.6953125 C-3.92728101 1.11583969 -3.92728101 1.11583969 -7.15234375 1.0078125 C-8.23902344 0.94207031 -9.32570313 0.87632812 -10.4453125 0.80859375 C-11.27675781 0.77121094 -12.10820312 0.73382813 -12.96484375 0.6953125 C-13.29484375 2.0153125 -13.62484375 3.3353125 -13.96484375 4.6953125 C-14.95484375 4.3653125 -15.94484375 4.0353125 -16.96484375 3.6953125 C-17.29484375 4.6853125 -17.62484375 5.6753125 -17.96484375 6.6953125 C-18.29484375 6.0353125 -18.62484375 5.3753125 -18.96484375 4.6953125 C-14.41662193 -1.95208862 -7.29918782 -4.8467768 0 0 Z " fill="#40A4C3" transform="translate(342.96484375,307.3046875)"/>
<path d="M0 0 C0.33 0.66 0.66 1.32 1 2 C2.11375 2.103125 3.2275 2.20625 4.375 2.3125 C8 3 8 3 10 4.9375 C11.56727409 9.73727691 11.2874843 15.42503139 9 20 C7.0390625 21.0703125 7.0390625 21.0703125 4.625 22.125 C3.83351563 22.47820312 3.04203125 22.83140625 2.2265625 23.1953125 C0 24 0 24 -3 24 C-3 22.35 -3 20.7 -3 19 C-2.113125 18.71125 -1.22625 18.4225 -0.3125 18.125 C2.50382424 17.16851252 5.25083156 16.13201054 8 15 C8 13.35 8 11.7 8 10 C7.01 9.67 6.02 9.34 5 9 C3.8125 6.4375 3.8125 6.4375 3 4 C1.68 4 0.36 4 -1 4 C-0.67 2.68 -0.34 1.36 0 0 Z " fill="#437EE7" transform="translate(271,327)"/>
<path d="M0 0 C0.763125 0.226875 1.52625 0.45375 2.3125 0.6875 C2.3125 1.3475 2.3125 2.0075 2.3125 2.6875 C1.24 3.409375 0.1675 4.13125 -0.9375 4.875 C-5.7718324 8.17291502 -7.83850603 12.14051809 -9.6875 17.6875 C-10.26123025 25.13495991 -9.66510039 30.86383244 -6.6875 37.6875 C-6.6875 38.6775 -6.6875 39.6675 -6.6875 40.6875 C-7.30625 40.97625 -7.925 41.265 -8.5625 41.5625 C-10.82075765 42.62470042 -10.82075765 42.62470042 -12.6875 44.6875 C-14.25 42.3125 -14.25 42.3125 -15.6875 39.6875 C-15.3575 39.0275 -15.0275 38.3675 -14.6875 37.6875 C-14.0275 38.6775 -13.3675 39.6675 -12.6875 40.6875 C-11.2025 40.1925 -11.2025 40.1925 -9.6875 39.6875 C-10.0175 37.0475 -10.3475 34.4075 -10.6875 31.6875 C-11.3475 31.6875 -12.0075 31.6875 -12.6875 31.6875 C-12.6875 26.7375 -12.6875 21.7875 -12.6875 16.6875 C-12.0275 16.6875 -11.3675 16.6875 -10.6875 16.6875 C-10.77 15.800625 -10.8525 14.91375 -10.9375 14 C-10.63226416 9.95562515 -9.33661964 8.65772505 -6.6875 5.6875 C-6.3575 4.6975 -6.0275 3.7075 -5.6875 2.6875 C-3.80173153 0.04742414 -3.30736142 -0.38457691 0 0 Z " fill="#914AE4" transform="translate(171.6875,220.3125)"/>
<path d="M0 0 C5.61 0 11.22 0 17 0 C17 0.99 17 1.98 17 3 C19.97 3.33 22.94 3.66 26 4 C26 4.66 26 5.32 26 6 C16.76 6 7.52 6 -2 6 C-1.01 5.34 -0.02 4.68 1 4 C0.67 2.68 0.34 1.36 0 0 Z " fill="#5A6DE1" transform="translate(240,271)"/>
<path d="M0 0 C0.33 0.99 0.66 1.98 1 3 C1.66 3 2.32 3 3 3 C2.64989059 11.19256018 2.64989059 11.19256018 -0.0625 14.5625 C-0.701875 15.036875 -1.34125 15.51125 -2 16 C-1.855625 15.319375 -1.71125 14.63875 -1.5625 13.9375 C-0.93054091 10.63726918 -0.45686059 7.32855574 0 4 C-0.99 4.495 -0.99 4.495 -2 5 C-2.144375 5.763125 -2.28875 6.52625 -2.4375 7.3125 C-3.06191553 10.29581866 -4.12189444 11.65236806 -6 14 C-6.33 14.99 -6.66 15.98 -7 17 C-7.49113281 17.43957031 -7.98226562 17.87914062 -8.48828125 18.33203125 C-10.57819624 20.63795812 -10.72154595 22.64087735 -11.1875 25.6875 C-11.34605469 26.68136719 -11.50460938 27.67523438 -11.66796875 28.69921875 C-11.77753906 29.45847656 -11.88710937 30.21773437 -12 31 C-12.66 31 -13.32 31 -14 31 C-15.16504337 20.74761833 -9.1034467 10.8544355 -3 3 C-2.01956845 1.9808072 -1.02545551 0.97387935 0 0 Z " fill="#8452E6" transform="translate(194,181)"/>
<path d="M0 0 C0 0.66 0 1.32 0 2 C0.66 2 1.32 2 2 2 C1.75 3.875 1.75 3.875 1 6 C-2.74493834 8.65266466 -7.32107062 8.67696568 -11.75 9.125 C-12.54277344 9.21136719 -13.33554687 9.29773438 -14.15234375 9.38671875 C-16.10083141 9.59800054 -18.05032976 9.79992467 -20 10 C-20.33 9.01 -20.66 8.02 -21 7 C-20.67 6.34 -20.34 5.68 -20 5 C-17.6015625 4.62109375 -17.6015625 4.62109375 -14.625 4.4375 C-11.46357425 4.23313343 -9.01866352 4.00622117 -6 3 C-6 2.34 -6 1.68 -6 1 C-3 0 -3 0 0 0 Z " fill="#269ED4" transform="translate(334,266)"/>
<path d="M0 0 C1.65 0 3.3 0 5 0 C5.33 0.99 5.66 1.98 6 3 C6.99 3.33 7.98 3.66 9 4 C10.19763618 9.12256267 10.56193888 12.8833759 7.875 17.5625 C5.50888004 20.90953244 5.50888004 20.90953244 2.1875 21.5 C1.465625 21.335 0.74375 21.17 0 21 C0 19.68 0 18.36 0 17 C0.99 17 1.98 17 3 17 C3 16.34 3 15.68 3 15 C3.66 15 4.32 15 5 15 C5 12.03 5 9.06 5 6 C4.01 5.67 3.02 5.34 2 5 C2 4.34 2 3.68 2 3 C1.34 3 0.68 3 0 3 C0 2.01 0 1.02 0 0 Z " fill="#15A7DA" transform="translate(337,308)"/>
<path d="M0 0 C0.33 1.65 0.66 3.3 1 5 C-4.75 5.125 -4.75 5.125 -7 4 C-10.44127621 3.76862284 -13.87577869 3.60455322 -17.32226562 3.48242188 C-19.21946625 3.39109432 -21.11146711 3.20286566 -23 3 C-23.33 2.34 -23.66 1.68 -24 1 C-15.95984987 -4.46904521 -8.74296994 -2.34988916 0 0 Z " fill="#675EED" transform="translate(242,174)"/>
<path d="M0 0 C0 0.66 0 1.32 0 2 C-3 4 -3 4 -6.4375 4.4375 C-10.00788246 5.0012446 -11.48525614 5.48525614 -14 8 C-14.33 8.99 -14.66 9.98 -15 11 C-15.66 11 -16.32 11 -17 11 C-17 11.66 -17 12.32 -17 13 C-17.99 13.33 -18.98 13.66 -20 14 C-23.71272658 18.42671246 -23.68845321 23.46735865 -24 29 C-24.66 29 -25.32 29 -26 29 C-25.67 33.95 -25.34 38.9 -25 44 C-28.92161603 38.11757596 -27.61504902 28.35882569 -26.640625 21.453125 C-24.07102893 13.04985138 -16.10156962 6.10399396 -8.7265625 1.83984375 C-5.573103 0.30592114 -3.56949678 0 0 0 Z " fill="#9247E4" transform="translate(180,212)"/>
<path d="M0 0 C0.94875 0.04125 1.8975 0.0825 2.875 0.125 C2.875 0.785 2.875 1.445 2.875 2.125 C3.535 2.125 4.195 2.125 4.875 2.125 C5.91949911 5.25849732 5.80923645 6.11468256 4.875 9.125 C6.525 9.455 8.175 9.785 9.875 10.125 C9.875 9.465 9.875 8.805 9.875 8.125 C10.6175 7.980625 11.36 7.83625 12.125 7.6875 C14.78786562 7.18302414 14.78786562 7.18302414 17 6.5 C18.875 6.125 18.875 6.125 21.875 7.125 C16.26317006 10.05845656 16.26317006 10.05845656 13.6875 10.5 C10.87129223 11.47110613 10.18312382 13.57415854 8.875 16.125 C8.215 14.805 7.555 13.485 6.875 12.125 C3.16807285 11.8954969 3.16807285 11.8954969 1 12.8125 C-2.27408829 13.29398357 -4.33091537 11.71254809 -7.125 10.125 C-6.795 8.475 -6.465 6.825 -6.125 5.125 C-5.6609375 6.0840625 -5.6609375 6.0840625 -5.1875 7.0625 C-4.2904837 9.06110821 -4.2904837 9.06110821 -3.125 10.125 C-0.625 10.29166667 -0.625 10.29166667 1.875 10.125 C3.15822547 9.0654123 3.15822547 9.0654123 3 6.625 C3.15822547 4.1845877 3.15822547 4.1845877 1.875 3.125 C-0.45317964 2.75739269 -2.7868385 2.42258419 -5.125 2.125 C-3.125 0.125 -3.125 0.125 0 0 Z " fill="#8E49E3" transform="translate(166.125,316.875)"/>
<path d="M0 0 C0.75732422 0.00644531 1.51464844 0.01289063 2.29492188 0.01953125 C3.08060547 0.03628906 3.86628906 0.05304688 4.67578125 0.0703125 C5.47306641 0.07933594 6.27035156 0.08835937 7.09179688 0.09765625 C9.05742025 0.12119665 11.022889 0.15706703 12.98828125 0.1953125 C12.98828125 1.8453125 12.98828125 3.4953125 12.98828125 5.1953125 C6.71828125 5.1953125 0.44828125 5.1953125 -6.01171875 5.1953125 C-6.34171875 4.2053125 -6.67171875 3.2153125 -7.01171875 2.1953125 C-3.96490814 0.16410543 -3.41053551 -0.05128625 0 0 Z " fill="#6F57EF" transform="translate(211.01171875,270.8046875)"/>
<path d="M0 0 C8.58 0 17.16 0 26 0 C26 6.93 26 13.86 26 21 C25.67 21 25.34 21 25 21 C24.82715323 19.52154276 24.6621554 18.04216801 24.5 16.5625 C24.4071875 15.73878906 24.314375 14.91507812 24.21875 14.06640625 C23.93250089 10.05380714 24 6.02279631 24 2 C13.11 2.495 13.11 2.495 2 3 C2 4.98 2 6.96 2 9 C1.34 9 0.68 9 0 9 C0 6.03 0 3.06 0 0 Z " fill="#CCE9FB" transform="translate(275,277)"/>
<path d="M0 0 C0.99 0.33 1.98 0.66 3 1 C1 3 1 3 -1.97390747 3.24050903 C-3.24853851 3.23606781 -4.52316956 3.23162659 -5.83642578 3.22705078 C-6.53897491 3.22734283 -7.24152405 3.22763489 -7.96536255 3.22793579 C-10.29213731 3.22654023 -12.61859354 3.21096872 -14.9453125 3.1953125 C-16.55671005 3.19158317 -18.16810987 3.18873582 -19.7795105 3.18673706 C-24.02433514 3.17909431 -28.2690233 3.15944039 -32.51379395 3.1373291 C-36.8438126 3.11688443 -41.17385326 3.1077383 -45.50390625 3.09765625 C-54.00266686 3.07619504 -62.50131646 3.04205145 -71 3 C-69 1 -69 1 -66.18467712 0.76622009 C-64.98412186 0.77367752 -63.78356659 0.78113495 -62.54663086 0.78881836 C-61.8847023 0.7901326 -61.22277374 0.79144684 -60.54078674 0.7928009 C-58.34866145 0.79930234 -56.15688281 0.81973713 -53.96484375 0.83984375 C-52.44552488 0.8461117 -50.92620145 0.85135261 -49.40687561 0.85560608 C-45.40408877 0.86892409 -41.40145382 0.89336693 -37.39874268 0.92095947 C-30.98766782 0.96404444 -24.57655095 0.99373363 -18.16537666 1.0170002 C-15.92008543 1.02726266 -13.67491572 1.04430809 -11.42967224 1.06199646 C-10.06110748 1.06882123 -8.69254162 1.07543003 -7.32397461 1.08178711 C-6.12421494 1.09004013 -4.92445526 1.09829315 -3.68833923 1.10679626 C-1.08155722 1.30771765 -1.08155722 1.30771765 0 0 Z " fill="#EFFEFF" transform="translate(321,266)"/>
<path d="M0 0 C4.22448388 1.56462366 6.40096753 4.41754984 9 8 C9.8125 10.875 9.8125 10.875 10 13 C9.34 12.67 8.68 12.34 8 12 C8 11.34 8 10.68 8 10 C6.68 10 5.36 10 4 10 C3.67 13.3 3.34 16.6 3 20 C5.64 20 8.28 20 11 20 C11 20.33 11 20.66 11 21 C8.03 21 5.06 21 2 21 C1.34 17.04 0.68 13.08 0 9 C-1.32 8.67 -2.64 8.34 -4 8 C-4 7.34 -4 6.68 -4 6 C-0.86650268 4.95550089 -0.01031744 5.06576355 3 6 C2.2575 5.071875 2.2575 5.071875 1.5 4.125 C0 2 0 2 0 0 Z " fill="#4697D3" transform="translate(306,199)"/>
<path d="M0 0 C-6.07877934 3.24201565 -11.18401613 3.33278764 -18 3 C-17.82597656 3.97066406 -17.65195312 4.94132812 -17.47265625 5.94140625 C-16.84645403 10.32482177 -17.10945367 14.53715435 -17.4375 18.9375 C-17.51581055 20.10635742 -17.51581055 20.10635742 -17.59570312 21.29882812 C-17.72398064 23.19966772 -17.86107321 25.09990904 -18 27 C-20.23413013 23.64880481 -20.23847762 22.5822245 -20.1953125 18.67578125 C-20.18886719 17.64775391 -20.18242187 16.61972656 -20.17578125 15.56054688 C-20.15064453 13.95276367 -20.15064453 13.95276367 -20.125 12.3125 C-20.11597656 11.22904297 -20.10695313 10.14558594 -20.09765625 9.02929688 C-20.0740734 6.3526429 -20.04116126 3.67643203 -20 1 C-19.03578125 0.93941406 -18.0715625 0.87882812 -17.078125 0.81640625 C-15.81484375 0.73261719 -14.5515625 0.64882813 -13.25 0.5625 C-11.99703125 0.48128906 -10.7440625 0.40007812 -9.453125 0.31640625 C-6.16084995 0.10714854 -6.16084995 0.10714854 -3.671875 -0.59765625 C-2 -1 -2 -1 0 0 Z " fill="#D1F3FD" transform="translate(329,276)"/>
<path d="M0 0 C3 0 3 0 5.6875 2.5 C6.450625 3.325 7.21375 4.15 8 5 C8 4.34 8 3.68 8 3 C9.98 2.67 11.96 2.34 14 2 C13.67 3.32 13.34 4.64 13 6 C14.98 6 16.96 6 19 6 C18.67 6.99 18.34 7.98 18 9 C18.99 9 19.98 9 21 9 C21 10.32 21 11.64 21 13 C20.34 13 19.68 13 19 13 C19 12.34 19 11.68 19 11 C17.80375 10.9175 16.6075 10.835 15.375 10.75 C8.15856485 9.82089988 4.2451194 5.49368393 0 0 Z " fill="#3A95D1" transform="translate(305,311)"/>
<path d="M0 0 C0.33 0 0.66 0 1 0 C1 17.16 1 34.32 1 52 C-1.475 52.495 -1.475 52.495 -4 53 C-5.36020151 54.96758273 -5.36020151 54.96758273 -6 57 C-6.66 57 -7.32 57 -8 57 C-6.83242263 53.67689517 -5.85051143 51.16638868 -3 49 C-2.01 49 -1.02 49 0 49 C0 32.83 0 16.66 0 0 Z " fill="#5275CC" transform="translate(267,278)"/>
<path d="M0 0 C11.79192825 -0.11928251 11.79192825 -0.11928251 14.75390625 2.625 C15.8125 4.5625 15.8125 4.5625 17 8 C10.56318772 7.48914188 5.04057576 6.27057103 -1 4 C-0.67 2.68 -0.34 1.36 0 0 Z " fill="#358CDB" transform="translate(293,198)"/>
<path d="M0 0 C2.375 0.6875 2.375 0.6875 3.375 1.6875 C3.41580783 3.68708364 3.41754356 5.68795254 3.375 7.6875 C-1.25 9.8125 -1.25 9.8125 -4.625 8.6875 C-4.955 6.3775 -5.285 4.0675 -5.625 1.6875 C-2.625 -0.3125 -2.625 -0.3125 0 0 Z " fill="#ECECFC" transform="translate(234.625,348.3125)"/>
<path d="M0 0 C0.33 0 0.66 0 1 0 C1 21.12 1 42.24 1 64 C-0.98604969 60.02790063 -1.23240058 58.73266535 -1.13525391 54.49707031 C-1.11508209 53.39623108 -1.09491028 52.29539185 -1.0741272 51.16119385 C-1.04193085 49.97878113 -1.0097345 48.79636841 -0.9765625 47.578125 C-0.95153656 46.36300232 -0.92651062 45.14787964 -0.90072632 43.89593506 C-0.81853447 40.01367264 -0.72194001 36.13191945 -0.625 32.25 C-0.56675973 29.61851041 -0.50945647 26.9869999 -0.453125 24.35546875 C-0.31295661 17.90336369 -0.16096089 11.45161802 0 5 C-0.66 5 -1.32 5 -2 5 C-1.125 1.125 -1.125 1.125 0 0 Z " fill="#6D6DD0" transform="translate(237,277)"/>
<path d="M0 0 C13.2 0 26.4 0 40 0 C40 0.33 40 0.66 40 1 C27.625 1.495 27.625 1.495 15 2 C14.67 2.99 14.34 3.98 14 5 C18.62 5 23.24 5 28 5 C28 5.33 28 5.66 28 6 C22.06 6 16.12 6 10 6 C10.33 4.35 10.66 2.7 11 1 C7.37 1 3.74 1 0 1 C0 0.67 0 0.34 0 0 Z " fill="#4285CF" transform="translate(272,270)"/>
<path d="M0 0 C-0.99 0.66 -1.98 1.32 -3 2 C-3.7425 2.66 -4.485 3.32 -5.25 4 C-8.45122955 6.32816694 -11.16124953 7.1088615 -15 8 C-15.928125 8.2475 -16.85625 8.495 -17.8125 8.75 C-18.534375 8.8325 -19.25625 8.915 -20 9 C-20.66 8.34 -21.32 7.68 -22 7 C-16.25 4 -16.25 4 -14 4 C-14 3.34 -14 2.68 -14 2 C-9.07262981 0.02905192 -5.21979128 -0.1799928 0 0 Z " fill="#6D59F1" transform="translate(227,171)"/>
<path d="M0 0 C3 0.125 3 0.125 4 1.125 C4.1875 4.0625 4.1875 4.0625 4 7.125 C2 9.125 2 9.125 -0.5 9.4375 C-1.7375 9.2828125 -1.7375 9.2828125 -3 9.125 C-5 6.125 -5 6.125 -4.6875 3.5 C-3.68897505 0.05055016 -3.71397355 0.1547489 0 0 Z " fill="#E1F7F8" transform="translate(336,313.875)"/>
<path d="M0 0 C2.9375 0.1875 2.9375 0.1875 3.9375 1.1875 C4.125 4.125 4.125 4.125 3.9375 7.1875 C3.2775 7.8475 2.6175 8.5075 1.9375 9.1875 C-1.1875 8.8125 -1.1875 8.8125 -4.0625 8.1875 C-4.6875 5.3125 -4.6875 5.3125 -5.0625 2.1875 C-3.0625 0.1875 -3.0625 0.1875 0 0 Z " fill="#EBF5FC" transform="translate(271.0625,334.8125)"/>
<path d="M0 0 C2.5 0.25 2.5 0.25 4.5 2.25 C4.75 4.75 4.75 4.75 4.5 7.25 C2.5 9.25 2.5 9.25 0 9.5 C-2.5 9.25 -2.5 9.25 -4.5 7.25 C-4.75 4.75 -4.75 4.75 -4.5 2.25 C-2.5 0.25 -2.5 0.25 0 0 Z " fill="#FCE5FE" transform="translate(165.5,318.75)"/>
<path d="M0 0 C0.66 0.66 1.32 1.32 2 2 C1.525625 3.051875 1.05125 4.10375 0.5625 5.1875 C-1.64828671 10.97517275 -1.68014443 16.8587731 -2 23 C-5.96 23.33 -9.92 23.66 -14 24 C-12.7934375 23.1028125 -12.7934375 23.1028125 -11.5625 22.1875 C-8.77672016 20.19052724 -8.77672016 20.19052724 -8 17 C-7.34 17 -6.68 17 -6 17 C-6 18.32 -6 19.64 -6 21 C-5.01 21 -4.02 21 -3 21 C-3.11859375 19.81921875 -3.2371875 18.6384375 -3.359375 17.421875 C-3.49070491 15.86467752 -3.62085142 14.30737991 -3.75 12.75 C-3.83121094 11.97269531 -3.91242188 11.19539062 -3.99609375 10.39453125 C-4.44413244 4.57002825 -4.44413244 4.57002825 -2.015625 1.453125 C-1.35046875 0.97359375 -0.6853125 0.4940625 0 0 Z " fill="#885BE6" transform="translate(190,197)"/>
<path d="M0 0 C2.9719385 1.12451727 5.33440687 2.22293791 8 4 C8 5.32 8 6.64 8 8 C4.2983569 8.94693195 2.60887535 9.30443767 -0.875 7.5625 C-1.57625 7.046875 -2.2775 6.53125 -3 6 C-2.42655063 3.13275314 -2.1385485 2.1385485 0 0 Z " fill="#903BF4" transform="translate(163,260)"/>
<path d="M0 0 C1.32 0 2.64 0 4 0 C4 0.99 4 1.98 4 3 C4.99 3 5.98 3 7 3 C7.66 4.32 8.32 5.64 9 7 C10.258125 6.67 11.51625 6.34 12.8125 6 C18.22793168 4.77549156 23.47495171 4.81411052 29 5 C25.97306057 6.73266188 23.65460574 7.2573197 20.1875 7.4375 C15.52646483 7.81038281 12.16673811 8.91663095 8 11 C7.0406581 9.72992786 6.08256706 8.45891081 5.125 7.1875 C4.59132812 6.47980469 4.05765625 5.77210938 3.5078125 5.04296875 C2.29185219 3.39543703 1.13583859 1.70375789 0 0 Z " fill="#6481D4" transform="translate(251,188)"/>
<path d="M0 0 C1 3 1 3 -0.3125 5.8125 C-0.869375 6.864375 -1.42625 7.91625 -2 9 C-4.85581945 15.42559377 -3.89327802 21.00489134 -1.9375 27.5625 C-1.628125 28.366875 -1.31875 29.17125 -1 30 C-1.66 30.33 -2.32 30.66 -3 31 C-6.28685298 23.87848521 -7.45738474 16.54202769 -5.42578125 8.81640625 C-4.09495255 5.54214517 -2.26729196 2.69915709 0 0 Z " fill="#F8E4FE" transform="translate(167,227)"/>
<path d="M0 0 C0.25 2.29296875 0.25 2.29296875 0 5 C-1.75 6.80078125 -1.75 6.80078125 -4 8.3125 C-4.7425 8.82425781 -5.485 9.33601562 -6.25 9.86328125 C-6.8275 10.23839844 -7.405 10.61351562 -8 11 C-7.67 8.69 -7.34 6.38 -7 4 C-7.66 4 -8.32 4 -9 4 C-9 3.01 -9 2.02 -9 1 C-5.57367167 -0.61798838 -3.61944899 -1.34053666 0 0 Z " fill="#7952ED" transform="translate(204,180)"/>
<path d="M0 0 C0.33 0 0.66 0 1 0 C1.0093457 0.59425781 1.01869141 1.18851562 1.02832031 1.80078125 C1.08252993 4.53464645 1.16607278 7.26689199 1.25 10 C1.26417969 10.93457031 1.27835937 11.86914062 1.29296875 12.83203125 C1.53801418 19.84033048 2.69569911 25.71701718 7.81640625 30.8046875 C8.39261719 31.15789062 8.96882813 31.51109375 9.5625 31.875 C10.14128906 32.24367188 10.72007812 32.61234375 11.31640625 32.9921875 C11.87199219 33.32476562 12.42757813 33.65734375 13 34 C13.99 34.66 14.98 35.32 16 36 C10.27589143 35.15821933 6.35019827 33.42136538 2.33203125 29.19140625 C-1.27435566 23.96640474 -0.53798664 18.16451542 -0.3125 12.0625 C-0.28994141 10.90169922 -0.26738281 9.74089844 -0.24414062 8.54492188 C-0.18550578 5.69526834 -0.10348837 2.8483185 0 0 Z " fill="#4690C7" transform="translate(308,279)"/>
<path d="M0 0 C3.63 0.66 7.26 1.32 11 2 C10.34 3.32 9.68 4.64 9 6 C-0.41002278 6.18451025 -0.41002278 6.18451025 -5 5 C-5 4.34 -5 3.68 -5 3 C-4.360625 2.87625 -3.72125 2.7525 -3.0625 2.625 C-2.0415625 2.315625 -2.0415625 2.315625 -1 2 C-0.67 1.34 -0.34 0.68 0 0 Z " fill="#2399DD" transform="translate(320,213)"/>
<path d="M0 0 C0.33 0 0.66 0 1 0 C1.0825 1.03125 1.165 2.0625 1.25 3.125 C2.07327141 7.37856898 3.23953022 9.68743626 6 13 C8.12119128 13.95231597 8.12119128 13.95231597 10 14 C10 14.66 10 15.32 10 16 C10.61488281 15.71125 11.22976563 15.4225 11.86328125 15.125 C12.67152344 14.75375 13.47976563 14.3825 14.3125 14 C15.11300781 13.62875 15.91351563 13.2575 16.73828125 12.875 C19 12 19 12 22 12 C22 12.66 22 13.32 22 14 C17.353759 16.7877446 13.33999894 18.15948184 8 17 C4.50462437 14.99054396 2.23362207 12.3504331 0 9 C-0.1953125 6.73828125 -0.1953125 6.73828125 -0.125 4.3125 C-0.10695313 3.50425781 -0.08890625 2.69601562 -0.0703125 1.86328125 C-0.04710937 1.24839844 -0.02390625 0.63351562 0 0 Z " fill="#5D83D4" transform="translate(258,335)"/>
<path d="M0 0 C3.20662699 4.27550265 3.592351 4.96501651 3 10 C2.14677155 12.43709505 1.12098484 14.66461493 0 17 C-1.65 17 -3.3 17 -5 17 C-5.33 16.34 -5.66 15.68 -6 15 C-5.34 15 -4.68 15 -4 15 C-3.34 13.68 -2.68 12.36 -2 11 C-1.34 11 -0.68 11 0 11 C0 7.37 0 3.74 0 0 Z " fill="#5C67F5" transform="translate(242,344)"/>
<path d="M0 0 C5.56600362 2.73417722 5.56600362 2.73417722 6.75 6.1875 C6.87375 7.0846875 6.87375 7.0846875 7 8 C7.66 8.33 8.32 8.66 9 9 C7.68 9 6.36 9 5 9 C5 7.68 5 6.36 5 5 C0.05601526 3.0224061 -3.75198038 2.65586757 -9 3 C-9.99 3.66 -10.98 4.32 -12 5 C-12.99 4.67 -13.98 4.34 -15 4 C-10.55270919 -0.74377686 -6.14167947 -0.98109896 0 0 Z " fill="#8A4CDD" transform="translate(170,311)"/>
<path d="M0 0 C0 0.99 0 1.98 0 3 C0.66 3 1.32 3 2 3 C2 4.65 2 6.3 2 8 C1.44828125 7.68289062 0.8965625 7.36578125 0.328125 7.0390625 C-2.28477989 5.87290025 -4.40579002 5.59954289 -7.25 5.375 C-8.14203125 5.30023438 -9.0340625 5.22546875 -9.953125 5.1484375 C-10.96632813 5.07496094 -10.96632813 5.07496094 -12 5 C-8.00903919 0.58143625 -5.8802583 0 0 0 Z " fill="#3E84DD" transform="translate(288,190)"/>
<path d="M0 0 C0.33 0 0.66 0 1 0 C1.33 13.2 1.66 26.4 2 40 C2.99 40.33 3.98 40.66 5 41 C5 41.66 5 42.32 5 43 C3.35 42.34 1.7 41.68 0 41 C0 27.47 0 13.94 0 0 Z " fill="#EEFDFE" transform="translate(275,286)"/>
<path d="M0 0 C0.33 0.99 0.66 1.98 1 3 C1.66 3 2.32 3 3 3 C2.64989059 11.19256018 2.64989059 11.19256018 -0.0625 14.5625 C-0.701875 15.036875 -1.34125 15.51125 -2 16 C-1.855625 15.319375 -1.71125 14.63875 -1.5625 13.9375 C-0.93054091 10.63726918 -0.45686059 7.32855574 0 4 C-1.65 5.65 -3.3 7.3 -5 9 C-5.66 8.67 -6.32 8.34 -7 8 C-4.69 5.36 -2.38 2.72 0 0 Z " fill="#8055E4" transform="translate(194,181)"/>
<path d="M0 0 C4.29 0 8.58 0 13 0 C12.67 1.65 12.34 3.3 12 5 C7.97007218 4.44687265 3.97977076 3.8441938 0 3 C0 2.01 0 1.02 0 0 Z " fill="#447EE2" transform="translate(270,271)"/>
<path d="M0 0 C0.66 0.33 1.32 0.66 2 1 C2.6875 3.5 2.6875 3.5 3 6 C2.67 6.33 2.34 6.66 2 7 C2.01983318 8.45755187 2.1082947 9.91430639 2.2265625 11.3671875 C2.2884375 12.25277344 2.3503125 13.13835937 2.4140625 14.05078125 C2.55415196 15.92642344 2.70252853 17.80146594 2.859375 19.67578125 C2.91867187 20.56394531 2.97796875 21.45210937 3.0390625 22.3671875 C3.10303223 23.18300293 3.16700195 23.99881836 3.23291016 24.83935547 C2.942542 27.5330223 2.06592077 28.33015403 0 30 C0.03480469 28.40671875 0.03480469 28.40671875 0.0703125 26.78125 C0.24616231 16.24509835 0.24616231 16.24509835 -2 6 C-1.34 6 -0.68 6 0 6 C0 4.02 0 2.04 0 0 Z " fill="#E4FBFB" transform="translate(348,224)"/>
<path d="M0 0 C4.571279 0.54855348 8.67435795 1.41744803 13 3 C13 3.33 13 3.66 13 4 C5.575 5.485 5.575 5.485 -2 7 C-1 2 -1 2 0 0 Z " fill="#4878E9" transform="translate(261,189)"/>
<path d="M0 0 C0 0.66 0 1.32 0 2 C-3 4 -3 4 -6.4375 4.4375 C-10.00788246 5.0012446 -11.48525614 5.48525614 -14 8 C-14.33 8.99 -14.66 9.98 -15 11 C-16.32 10.67 -17.64 10.34 -19 10 C-13.19066275 4.4924465 -8.3718757 0 0 0 Z " fill="#8A4EDB" transform="translate(180,212)"/>
<path d="M0 0 C0.66 0 1.32 0 2 0 C2.19055047 4.76376184 2.07190488 8.64899976 0 13 C-2.125 13.875 -2.125 13.875 -4 14 C-4.75 12.4375 -4.75 12.4375 -5 10 C-4.13726168 8.12076802 -3.11824069 6.42688835 -2.0078125 4.68359375 C-0.83271625 2.8580329 -0.83271625 2.8580329 0 0 Z " fill="#7E47F3" transform="translate(192,185)"/>
<path d="M0 0 C3.63 0 7.26 0 11 0 C11.33 1.65 11.66 3.3 12 5 C7.53160785 5.21278058 4.17737474 4.59138085 0 3 C0 2.01 0 1.02 0 0 Z " fill="#5E65EF" transform="translate(231,174)"/>
<path d="M0 0 C0.66 0.66 1.32 1.32 2 2 C1.01 2.99 0.02 3.98 -1 5 C-0.67 5.66 -0.34 6.32 0 7 C-1 9 -1 9 -4 11 C-4.515625 11.53625 -5.03125 12.0725 -5.5625 12.625 C-7 14 -7 14 -9 14 C-7.34966761 8.71893635 -3.90667286 3.90667286 0 0 Z " fill="#F5EAFD" transform="translate(200,187)"/>
<path d="M0 0 C1.07507813 0.26490234 1.07507813 0.26490234 2.171875 0.53515625 C5.10419196 1.01712547 7.31911605 0.84456721 10.25 0.4375 C15.64925755 -0.14857952 19.78760137 0.54736432 25 2 C25 2.33 25 2.66 25 3 C16.75 3 8.5 3 0 3 C0 2.01 0 1.02 0 0 Z " fill="#668DCF" transform="translate(259,186)"/>
<path d="M0 0 C4.37820092 0.50036582 6.9197537 1.83174667 10 5 C10.3125 7.75 10.3125 7.75 10 10 C8.02 10.99 6.04 11.98 4 13 C4.33 10.03 4.66 7.06 5 4 C2.525 3.01 2.525 3.01 0 2 C0 1.34 0 0.68 0 0 Z " fill="#517DD1" transform="translate(269,332)"/>
<path d="M0 0 C3.3 0 6.6 0 10 0 C9.67 1.32 9.34 2.64 9 4 C4.545 4.495 4.545 4.495 0 5 C-0.33 4.01 -0.66 3.02 -1 2 C-0.67 1.34 -0.34 0.68 0 0 Z " fill="#2796DE" transform="translate(314,271)"/>
<path d="M0 0 C1.65 0 3.3 0 5 0 C5 0.66 5 1.32 5 2 C11.98187183 3.55994099 18.86606248 4.48462048 26 5 C26 5.33 26 5.66 26 6 C8.91610284 6.82002706 8.91610284 6.82002706 1 2 C0.67 1.34 0.34 0.68 0 0 Z " fill="#8551DA" transform="translate(167,271)"/>
<path d="M0 0 C3.63 1.32 7.26 2.64 11 4 C11 4.33 11 4.66 11 5 C10.35933594 4.98839844 9.71867187 4.97679687 9.05859375 4.96484375 C4.89330156 4.92139063 1.22552487 4.95271253 -2.875 5.8125 C-4.421875 5.9053125 -4.421875 5.9053125 -6 6 C-8.4375 3.5625 -8.4375 3.5625 -10 1 C-9.195625 1.495 -9.195625 1.495 -8.375 2 C-5.4608939 3.22699204 -3.13132292 3.14233286 0 3 C0 2.01 0 1.02 0 0 Z " fill="#8849DE" transform="translate(171,265)"/>
<path d="M0 0 C1.32 0.33 2.64 0.66 4 1 C4 2.32 4 3.64 4 5 C4.99 5 5.98 5 7 5 C7 6.32 7 7.64 7 9 C6.34 9 5.68 9 5 9 C5.226875 9.556875 5.45375 10.11375 5.6875 10.6875 C6.12449065 13.92123084 4.81198627 15.39073978 3 18 C2.34 17.67 1.68 17.34 1 17 C1.33 16.484375 1.66 15.96875 2 15.4375 C3.3709125 12.09590079 3.30946974 9.58984896 3 6 C1.61785878 2.64838754 1.61785878 2.64838754 0 0 Z " fill="#DCFAFE" transform="translate(345,309)"/>
<path d="M0 0 C4.55105375 0.54179211 8.06386006 1.62000841 12 4 C12.33 4.99 12.66 5.98 13 7 C11.02 7.33 9.04 7.66 7 8 C7 7.34 7 6.68 7 6 C6.34 5.67 5.68 5.34 5 5 C5 4.01 5 3.02 5 2 C3.35 1.67 1.7 1.34 0 1 C0 0.67 0 0.34 0 0 Z " fill="#616CCE" transform="translate(237,172)"/>
<path d="M0 0 C0.33 0 0.66 0 1 0 C1 3.3 1 6.6 1 10 C0.21625 10.0825 -0.5675 10.165 -1.375 10.25 C-4.14749104 10.72806339 -4.14749104 10.72806339 -5.3125 13.0625 C-5.539375 13.701875 -5.76625 14.34125 -6 15 C-6.66 15 -7.32 15 -8 15 C-6.83242263 11.67689517 -5.85051143 9.16638868 -3 7 C-2.01 7 -1.02 7 0 7 C0 4.69 0 2.38 0 0 Z " fill="#5A7AD0" transform="translate(267,320)"/>
<path d="M0 0 C0.66 0 1.32 0 2 0 C2 0.66 2 1.32 2 2 C2.66 2 3.32 2 4 2 C4 2.66 4 3.32 4 4 C4.66 4 5.32 4 6 4 C6 4.66 6 5.32 6 6 C6.66 6.33 7.32 6.66 8 7 C7.34 7.66 6.68 8.32 6 9 C5.195625 8.360625 4.39125 7.72125 3.5625 7.0625 C-0.35851307 4.40147674 -4.36642801 4.20593653 -9 4 C-9 3.67 -9 3.34 -9 3 C-4.545 2.505 -4.545 2.505 0 2 C0 1.34 0 0.68 0 0 Z " fill="#E5F8FD" transform="translate(304,193)"/>
<path d="M0 0 C0.33 1.98 0.66 3.96 1 6 C-2.63 5.67 -6.26 5.34 -10 5 C-3.87096774 0 -3.87096774 0 0 0 Z " fill="#8451EF" transform="translate(190,314)"/>
<path d="M0 0 C0.33 0 0.66 0 1 0 C0.979375 0.78375 0.95875 1.5675 0.9375 2.375 C0.81315937 4.98114961 0.81315937 4.98114961 2 7 C1.34 7.66 0.68 8.32 0 9 C-0.309375 9.680625 -0.61875 10.36125 -0.9375 11.0625 C-2 13 -2 13 -5 14 C-5.66 13.34 -6.32 12.68 -7 12 C-6.401875 11.319375 -5.80375 10.63875 -5.1875 9.9375 C-2.76412357 6.68325166 -1.4747599 3.76063775 0 0 Z " fill="#E3F7FC" transform="translate(347,254)"/>
<path d="M0 0 C0.66 0.33 1.32 0.66 2 1 C-1.09652196 4.27346607 -3.95019912 6.97509956 -8 9 C-8.99 9 -9.98 9 -11 9 C-11.66 7.35 -12.32 5.7 -13 4 C-12.34 4 -11.68 4 -11 4 C-11 4.66 -11 5.32 -11 6 C-6.14922412 4.88059018 -3.222107 3.8665284 0 0 Z " fill="#F4E2FE" transform="translate(188,310)"/>
<path d="M0 0 C2.93479802 2.80719811 3.93422265 4.12845006 4.25 8.3125 C3.98846 12.17021501 3.3066273 13.95525196 1 17 C0.67 17 0.34 17 0 17 C0.08378906 16.10796875 0.16757813 15.2159375 0.25390625 14.296875 C0.35574219 13.12640625 0.45757812 11.9559375 0.5625 10.75 C0.66691406 9.58984375 0.77132812 8.4296875 0.87890625 7.234375 C0.98198087 4.48128523 0.86213473 2.580018 0 0 Z " fill="#767BD7" transform="translate(243,344)"/>
<path d="M0 0 C0.33 0.66 0.66 1.32 1 2 C0.34 2 -0.32 2 -1 2 C-1 2.66 -1 3.32 -1 4 C-4.63195496 6.42130331 -6.38349348 6.21022785 -10.6875 6.125 C-11.86699219 6.10695313 -13.04648437 6.08890625 -14.26171875 6.0703125 C-15.16535156 6.04710937 -16.06898438 6.02390625 -17 6 C-17 5.67 -17 5.34 -17 5 C-16.35933594 4.89042969 -15.71867187 4.78085937 -15.05859375 4.66796875 C-9.6438309 3.67539672 -4.96677361 2.37541347 0 0 Z " fill="#3E99CE" transform="translate(329,265)"/>
<path d="M0 0 C2.62901288 1.52206009 4.84365964 2.84365964 7 5 C9.1374401 5.38594492 9.1374401 5.38594492 11.5 5.5 C15.77777778 5.77777778 15.77777778 5.77777778 18 8 C11.79029227 8.33266291 7.71735105 7.45029331 2 5 C2 4.01 2 3.02 2 2 C1.34 2 0.68 2 0 2 C0 1.34 0 0.68 0 0 Z " fill="#558FCF" transform="translate(288,191)"/>
<path d="M0 0 C0.80887283 2.88695261 1.13558234 5.57511902 1.3125 8.5625 C1.62013357 12.22548295 1.62013357 12.22548295 4.0625 14.9375 C4.701875 15.288125 5.34125 15.63875 6 16 C6 16.66 6 17.32 6 18 C2.60306001 16.59436966 0.90628077 15.1483334 -1 12 C-1.328125 9.23828125 -1.328125 9.23828125 -1.25 6.3125 C-1.23453125 5.33925781 -1.2190625 4.36601562 -1.203125 3.36328125 C-1 1 -1 1 0 0 Z " fill="#8C49DB" transform="translate(154,317)"/>
<path d="M0 0 C0.99 0.33 1.98 0.66 3 1 C4.38461538 9 4.38461538 9 3 12 C2.01 12.33 1.02 12.66 0 13 C0 8.71 0 4.42 0 0 Z " fill="#D7EAF9" transform="translate(282,333)"/>
<path d="M0 0 C1.98 0.495 1.98 0.495 4 1 C3.67 1.99 3.34 2.98 3 4 C7.62 4 12.24 4 17 4 C17 4.33 17 4.66 17 5 C11.06 5 5.12 5 -1 5 C-0.67 3.35 -0.34 1.7 0 0 Z " fill="#3C83D8" transform="translate(283,271)"/>
<path d="M0 0 C0.66 0.33 1.32 0.66 2 1 C2 2.65 2 4.3 2 6 C-3.28 5.01 -8.56 4.02 -14 3 C-14 2.67 -14 2.34 -14 2 C-12.04235617 1.80543295 -10.08384679 1.61955753 -8.125 1.4375 C-6.48917969 1.28087891 -6.48917969 1.28087891 -4.8203125 1.12109375 C-2 1 -2 1 0 2 C0 1.34 0 0.68 0 0 Z " fill="#D4EFF9" transform="translate(330,209)"/>
<path d="M0 0 C1.65 0.33 3.3 0.66 5 1 C5 1.66 5 2.32 5 3 C3.25 4.2890625 3.25 4.2890625 1 5.625 C0.2575 6.07101563 -0.485 6.51703125 -1.25 6.9765625 C-1.8275 7.31429687 -2.405 7.65203125 -3 8 C-3.33 6.35 -3.66 4.7 -4 3 C-3.01 2.67 -2.02 2.34 -1 2 C-0.67 1.34 -0.34 0.68 0 0 Z " fill="#8B44E8" transform="translate(169,220)"/>
<path d="M0 0 C0.66 1.32 1.32 2.64 2 4 C-0.97 3.67 -3.94 3.34 -7 3 C-7.33 2.01 -7.66 1.02 -8 0 C-4.99135897 -0.96706319 -2.94639752 -1.27677226 0 0 Z " fill="#2C91E9" transform="translate(308,202)"/>
<path d="M0 0 C3 0.125 3 0.125 4 1.125 C4.04080783 3.12458364 4.04254356 5.12545254 4 7.125 C3.67 7.125 3.34 7.125 3 7.125 C3 5.475 3 3.825 3 2.125 C1.35 2.125 -0.3 2.125 -2 2.125 C-2 3.115 -2 4.105 -2 5.125 C-2.99 5.455 -3.98 5.785 -5 6.125 C-3.93003229 0.16375135 -3.93003229 0.16375135 0 0 Z " fill="#D5F4FC" transform="translate(336,313.875)"/>
<path d="M0 0 C0.66 0 1.32 0 2 0 C1.67 2.97 1.34 5.94 1 9 C0.01 9.33 -0.98 9.66 -2 10 C-2.99 10.495 -2.99 10.495 -4 11 C-3.39301257 6.87248551 -1.96189209 3.6678852 0 0 Z " fill="#7E4AFB" transform="translate(195,304)"/>
<path d="M0 0 C2.31 0.33 4.62 0.66 7 1 C5.625 2.5 5.625 2.5 4 4 C3.34 4 2.68 4 2 4 C2 4.66 2 5.32 2 6 C0.68 5.34 -0.64 4.68 -2 4 C-1.34 2.68 -0.68 1.36 0 0 Z " fill="#F1F8F9" transform="translate(316,305)"/>
<path d="M0 0 C1.7325 0.928125 1.7325 0.928125 3.5 1.875 C7.60313625 3.94122218 11.51700017 5.03935718 16 6 C16 6.33 16 6.66 16 7 C14.22880197 6.85866501 12.45804713 6.71176792 10.6875 6.5625 C9.70136719 6.48128906 8.71523437 6.40007812 7.69921875 6.31640625 C5 6 5 6 2 5 C0.8125 2.4375 0.8125 2.4375 0 0 Z " fill="#F4DEFE" transform="translate(166,271)"/>
<path d="M0 0 C0.99 0.33 1.98 0.66 3 1 C2.814375 1.78375 2.62875 2.5675 2.4375 3.375 C1.74037734 5.97089775 1.74037734 5.97089775 3 8 C5.52733235 8.65555119 5.52733235 8.65555119 8 9 C6.25 10.125 6.25 10.125 4 11 C1.8125 10.5 1.8125 10.5 0 9 C-0.99184231 5.41410857 -1.18429132 3.55287397 0 0 Z " fill="#3399C6" transform="translate(330,314)"/>
<path d="M0 0 C2.78211944 0.37596209 4.5879284 0.67318459 6.8125 2.4375 C8 4 8 4 8 6 C8.66 6 9.32 6 10 6 C10 7.65 10 9.3 10 11 C9.46375 10.278125 8.9275 9.55625 8.375 8.8125 C6.53443943 6.6328888 4.9291455 5.0212012 2.75 3.25 C1.8425 2.5075 0.935 1.765 0 1 C0 0.67 0 0.34 0 0 Z " fill="#D5F7FB" transform="translate(334,216)"/>
<path d="M0 0 C3.53372712 1.96318174 6.24479785 4.04070881 9 7 C5.31245243 6.50168276 3.39509338 5.89932357 1 3 C0.67 3.66 0.34 4.32 0 5 C-0.99 4.01 -1.98 3.02 -3 2 C-2.01 1.34 -1.02 0.68 0 0 Z " fill="#339FCF" transform="translate(331,215)"/>
<path d="M0 0 C4.22448388 1.56462366 6.40096753 4.41754984 9 8 C9.8125 10.875 9.8125 10.875 10 13 C8.08661625 11.26884328 6.86004152 9.75659395 5.5625 7.5 C3.95469871 4.92751794 2.42097591 3.75312049 0 2 C0 1.34 0 0.68 0 0 Z " fill="#4E94C8" transform="translate(306,199)"/>
<path d="M0 0 C0.99 0 1.98 0 3 0 C1.98733788 2.02532424 0.97450448 4.04949131 -0.0625 6.0625 C-1.11611949 8.13410175 -1.11611949 8.13410175 -2 11 C-2.66 10.67 -3.32 10.34 -4 10 C-3.43768609 6.06380262 -2.38314183 3.20807554 0 0 Z " fill="#F8FDF0" transform="translate(168,229)"/>
<path d="M0 0 C1.0725 0.2475 2.145 0.495 3.25 0.75 C2.26 2.235 2.26 2.235 1.25 3.75 C-0.9140625 4.04296875 -0.9140625 4.04296875 -3.375 3.9375 C-4.19226563 3.91042969 -5.00953125 3.88335937 -5.8515625 3.85546875 C-6.79128906 3.80326172 -6.79128906 3.80326172 -7.75 3.75 C-5.15187156 0.32047046 -4.43092205 -0.2953948 0 0 Z " fill="#8B45E4" transform="translate(169.75,332.25)"/>
<path d="M0 0 C2.875 -0.125 2.875 -0.125 6 0 C6.66 0.66 7.32 1.32 8 2 C6.68 2.33 5.36 2.66 4 3 C4 3.66 4 4.32 4 5 C2.68 4.34 1.36 3.68 0 3 C0 2.01 0 1.02 0 0 Z " fill="#2C93E1" transform="translate(309,311)"/>
<path d="M0 0 C4.17882671 2.56428003 7.12505529 5.01930733 10 9 C9.67 9.66 9.34 10.32 9 11 C4.3125 7.38671875 4.3125 7.38671875 3 6 C3 5.01 3 4.02 3 3 C2.01 2.67 1.02 2.34 0 2 C0 1.34 0 0.68 0 0 Z " fill="#CCF2FB" transform="translate(328,223)"/>
<path d="M0 0 C0.66 0 1.32 0 2 0 C2 1.32 2 2.64 2 4 C2.99 4.33 3.98 4.66 5 5 C1.37 5.66 -2.26 6.32 -6 7 C-5.195625 6.401875 -4.39125 5.80375 -3.5625 5.1875 C-0.77672016 3.19052724 -0.77672016 3.19052724 0 0 Z " fill="#844EDB" transform="translate(182,214)"/>
<path d="M0 0 C2.0625 0.4375 2.0625 0.4375 4 1 C3.67 2.65 3.34 4.3 3 6 C1.68 6 0.36 6 -1 6 C-1.042721 4.33388095 -1.04063832 2.66617115 -1 1 C-0.67 0.67 -0.34 0.34 0 0 Z " fill="#2A93E4" transform="translate(310,208)"/>
<path d="M0 0 C1.98 0.495 1.98 0.495 4 1 C4 3.31 4 5.62 4 8 C4.66 8.33 5.32 8.66 6 9 C5.01 9 4.02 9 3 9 C2.67 7.68 2.34 6.36 2 5 C1.34 5 0.68 5 0 5 C-0.33 4.01 -0.66 3.02 -1 2 C-0.67 1.34 -0.34 0.68 0 0 Z " fill="#5A79DB" transform="translate(263,335)"/>
<path d="M0 0 C0.99 0.33 1.98 0.66 3 1 C1 3 1 3 -0.87939453 3.22705078 C-1.62302246 3.21657715 -2.36665039 3.20610352 -3.1328125 3.1953125 C-4.34130859 3.18564453 -4.34130859 3.18564453 -5.57421875 3.17578125 C-6.41597656 3.15902344 -7.25773437 3.14226562 -8.125 3.125 C-9.39923828 3.11146484 -9.39923828 3.11146484 -10.69921875 3.09765625 C-12.79959884 3.07405647 -14.89983444 3.03818483 -17 3 C-17 2.67 -17 2.34 -17 2 C-15.85660156 1.93941406 -14.71320313 1.87882812 -13.53515625 1.81640625 C-12.04425695 1.73201572 -10.55337225 1.64736698 -9.0625 1.5625 C-8.30775391 1.52318359 -7.55300781 1.48386719 -6.77539062 1.44335938 C-3.08055813 1.55961976 -3.08055813 1.55961976 0 0 Z " fill="#DFFBFE" transform="translate(321,266)"/>
<path d="M0 0 C0.185625 0.598125 0.37125 1.19625 0.5625 1.8125 C2.72273753 5.09981799 5.35107655 5.64854687 9 7 C8.67 7.66 8.34 8.32 8 9 C3.56541027 7.6062718 1.12621626 5.39417765 -2 2 C-1.34 2 -0.68 2 0 2 C0 1.34 0 0.68 0 0 Z " fill="#F0D9FE" transform="translate(168,258)"/>
<path d="M0 0 C2.31 0.33 4.62 0.66 7 1 C6.67 2.32 6.34 3.64 6 5 C4.68 5.33 3.36 5.66 2 6 C2 4.68 2 3.36 2 2 C1.34 2 0.68 2 0 2 C0 1.34 0 0.68 0 0 Z " fill="#F8F2FC" transform="translate(185,305)"/>
<path d="M0 0 C2.64 0 5.28 0 8 0 C8.66 1.32 9.32 2.64 10 4 C6.13304322 4 3.4911548 2.58090029 0 1 C0 0.67 0 0.34 0 0 Z " fill="#5D8CDC" transform="translate(278,195)"/>
<path d="M0 0 C1.32 0.66 2.64 1.32 4 2 C3.67 3.32 3.34 4.64 3 6 C1.35 6.33 -0.3 6.66 -2 7 C-1.125 2.25 -1.125 2.25 0 0 Z " fill="#4F75F3" transform="translate(261,189)"/>
<path d="M0 0 C1.32 0 2.64 0 4 0 C4 1.65 4 3.3 4 5 C2.35 4.67 0.7 4.34 -1 4 C-0.67 2.68 -0.34 1.36 0 0 Z " fill="#FAFCF9" transform="translate(164,320)"/>
<path d="M0 0 C0.33 0.66 0.66 1.32 1 2 C-2.96 3.32 -6.92 4.64 -11 6 C-10 3 -10 3 -7 1 C-4.67612053 0.60612212 -2.34206251 0.26513915 0 0 Z " fill="#F9E7FE" transform="translate(179,210)"/>
<path d="M0 0 C0.33 0.99 0.66 1.98 1 3 C1.66 3.33 2.32 3.66 3 4 C1.8553125 4.12375 1.8553125 4.12375 0.6875 4.25 C-2.52373261 5.14615794 -3.29374499 6.21611025 -5 9 C-5.66 8.67 -6.32 8.34 -7 8 C-4.69 5.36 -2.38 2.72 0 0 Z " fill="#8D66E0" transform="translate(194,181)"/>
<path d="M0 0 C0.33 0 0.66 0 1 0 C1.0825 1.010625 1.165 2.02125 1.25 3.0625 C1.84006068 7.37786916 3.68916002 10.34738197 6 14 C2.83884224 12.63016497 2.0072908 12.0109362 0 9 C-0.1953125 6.73828125 -0.1953125 6.73828125 -0.125 4.3125 C-0.10695313 3.50425781 -0.08890625 2.69601562 -0.0703125 1.86328125 C-0.04710937 1.24839844 -0.02390625 0.63351562 0 0 Z " fill="#6175CA" transform="translate(258,335)"/>
<path d="M0 0 C0.33 0.66 0.66 1.32 1 2 C-1.31 2.66 -3.62 3.32 -6 4 C-6.66 3.34 -7.32 2.68 -8 2 C-4.77208445 -0.1519437 -3.71599191 -0.20086443 0 0 Z " fill="#7654F8" transform="translate(213,176)"/>
<path d="M0 0 C2.35448165 2.55068845 2.98327924 3.71017358 3.1875 7.25 C3.125625 8.1575 3.06375 9.065 3 10 C2.67 9.34 2.34 8.68 2 8 C1.34 8 0.68 8 0 8 C0 5.36 0 2.72 0 0 Z " fill="#5E65E8" transform="translate(242,344)"/>
<path d="M0 0 C0.66 0.33 1.32 0.66 2 1 C0.07423885 3.43929746 -1.80090595 5.80090595 -4 8 C-4.625 6.1875 -4.625 6.1875 -5 4 C-3 1 -3 1 0 0 Z " fill="#E4F1FD" transform="translate(262,327)"/>
<path d="M0 0 C-0.66 1.32 -1.32 2.64 -2 4 C-4.86724686 3.42655063 -5.8614515 3.1385485 -8 1 C-3.375 -1.125 -3.375 -1.125 0 0 Z " fill="#D9F6FC" transform="translate(326,310)"/>
<path d="M0 0 C2.475 0.495 2.475 0.495 5 1 C6.375 3.375 6.375 3.375 7 6 C6.67 6.99 6.34 7.98 6 9 C4.02 6.03 2.04 3.06 0 0 Z " fill="#2F9FC3" transform="translate(332,225)"/>
<path d="M0 0 C1.051875 0.2475 1.051875 0.2475 2.125 0.5 C5.13888194 1.02415338 7.94713625 1.07099683 11 1 C9 3 9 3 6.8359375 3.1953125 C5.61777344 3.16050781 5.61777344 3.16050781 4.375 3.125 C3.55773437 3.10695312 2.74046875 3.08890625 1.8984375 3.0703125 C1.27195312 3.04710937 0.64546875 3.02390625 0 3 C0 2.01 0 1.02 0 0 Z " fill="#607DC7" transform="translate(259,186)"/>
<path d="M0 0 C2.31 0 4.62 0 7 0 C4.93243723 2.7972908 3.85559629 3.02692273 0.3125 3.6875 C-0.780625 3.790625 -1.87375 3.89375 -3 4 C-2.505 3.525625 -2.01 3.05125 -1.5 2.5625 C0.11542197 1.24076302 0.11542197 1.24076302 0 0 Z " fill="#8356DA" transform="translate(181,323)"/>
<path d="M0 0 C0.66 0 1.32 0 2 0 C2 1.65 2 3.3 2 5 C0.68 4.67 -0.64 4.34 -2 4 C-2.33 4.99 -2.66 5.98 -3 7 C-3.33 6.34 -3.66 5.68 -4 5 C-2.71937515 3.2925002 -1.38232443 1.62626404 0 0 Z " fill="#4BA1D1" transform="translate(328,307)"/>
<path d="M0 0 C0 0.66 0 1.32 0 2 C-3 4 -3 4 -5.1875 3.625 C-5.785625 3.41875 -6.38375 3.2125 -7 3 C-7 2.34 -7 1.68 -7 1 C-4 0 -4 0 0 0 Z " fill="#8C55EA" transform="translate(180,212)"/>
<path d="M0 0 C1.45742463 -0.08096803 2.91612807 -0.13917774 4.375 -0.1875 C5.18710938 -0.22230469 5.99921875 -0.25710937 6.8359375 -0.29296875 C7.55007812 -0.19628906 8.26421875 -0.09960938 9 0 C9.66 0.99 10.32 1.98 11 3 C9.741875 2.87625 8.48375 2.7525 7.1875 2.625 C6.12595703 2.52058594 6.12595703 2.52058594 5.04296875 2.4140625 C3 2 3 2 0 0 Z " fill="#6767DC" transform="translate(229,171)"/>
<path d="M0 0 C1.32 0.33 2.64 0.66 4 1 C3.67 2.98 3.34 4.96 3 7 C2.67 6.34 2.34 5.68 2 5 C1.34 5 0.68 5 0 5 C0 3.35 0 1.7 0 0 Z " fill="#695FF4" transform="translate(223,352)"/>
<path d="M0 0 C1.65 0.33 3.3 0.66 5 1 C4.67 1.99 4.34 2.98 4 4 C2.35 3.67 0.7 3.34 -1 3 C-0.67 2.01 -0.34 1.02 0 0 Z " fill="#21A0E4" transform="translate(332,307)"/>
<path d="M0 0 C0.33 1.32 0.66 2.64 1 4 C-1.475 5.485 -1.475 5.485 -4 7 C-4.66 6.34 -5.32 5.68 -6 5 C-4.02 3.35 -2.04 1.7 0 0 Z " fill="#D1F2F9" transform="translate(339,267)"/>
<path d="M0 0 C-2.64 1.98 -5.28 3.96 -8 6 C-7.75 3.625 -7.75 3.625 -7 1 C-4.12732844 -1.10662581 -3.46720491 -1.15573497 0 0 Z " fill="#F2DCFE" transform="translate(168,217)"/>
<path d="M0 0 C2.31 1.98 4.62 3.96 7 6 C6.01 6.33 5.02 6.66 4 7 C1.23609263 4.59660228 0.95934081 3.83736322 0 0 Z " fill="#E8F1FC" transform="translate(246,184)"/>
<path d="M0 0 C1.65 0.33 3.3 0.66 5 1 C5 1.66 5 2.32 5 3 C3.02 3.33 1.04 3.66 -1 4 C-0.67 2.68 -0.34 1.36 0 0 Z " fill="#566CDE" transform="translate(245,176)"/>
<path d="M0 0 C0.66 0 1.32 0 2 0 C2 1.98 2 3.96 2 6 C1.01 5.67 0.02 5.34 -1 5 C-1.33 4.01 -1.66 3.02 -2 2 C-1.34 1.34 -0.68 0.68 0 0 Z " fill="#EFEEFE" transform="translate(219,350)"/>
<path d="M0 0 C0.99 0.33 1.98 0.66 3 1 C0.6875 3.0625 0.6875 3.0625 -2 5 C-2.99 4.67 -3.98 4.34 -5 4 C-2.6875 1.9375 -2.6875 1.9375 0 0 Z " fill="#9656E4" transform="translate(160,311)"/>
</svg>
